<svg width="81" height="80" viewBox="0 0 81 80" fill="none" xmlns="http://www.w3.org/2000/svg">
<rect x="0.360352" width="80" height="80" rx="5" fill="#325F8A"/>
<g clip-path="url(#clip0)">
<path d="M62.2794 18.9141H18.4413C16.7424 18.9141 15.3604 20.2961 15.3604 21.9949V51.7423C15.3604 53.4411 16.7424 54.8231 18.4413 54.8231H33.2681L32.6684 59.6209H30.1836C29.779 59.6209 29.4512 59.9488 29.4512 60.3533C29.4512 60.7578 29.779 61.0857 30.1836 61.0857H50.5371C50.9417 61.0857 51.2695 60.7578 51.2695 60.3533C51.2695 59.9488 50.9417 59.6209 50.5371 59.6209H48.0524L47.4526 54.8231H62.2794C63.9782 54.8231 65.3604 53.4411 65.3604 51.7423V21.9949C65.3604 20.2961 63.9783 18.9141 62.2794 18.9141ZM34.1446 59.6209L34.7444 54.8231H37.44L37.7045 55.8808C38.0098 57.1018 39.102 57.9544 40.3605 57.9544C41.6189 57.9544 42.7111 57.1018 43.0164 55.8808L43.2809 54.8231H45.9765L46.5761 59.6209H34.1446ZM38.9499 54.8231H41.7707L41.5951 55.5255C41.4532 56.0932 40.9455 56.4896 40.3603 56.4896C39.775 56.4896 39.2674 56.0931 39.1254 55.5255L38.9499 54.8231ZM63.8955 51.7423C63.8955 52.6334 63.1705 53.3583 62.2794 53.3583H18.4413C17.5502 53.3583 16.8252 52.6334 16.8252 51.7423V21.9949C16.8252 21.1038 17.5502 20.3789 18.4413 20.3789H62.2794C63.1705 20.3789 63.8955 21.1038 63.8955 21.9949V51.7423Z" fill="white"/>
<path d="M56.7992 22.0454H19.2236C18.819 22.0454 18.4912 22.3732 18.4912 22.7778V50.9595C18.4912 51.3641 18.819 51.6919 19.2236 51.6919H20.7894C21.1939 51.6919 21.5218 51.3641 21.5218 50.9595C21.5219 50.555 21.1939 50.2271 20.7895 50.2271H19.9562V23.5103H56.7992C57.2038 23.5103 57.5316 23.1823 57.5316 22.7778C57.5316 22.3732 57.2038 22.0454 56.7992 22.0454Z" fill="white"/>
<path d="M61.4965 22.0454H59.9308C59.5262 22.0454 59.1983 22.3732 59.1983 22.7778C59.1983 23.1823 59.5262 23.5103 59.9308 23.5103H60.7641V50.2271H23.9209C23.5163 50.2271 23.1885 50.555 23.1885 50.9595C23.1885 51.3641 23.5163 51.6919 23.9209 51.6919H61.4964C61.901 51.6919 62.2288 51.3641 62.2288 50.9595V22.7778C62.2289 22.3732 61.901 22.0454 61.4965 22.0454Z" fill="white"/>
<path d="M50.3305 30.1546C50.1988 29.9863 50.0003 29.884 49.787 29.8743L32.5649 29.0914C32.5515 29.0908 32.5383 29.0905 32.5247 29.0907C32.4228 28.7561 32.2073 28.4658 31.9157 28.2713L29.8066 26.8652C29.4701 26.6409 29.0153 26.7318 28.791 27.0685C28.5667 27.4051 28.6576 27.8598 28.9941 28.0841L31.1031 29.4899C31.1131 29.4966 31.1204 29.5066 31.1237 29.5182L33.8102 38.9206C33.894 39.2138 34.0318 39.4772 34.2089 39.7048L33.226 41.6706C32.9894 42.1438 33.0142 42.6948 33.2923 43.1448C33.3932 43.308 33.5211 43.447 33.6681 43.5583C33.4757 43.8941 33.365 44.2826 33.365 44.6967C33.365 45.9639 34.396 46.9947 35.6631 46.9947C36.9302 46.9947 37.9611 45.9638 37.9611 44.6967C37.9611 44.4028 37.9051 44.122 37.8041 43.8635H44.4816C44.3806 44.122 44.3245 44.4028 44.3245 44.6967C44.3245 45.9639 45.3555 46.9947 46.6226 46.9947C47.8897 46.9947 48.9206 45.9638 48.9206 44.6967C48.9206 44.3291 48.8334 43.9817 48.6793 43.6733C48.8272 43.5394 48.9206 43.3464 48.9206 43.1311C48.9206 42.7266 48.5928 42.3986 48.1882 42.3986H34.581C34.5705 42.3986 34.5528 42.3986 34.5381 42.3747C34.5233 42.3509 34.5313 42.3352 34.5359 42.3257L35.4414 40.5148C35.6257 40.5622 35.8177 40.5878 36.0142 40.5878C36.1047 40.5878 36.1961 40.5824 36.2881 40.5717L46.5797 39.3609C47.9089 39.2045 48.9783 38.2178 49.2408 36.9053L50.4719 30.7496C50.5138 30.5401 50.4621 30.3229 50.3305 30.1546ZM46.6224 43.8637C47.0819 43.8637 47.4556 44.2375 47.4556 44.6969C47.4556 45.1563 47.0819 45.5301 46.6224 45.5301C46.1629 45.5301 45.7892 45.1563 45.7892 44.6969C45.7892 44.2374 46.1629 43.8637 46.6224 43.8637ZM35.6629 43.8637C36.1224 43.8637 36.4961 44.2374 36.4961 44.6969C36.4961 45.1563 36.1224 45.5301 35.6629 45.5301C35.2034 45.5301 34.8297 45.1563 34.8297 44.6969C34.8297 44.2374 35.2034 43.8637 35.6629 43.8637ZM33.8668 33.7877L32.9489 30.5753L35.8772 30.7084L36.3849 33.7877H33.8668ZM36.117 39.1169C35.7086 39.1649 35.3312 38.9131 35.2185 38.5183L34.2854 35.2525H36.6264L37.2417 38.9846L36.117 39.1169ZM40.4103 38.6118L38.6982 38.8133L38.1111 35.2526H40.4103V38.6118ZM40.4103 33.7877H37.8695L37.3731 30.7765L40.4103 30.9146V33.7877ZM44.1194 38.1754L41.8751 38.4395V35.2525H44.384L44.1194 38.1754ZM44.5166 33.7877H41.8751V30.9811L44.7588 31.1121L44.5166 33.7877ZM47.8043 36.6182C47.6666 37.3064 47.1057 37.8241 46.4085 37.9062L45.6061 38.0006L45.8548 35.2526H48.0774L47.8043 36.6182ZM48.3704 33.7877H45.9875L46.2236 31.1787L48.8682 31.2989L48.3704 33.7877Z" fill="white"/>
</g>
<defs>
<clipPath id="clip0">
<rect width="50" height="50" fill="white" transform="translate(15.3604 15)"/>
</clipPath>
</defs>
</svg>
