<svg width="27" height="27" viewBox="0 0 27 27" fill="none" xmlns="http://www.w3.org/2000/svg">
<rect width="27" height="27" rx="5" fill="#325F8A"/>
<g clip-path="url(#clip0)">
<path d="M20.3655 8.53036L13.1009 5.0233C13.0365 4.99223 12.9615 4.99223 12.8971 5.0233L5.63247 8.53036C5.55147 8.56945 5.5 8.65148 5.5 8.74142V17.2586C5.5 17.3485 5.55147 17.4305 5.63247 17.4696L12.8971 20.9767C12.9293 20.9922 12.9642 21 12.999 21C13.0338 21 13.0687 20.9922 13.1009 20.9767L20.3655 17.4696C20.4465 17.4305 20.498 17.3485 20.498 17.2586V8.74145C20.498 8.65145 20.4465 8.56948 20.3655 8.53036ZM12.999 5.49464L19.7245 8.74142L17.7749 9.68261C17.7626 9.6732 17.7496 9.66452 17.7352 9.65761L11.0554 6.43292L12.999 5.49464ZM10.5261 6.69792L17.2418 9.93998L15.8664 10.604L9.15341 7.36327L10.5261 6.69792ZM17.399 10.3846V12.8392L16.1142 13.4594V11.0049L17.399 10.3846ZM20.0292 17.1115L13.2334 20.3922V12.3956L14.8544 11.613C14.971 11.5567 15.0198 11.4166 14.9636 11.3C14.9073 11.1835 14.7672 11.1346 14.6506 11.1909L12.999 11.9882L12.3491 11.6745C12.2325 11.6181 12.0924 11.6671 12.0362 11.7836C11.9799 11.9002 12.0288 12.0403 12.1453 12.0966L12.7646 12.3956V20.3922L5.96875 17.1115V9.11483L11.1438 11.6131C11.1766 11.629 11.2113 11.6365 11.2455 11.6365C11.3326 11.6365 11.4163 11.5877 11.4567 11.504C11.513 11.3874 11.4641 11.2473 11.3475 11.191L6.27347 8.74142L8.60175 7.61742L15.6422 11.0163C15.6432 11.0177 15.6444 11.019 15.6454 11.0204V13.8329C15.6454 13.9135 15.6869 13.9885 15.7552 14.0314C15.7932 14.0552 15.8364 14.0672 15.8798 14.0672C15.9146 14.0672 15.9494 14.0595 15.9817 14.0439L17.7352 13.1974C17.8162 13.1583 17.8677 13.0763 17.8677 12.9863V10.1584L20.0292 9.11486V17.1115Z" fill="white"/>
<path d="M7.90439 16.2024L6.83829 15.6877C6.72166 15.6314 6.5816 15.6803 6.52532 15.7969C6.46904 15.9134 6.51791 16.0535 6.63448 16.1098L7.70057 16.6245C7.73342 16.6403 7.76814 16.6478 7.80229 16.6478C7.88942 16.6478 7.9731 16.599 8.01351 16.5153C8.06982 16.3987 8.02095 16.2587 7.90439 16.2024Z" fill="white"/>
<path d="M8.886 15.564L6.84022 14.5763C6.72363 14.5201 6.58353 14.5689 6.52725 14.6855C6.471 14.8021 6.51988 14.9422 6.63644 14.9985L8.68222 15.9861C8.71507 16.002 8.74978 16.0095 8.78394 16.0095C8.87107 16.0095 8.95475 15.9607 8.99516 15.877C9.05144 15.7603 9.00257 15.6202 8.886 15.564Z" fill="white"/>
</g>
<defs>
<clipPath id="clip0">
<rect width="16" height="16" fill="white" transform="translate(5 5)"/>
</clipPath>
</defs>
</svg>
