<svg width="85" height="14" viewBox="0 0 85 14" fill="none" xmlns="http://www.w3.org/2000/svg">
<g clip-path="url(#clip0)">
<path d="M19.476 1.79592H55.0005V2.73018H19.476V1.79592ZM60.6278 1.91352V13.6044H63.429V10.6775H66.8301V13.6044H69.7312V11.4006C69.7312 10.918 69.5595 10.498 69.2143 10.1388C68.9365 9.84737 68.6201 9.66221 68.2645 9.5837C68.5971 9.53913 68.909 9.38829 69.1984 9.12957C69.5537 8.80453 69.7312 8.41831 69.7312 7.96895V5.93368H66.8301V8.35553H63.429V1.91352H60.6278ZM71.3316 5.93368V8.05348H77.8345V11.4851H73.733V10.7783H77.1344V8.75961H73.4166C72.5717 8.75961 71.9463 8.97571 71.5405 9.40756C71.1349 9.83941 70.9323 10.4193 70.9323 11.1491C70.9323 11.8885 71.1204 12.4717 71.4983 12.8979C71.9205 13.3688 72.5598 13.6046 73.4164 13.6046H80.6357V8.05348C80.6357 7.40288 80.4797 6.89817 80.1689 6.53971C79.8133 6.13598 79.2685 5.93368 78.5349 5.93368H71.3316ZM56.5928 5.93368H59.3936V13.6044H56.5928V5.93368ZM48.3729 5.83288V13.6044H51.1733V7.95197H52.5915V8.65864H55.3922V7.95197C55.3922 7.30208 55.2366 6.79737 54.9258 6.43856C54.5703 6.03448 54.0252 5.83288 53.2909 5.83288H48.3729ZM41.0525 3.78487V5.93368H40.3356V8.05348H41.0525V11.4851C41.0525 12.1354 41.2084 12.6406 41.5195 12.9989C41.8757 13.4026 42.4197 13.6046 43.1538 13.6046H47.2061V11.4851H43.8538V8.05348H47.2061V5.93368H43.8538V3.78487H41.0525ZM30.065 3.90264V13.6044H32.8662V10.6775H36.2676V13.6044H39.1684V11.4006C39.1684 10.918 38.9961 10.498 38.6515 10.1388C38.374 9.84737 38.0566 9.66221 37.7014 9.5837C38.0341 9.53913 38.3461 9.38829 38.6346 9.12957C38.9912 8.80453 39.1684 8.41831 39.1684 7.96895V5.93368H36.2676V8.35553H32.8662V3.90264H30.065ZM26.3796 8.75961H22.9949V10.7783H28.8983V8.05348C28.8983 7.40288 28.7423 6.89817 28.431 6.53971C28.076 6.13598 27.5303 5.93368 26.797 5.93368H21.578C20.855 5.93368 20.3249 6.12749 19.9857 6.5146C19.6467 6.90118 19.4774 7.41473 19.4774 8.05348V11.4851C19.4774 12.1354 19.6329 12.6406 19.9444 12.9989C20.3002 13.4026 20.8446 13.6046 21.578 13.6046H28.8983V11.4851H22.2786V8.05348H26.3796V8.75961ZM15.4253 1.79592H18.2264V13.6044H15.4253V1.79592ZM0.802734 6.03465H10.6068V9.2645H5.1044V10.2737H13.808V13.6044H0.802734V6.03465ZM0.802734 1.69495H13.808V5.02541H0.802734V1.69495Z" fill="#002868"/>
<path fill-rule="evenodd" clip-rule="evenodd" d="M57.9962 0.35376C59.0415 0.35376 59.8888 1.20861 59.8888 2.26312C59.8888 3.31763 59.0415 4.17267 57.9962 4.17267C56.9508 4.17267 56.1035 3.31781 56.1035 2.26312C56.1035 1.20844 56.9508 0.35376 57.9962 0.35376Z" fill="#CB0D00"/>
<path fill-rule="evenodd" clip-rule="evenodd" d="M82.1575 3.71716H82.5563C82.7465 3.71716 82.8766 3.68781 82.946 3.63086C83.0154 3.57392 83.0504 3.49788 83.0504 3.40274C83.0504 3.34226 83.0333 3.28797 83 3.23951C82.9654 3.19067 82.9171 3.1534 82.8613 3.13252C82.8014 3.1083 82.6918 3.09715 82.5307 3.09715H82.1575V3.71716ZM81.8289 4.87265V2.8188H82.5281C82.7679 2.8188 82.9407 2.83702 83.0478 2.87486C83.1549 2.91271 83.2396 2.97938 83.3037 3.07346C83.367 3.1686 83.3987 3.26869 83.3987 3.37497C83.3987 3.52529 83.3456 3.65562 83.2396 3.76703C83.1335 3.87844 82.9923 3.94069 82.8168 3.95466C82.8887 3.98472 82.9469 4.02098 82.9896 4.06342C83.0718 4.14459 83.1719 4.28023 83.2909 4.47104L83.5391 4.87265H83.1377L82.9572 4.54867C82.815 4.29473 82.7013 4.13504 82.614 4.07102C82.554 4.02363 82.4657 4.00029 82.3502 4.00029H82.1575V4.87247H81.8289V4.87265ZM82.6592 2.22391C82.393 2.22391 82.1344 2.29305 81.8827 2.43028C81.6337 2.56521 81.4286 2.76975 81.292 3.01934C81.1498 3.27506 81.0789 3.54103 81.0789 3.81832C81.0789 4.09295 81.149 4.35627 81.2885 4.60862C81.4244 4.85722 81.6275 5.06175 81.8741 5.19839C82.1249 5.33916 82.3859 5.41007 82.6592 5.41007C82.9314 5.41007 83.1933 5.33933 83.4441 5.19839C83.6905 5.06193 83.893 4.85731 84.028 4.60862C84.1667 4.35645 84.2361 4.09295 84.2361 3.81832C84.2361 3.54103 84.1659 3.27506 84.0247 3.01934C83.8885 2.76941 83.6833 2.56476 83.434 2.43028C83.1814 2.29288 82.9228 2.22391 82.6592 2.22391ZM82.6592 1.90771C82.9768 1.90771 83.2866 1.98977 83.5896 2.15388C83.8885 2.31486 84.1343 2.56041 84.2967 2.86036C84.4653 3.16612 84.55 3.48568 84.55 3.81814C84.55 4.14707 84.4669 4.46326 84.3 4.76637C84.1391 5.06495 83.8963 5.31051 83.6008 5.47373C83.3002 5.64226 82.987 5.72591 82.6592 5.72591C82.3313 5.72591 82.0171 5.64226 81.7176 5.47373C81.4215 5.31064 81.1781 5.0651 81.0165 4.76637C80.8487 4.46326 80.7656 4.14707 80.7656 3.81814C80.7656 3.48568 80.8503 3.16612 81.0198 2.86036C81.183 2.56035 81.4293 2.31484 81.7286 2.15388C82.0308 1.98977 82.3416 1.90771 82.6592 1.90771Z" fill="#002868"/>
</g>
<defs>
<clipPath id="clip0">
<rect width="84.0992" height="13.6043" fill="white" transform="translate(0.802734)"/>
</clipPath>
</defs>
</svg>
