<svg width="113" height="35" viewBox="0 0 113 35" fill="none" xmlns="http://www.w3.org/2000/svg">
<path d="M23.1934 31.1685C23.6123 31.1685 23.9784 31.0415 24.2915 30.7876C24.6047 30.5337 24.7782 30.2163 24.812 29.8354H25.9229C25.9017 30.229 25.7663 30.6035 25.5166 30.959C25.2669 31.3145 24.9326 31.598 24.5137 31.8096C24.099 32.0212 23.6589 32.127 23.1934 32.127C22.2581 32.127 21.5133 31.8159 20.959 31.1938C20.4089 30.5675 20.1338 29.7127 20.1338 28.6294V28.4326C20.1338 27.764 20.2565 27.1694 20.502 26.6489C20.7474 26.1284 21.0986 25.7243 21.5557 25.4365C22.0169 25.1488 22.5607 25.0049 23.187 25.0049C23.9572 25.0049 24.5962 25.2355 25.104 25.6968C25.616 26.158 25.889 26.7568 25.9229 27.4932H24.812C24.7782 27.0488 24.6089 26.6849 24.3042 26.4014C24.0037 26.1136 23.6313 25.9697 23.187 25.9697C22.5903 25.9697 22.127 26.1855 21.7969 26.6172C21.471 27.0446 21.3081 27.6646 21.3081 28.4771V28.6992C21.3081 29.4906 21.471 30.0999 21.7969 30.5273C22.1227 30.9548 22.5882 31.1685 23.1934 31.1685ZM31.4834 32C31.4157 31.8646 31.3607 31.6234 31.3184 31.2764C30.7725 31.8434 30.1208 32.127 29.3633 32.127C28.6862 32.127 28.1297 31.9365 27.6938 31.5557C27.2622 31.1706 27.0464 30.6839 27.0464 30.0957C27.0464 29.3805 27.3172 28.8262 27.8589 28.4326C28.4048 28.0348 29.1707 27.8359 30.1567 27.8359H31.2993V27.2964C31.2993 26.8859 31.1766 26.5601 30.9312 26.3188C30.6857 26.0734 30.3239 25.9507 29.8457 25.9507C29.4268 25.9507 29.0755 26.0565 28.792 26.2681C28.5085 26.4797 28.3667 26.7357 28.3667 27.0361H27.186C27.186 26.6934 27.3066 26.3633 27.5479 26.0459C27.7933 25.7243 28.1234 25.4704 28.5381 25.2842C28.957 25.098 29.4162 25.0049 29.9155 25.0049C30.7069 25.0049 31.3268 25.2038 31.7754 25.6016C32.224 25.9951 32.4567 26.5389 32.4736 27.2329V30.394C32.4736 31.0246 32.554 31.526 32.7148 31.8984V32H31.4834ZM29.5347 31.105C29.9028 31.105 30.252 31.0098 30.582 30.8193C30.9121 30.6289 31.1512 30.3813 31.2993 30.0767V28.6675H30.3789C28.9401 28.6675 28.2207 29.0885 28.2207 29.9307C28.2207 30.2988 28.3434 30.5866 28.5889 30.7939C28.8343 31.0013 29.1496 31.105 29.5347 31.105ZM38.269 30.4448L40.605 25.1318H42.0713V32H40.897V27.0044L38.6753 32H37.8628L35.5967 26.8965V32H34.4224V25.1318H35.9458L38.269 30.4448ZM43.6519 28.5024C43.6519 27.8296 43.783 27.2244 44.0454 26.687C44.312 26.1496 44.6802 25.7349 45.1499 25.4429C45.6239 25.1509 46.1634 25.0049 46.7686 25.0049C47.7038 25.0049 48.4591 25.3286 49.0347 25.9761C49.6144 26.6235 49.9043 27.4847 49.9043 28.5596V28.6421C49.9043 29.3107 49.7752 29.9116 49.5171 30.4448C49.2632 30.9738 48.8971 31.3864 48.4189 31.6826C47.945 31.9788 47.3991 32.127 46.7812 32.127C45.8503 32.127 45.0949 31.8032 44.5151 31.1558C43.9396 30.5083 43.6519 29.6514 43.6519 28.585V28.5024ZM44.8325 28.6421C44.8325 29.4038 45.0081 30.0153 45.3594 30.4766C45.7148 30.9378 46.1888 31.1685 46.7812 31.1685C47.3779 31.1685 47.8519 30.9357 48.2031 30.4702C48.5544 30.0005 48.73 29.3446 48.73 28.5024C48.73 27.7492 48.5501 27.1398 48.1904 26.6743C47.835 26.2046 47.361 25.9697 46.7686 25.9697C46.1888 25.9697 45.7212 26.2004 45.3657 26.6616C45.0103 27.1229 44.8325 27.783 44.8325 28.6421ZM51.4849 32V25.1318H54.1636C55.0776 25.1318 55.778 25.2926 56.2646 25.6143C56.7555 25.9316 57.001 26.3993 57.001 27.0171C57.001 27.3345 56.9058 27.6222 56.7153 27.8804C56.5249 28.1343 56.2435 28.3289 55.8711 28.4644C56.2858 28.5617 56.618 28.7521 56.8677 29.0356C57.1216 29.3192 57.2485 29.6577 57.2485 30.0513C57.2485 30.6818 57.0158 31.1642 56.5503 31.4985C56.089 31.8328 55.4352 32 54.5889 32H51.4849ZM52.6592 28.9849V31.0542H54.6016C55.0924 31.0542 55.4585 30.9632 55.6997 30.7812C55.9451 30.5993 56.0679 30.3433 56.0679 30.0132C56.0679 29.3276 55.5643 28.9849 54.5571 28.9849H52.6592ZM52.6592 28.0454H54.1763C55.2765 28.0454 55.8267 27.7238 55.8267 27.0806C55.8267 26.4373 55.3062 26.1051 54.2651 26.084H52.6592V28.0454ZM60.0859 27.4995H61.8696C62.6483 27.508 63.264 27.7111 63.7168 28.1089C64.1696 28.5067 64.396 29.0462 64.396 29.7275C64.396 30.4131 64.1632 30.9632 63.6978 31.3779C63.2323 31.7926 62.606 32 61.8188 32H58.9116V25.1318H60.0859V27.4995ZM66.8462 32H65.6655V25.1318H66.8462V32ZM60.0859 28.458V31.0415H61.8315C62.2716 31.0415 62.6123 30.9294 62.8535 30.7051C63.0947 30.4766 63.2153 30.1655 63.2153 29.772C63.2153 29.3911 63.0968 29.0801 62.8599 28.8389C62.6271 28.5934 62.2992 28.4665 61.876 28.458H60.0859ZM69.0044 32V25.1318H71.6831C72.5972 25.1318 73.2975 25.2926 73.7842 25.6143C74.2751 25.9316 74.5205 26.3993 74.5205 27.0171C74.5205 27.3345 74.4253 27.6222 74.2349 27.8804C74.0444 28.1343 73.763 28.3289 73.3906 28.4644C73.8053 28.5617 74.1375 28.7521 74.3872 29.0356C74.6411 29.3192 74.7681 29.6577 74.7681 30.0513C74.7681 30.6818 74.5353 31.1642 74.0698 31.4985C73.6086 31.8328 72.9548 32 72.1084 32H69.0044ZM70.1787 28.9849V31.0542H72.1211C72.612 31.0542 72.978 30.9632 73.2192 30.7812C73.4647 30.5993 73.5874 30.3433 73.5874 30.0132C73.5874 29.3276 73.0838 28.9849 72.0767 28.9849H70.1787ZM70.1787 28.0454H71.6958C72.7961 28.0454 73.3462 27.7238 73.3462 27.0806C73.3462 26.4373 72.8257 26.1051 71.7847 26.084H70.1787V28.0454ZM76.0122 28.5024C76.0122 27.8296 76.1434 27.2244 76.4058 26.687C76.6724 26.1496 77.0405 25.7349 77.5103 25.4429C77.9842 25.1509 78.5238 25.0049 79.1289 25.0049C80.0641 25.0049 80.8195 25.3286 81.395 25.9761C81.9748 26.6235 82.2646 27.4847 82.2646 28.5596V28.6421C82.2646 29.3107 82.1356 29.9116 81.8774 30.4448C81.6235 30.9738 81.2575 31.3864 80.7793 31.6826C80.3053 31.9788 79.7594 32.127 79.1416 32.127C78.2106 32.127 77.4552 31.8032 76.8755 31.1558C76.3 30.5083 76.0122 29.6514 76.0122 28.585V28.5024ZM77.1929 28.6421C77.1929 29.4038 77.3685 30.0153 77.7197 30.4766C78.0752 30.9378 78.5492 31.1685 79.1416 31.1685C79.7383 31.1685 80.2122 30.9357 80.5635 30.4702C80.9147 30.0005 81.0903 29.3446 81.0903 28.5024C81.0903 27.7492 80.9105 27.1398 80.5508 26.6743C80.1953 26.2046 79.7214 25.9697 79.1289 25.9697C78.5492 25.9697 78.0815 26.2004 77.7261 26.6616C77.3706 27.1229 77.1929 27.783 77.1929 28.6421ZM87.5142 27.0107C87.5142 26.6891 87.3914 26.4352 87.146 26.249C86.9006 26.0586 86.5641 25.9634 86.1367 25.9634C85.722 25.9634 85.375 26.0713 85.0957 26.2871C84.8206 26.5029 84.6831 26.7568 84.6831 27.0488H83.5151C83.5151 26.4521 83.7648 25.9634 84.2642 25.5825C84.7635 25.2017 85.3877 25.0112 86.1367 25.0112C86.9408 25.0112 87.5671 25.1847 88.0156 25.5317C88.4642 25.8745 88.6885 26.3654 88.6885 27.0044C88.6885 27.3133 88.5954 27.5968 88.4092 27.855C88.223 28.1131 87.9585 28.3184 87.6157 28.4707C88.4155 28.7415 88.8154 29.2747 88.8154 30.0703C88.8154 30.7008 88.5721 31.2002 88.0854 31.5684C87.5988 31.9365 86.9492 32.1206 86.1367 32.1206C85.3454 32.1206 84.6916 31.9281 84.1753 31.543C83.6632 31.1536 83.4072 30.6289 83.4072 29.9688H84.5752C84.5752 30.3031 84.7233 30.5908 85.0195 30.832C85.32 31.069 85.6924 31.1875 86.1367 31.1875C86.5853 31.1875 86.9471 31.0838 87.2222 30.8765C87.4972 30.6691 87.6348 30.4004 87.6348 30.0703C87.6348 29.6852 87.5184 29.4102 87.2856 29.2451C87.0571 29.0758 86.6995 28.9912 86.2129 28.9912H85.0386V28.001H86.3145C87.1143 27.9798 87.5142 27.6497 87.5142 27.0107Z" fill="#002868"/>
<g clip-path="url(#clip0)">
<path d="M25.3349 2.39775H72.7636V3.64508H25.3349V2.39775V2.39775ZM80.2766 2.55476V18.1632H84.0165V14.2555H88.5573V18.1632H92.4306V15.2209C92.4306 14.5766 92.2012 14.0158 91.7404 13.5363C91.3695 13.1472 90.9471 12.9 90.4723 12.7952C90.9165 12.7357 91.3328 12.5343 91.7191 12.1889C92.1935 11.7549 92.4306 11.2393 92.4306 10.6393V7.92206H88.5573V11.1555H84.0165V2.55476H80.2766ZM94.5672 7.92206V10.7522H103.249V15.3338H97.7733V14.3901H102.315V11.695H97.3509C96.2229 11.695 95.3879 11.9835 94.8462 12.56C94.3046 13.1366 94.0341 13.9108 94.0341 14.8852C94.0341 15.8723 94.2852 16.651 94.7898 17.22C95.3535 17.8487 96.207 18.1634 97.3507 18.1634H106.989V10.7522C106.989 9.88359 106.781 9.20975 106.366 8.73118C105.891 8.19216 105.164 7.92206 104.184 7.92206H94.5672V7.92206ZM74.8894 7.92206H78.6289V18.1632H74.8894V7.92206ZM63.9152 7.78748V18.1632H67.6539V10.6167H69.5474V11.5601H73.2866V10.6167C73.2866 9.74901 73.0788 9.07518 72.6639 8.59613C72.1893 8.05663 71.4615 7.78748 70.4811 7.78748H63.9152V7.78748ZM54.1417 5.05319V7.92206H53.1845V10.7522H54.1417V15.3338C54.1417 16.2019 54.3497 16.8764 54.7651 17.3548C55.2407 17.8938 55.9671 18.1634 56.9472 18.1634H62.3573V15.3338H57.8816V10.7522H62.3573V7.92206H57.8816V5.05319H54.1417V5.05319ZM39.4722 5.21043V18.1632H43.2121V14.2555H47.7534V18.1632H51.6262V15.2209C51.6262 14.5766 51.3961 14.0158 50.9361 13.5363C50.5656 13.1472 50.1418 12.9 49.6677 12.7952C50.1118 12.7357 50.5284 12.5343 50.9136 12.1889C51.3896 11.7549 51.6262 11.2393 51.6262 10.6393V7.92206H47.7534V11.1555H43.2121V5.21043H39.4722ZM34.5519 11.695H30.0329V14.3901H37.9146V10.7522C37.9146 9.88359 37.7063 9.20975 37.2907 8.73118C36.8168 8.19216 36.0883 7.92206 35.1091 7.92206H28.1413C27.176 7.92206 26.4683 8.18082 26.0155 8.69765C25.5629 9.21377 25.3368 9.89941 25.3368 10.7522V15.3338C25.3368 16.2019 25.5444 16.8764 25.9602 17.3548C26.4353 17.8938 27.1622 18.1634 28.1413 18.1634H37.9146V15.3338H29.0767V10.7522H34.5519V11.695V11.695ZM19.9269 2.39775H23.6666V18.1632H19.9269V2.39775ZM0.404297 8.05687H13.4936V12.369H6.14744V13.7165H17.7676V18.1632H0.404297V8.05687ZM0.404297 2.26294H17.7676V6.70944H0.404297V2.26294V2.26294Z" fill="#002868"/>
<path fill-rule="evenodd" clip-rule="evenodd" d="M76.7633 0.472168C78.1588 0.472168 79.29 1.61348 79.29 3.02136C79.29 4.42923 78.1588 5.57078 76.7633 5.57078C75.3676 5.57078 74.2363 4.42947 74.2363 3.02136C74.2363 1.61325 75.3676 0.472168 76.7633 0.472168Z" fill="#CB0D00"/>
<path fill-rule="evenodd" clip-rule="evenodd" d="M109.022 4.96266H109.555C109.809 4.96266 109.982 4.92347 110.075 4.84745C110.168 4.77142 110.215 4.6699 110.215 4.54288C110.215 4.46213 110.192 4.38965 110.147 4.32495C110.101 4.25975 110.036 4.20999 109.962 4.18211C109.882 4.14977 109.736 4.13489 109.521 4.13489H109.022V4.96266V4.96266ZM108.584 6.50535V3.76327H109.517C109.837 3.76327 110.068 3.78759 110.211 3.83811C110.354 3.88864 110.467 3.97765 110.553 4.10325C110.637 4.23028 110.68 4.36391 110.68 4.50581C110.68 4.70649 110.609 4.8805 110.467 5.02924C110.325 5.17799 110.137 5.2611 109.903 5.27975C109.999 5.31989 110.076 5.36829 110.133 5.42495C110.243 5.53332 110.377 5.71441 110.536 5.96916L110.867 6.50535H110.331L110.09 6.07281C109.9 5.73377 109.748 5.52057 109.632 5.4351C109.552 5.37183 109.434 5.34066 109.28 5.34066H109.022V6.50511H108.584V6.50535ZM109.692 2.96902C109.337 2.96902 108.992 3.06134 108.655 3.24455C108.323 3.4247 108.049 3.69777 107.867 4.03101C107.677 4.37241 107.582 4.72751 107.582 5.09771C107.582 5.46438 107.676 5.81593 107.862 6.15285C108.044 6.48475 108.315 6.75782 108.644 6.94025C108.979 7.12819 109.327 7.22286 109.692 7.22286C110.056 7.22286 110.405 7.12842 110.74 6.94025C111.069 6.75806 111.339 6.48488 111.52 6.15285C111.705 5.81617 111.797 5.46438 111.797 5.09771C111.797 4.72751 111.704 4.37241 111.515 4.03101C111.333 3.69732 111.059 3.4241 110.727 3.24455C110.389 3.0611 110.044 2.96902 109.692 2.96902ZM109.692 2.54688C110.116 2.54688 110.53 2.65643 110.934 2.87553C111.333 3.09045 111.662 3.41829 111.878 3.81875C112.104 4.22697 112.217 4.65361 112.217 5.09748C112.217 5.53663 112.106 5.95878 111.883 6.36345C111.668 6.7621 111.344 7.08994 110.949 7.30786C110.548 7.53286 110.13 7.64454 109.692 7.64454C109.254 7.64454 108.835 7.53286 108.435 7.30786C108.04 7.09011 107.715 6.76229 107.499 6.36345C107.275 5.95878 107.164 5.53663 107.164 5.09748C107.164 4.65361 107.277 4.22697 107.503 3.81875C107.721 3.4182 108.05 3.09042 108.45 2.87553C108.853 2.65643 109.268 2.54688 109.692 2.54688V2.54688Z" fill="#002868"/>
</g>
<defs>
<clipPath id="clip0">
<rect width="112.281" height="18.1631" fill="white" transform="translate(0.404297)"/>
</clipPath>
</defs>
</svg>
