<svg width="26" height="26" viewBox="0 0 26 26" fill="none" xmlns="http://www.w3.org/2000/svg">
<rect width="26" height="26" rx="5" fill="#325F8A"/>
<path d="M12.5 6C8.35787 6 5 9.35787 5 13.5C5 17.6421 8.35787 21 12.5 21C16.6421 21 20 17.6421 20 13.5C19.9953 9.35981 16.6402 6.00469 12.5 6ZM12.5 20.5C8.634 20.5 5.5 17.366 5.5 13.5C5.5 9.634 8.634 6.5 12.5 6.5C16.366 6.5 19.5 9.634 19.5 13.5C19.4956 17.3642 16.3642 20.4956 12.5 20.5Z" fill="white"/>
<path d="M12.5 7.25C9.04822 7.25 6.25 10.0482 6.25 13.5C6.25 16.9518 9.04822 19.75 12.5 19.75C15.9518 19.75 18.75 16.9518 18.75 13.5C18.7462 10.0498 15.9502 7.25384 12.5 7.25ZM12.5 19.25C9.32437 19.25 6.75 16.6756 6.75 13.5C6.75 10.3244 9.32437 7.75 12.5 7.75C15.6756 7.75 18.25 10.3244 18.25 13.5C18.2464 16.6742 15.6742 19.2464 12.5 19.25Z" fill="white"/>
<path d="M12.75 8.5H12.25V9H12.75V8.5Z" fill="white"/>
<path d="M12.75 18H12.25V18.5H12.75V18Z" fill="white"/>
<path d="M10.2159 9.04524L9.7832 9.29517L10.0331 9.7279L10.4659 9.47797L10.2159 9.04524Z" fill="white"/>
<path d="M14.964 17.2708L14.5312 17.5208L14.7812 17.9535L15.2139 17.7036L14.964 17.2708Z" fill="white"/>
<path d="M8.29492 10.7836L8.04492 11.2166L8.47792 11.4666L8.72793 11.0336L8.29492 10.7836Z" fill="white"/>
<path d="M16.5215 15.5343L16.2715 15.9673L16.7045 16.2173L16.9545 15.7843L16.5215 15.5343Z" fill="white"/>
<path d="M8 13.25H7.5V13.75H8V13.25Z" fill="white"/>
<path d="M17.5 13.25H17V13.75H17.5V13.25Z" fill="white"/>
<path d="M8.47797 15.5337L8.04492 15.7837L8.29487 16.2167L8.72792 15.9668L8.47797 15.5337Z" fill="white"/>
<path d="M16.7045 10.7837L16.2715 11.0337L16.5215 11.4667L16.9545 11.2167L16.7045 10.7837Z" fill="white"/>
<path d="M10.0322 17.2718L9.78223 17.7046L10.215 17.9545L10.4649 17.5218L10.0322 17.2718Z" fill="white"/>
<path d="M14.7831 9.04554L14.5332 9.47827L14.9659 9.7282L15.2158 9.29546L14.7831 9.04554Z" fill="white"/>
<path d="M12.2498 9.5V13.3585L9.87109 14.7858L10.1286 15.2142L12.6286 13.7143C12.7038 13.6691 12.7498 13.5877 12.7498 13.5V9.5H12.2498Z" fill="white"/>
</svg>
