<svg width="16" height="16" viewBox="0 0 16 16" fill="none" xmlns="http://www.w3.org/2000/svg">
<path d="M13.2264 3.38249C11.9539 2.11003 10.2992 1.35897 8.52115 1.23594L9.4199 0.337156L9.08275 0L7.579 1.50375L9.08275 3.00749L9.4199 2.67034L8.45972 1.71015C12.0587 1.94756 14.9144 4.95074 14.9144 8.60883C14.9144 12.4214 11.8126 15.5231 8.00006 15.5231C4.18751 15.5231 1.08576 12.4214 1.08576 8.60883C1.08576 8.45548 1.09085 8.30042 1.10085 8.14805L0.625012 8.11677C0.614324 8.27955 0.608887 8.44511 0.608887 8.60883C0.608887 10.5831 1.3777 12.4392 2.77373 13.8352C4.16975 15.2312 6.02581 16 8.00006 16C9.97431 16 11.8304 15.2312 13.2264 13.8352C14.6224 12.4391 15.3912 10.5831 15.3912 8.60883C15.3912 6.63458 14.6224 4.77846 13.2264 3.38249Z" fill="#333333"/>
<path d="M1.89937 4.435C1.80677 4.57009 1.71765 4.70984 1.63452 4.8504L2.04493 5.09321C2.12268 4.96175 2.20609 4.831 2.29271 4.70456L1.89937 4.435Z" fill="#333333"/>
<path d="M2.50866 3.6615C2.39916 3.78297 2.29232 3.90969 2.19116 4.0381L2.56572 4.33319C2.66044 4.21304 2.76038 4.09447 2.86288 3.98078L2.50866 3.6615Z" fill="#333333"/>
<path d="M0.754771 7.14032C0.722428 7.3006 0.695146 7.46416 0.673584 7.62644L1.14627 7.68922C1.16646 7.53741 1.19199 7.38444 1.22221 7.23457L0.754771 7.14032Z" fill="#333333"/>
<path d="M3.21481 2.97552C3.09028 3.0814 2.96769 3.19284 2.85034 3.30681L3.18262 3.64884C3.29243 3.54218 3.40715 3.4379 3.52365 3.33887L3.21481 2.97552Z" fill="#333333"/>
<path d="M1.39768 5.28259C1.32387 5.42884 1.25415 5.57925 1.19043 5.72972L1.62955 5.91562C1.68915 5.77494 1.75437 5.63422 1.82337 5.49747L1.39768 5.28259Z" fill="#333333"/>
<path d="M1.01394 6.18976C0.960408 6.34426 0.911439 6.50273 0.868408 6.66066L1.32847 6.78604C1.36875 6.63838 1.41453 6.49026 1.46453 6.34579L1.01394 6.18976Z" fill="#333333"/>
<path d="M8.03315 3.36346C5.15003 3.36346 2.80444 5.70905 2.80444 8.59217C2.80444 11.4753 5.15003 13.8209 8.03315 13.8209C10.9163 13.8209 13.2619 11.4753 13.2619 8.5922C13.2619 5.70908 10.9163 3.36346 8.03315 3.36346ZM8.03315 13.344C5.413 13.344 3.28129 11.2124 3.28129 8.59217C3.28129 5.97199 5.413 3.84031 8.03315 3.84031C10.6533 3.84031 12.785 5.97199 12.785 8.59217C12.785 11.2124 10.6533 13.344 8.03315 13.344Z" fill="#333333"/>
<path d="M8.23858 4.39655H7.76172V4.87339H8.23858V4.39655Z" fill="#333333"/>
<path d="M8.23858 12.2805H7.76172V12.7573H8.23858V12.2805Z" fill="#333333"/>
<path d="M4.29642 8.3385H3.81958V8.81534H4.29642V8.3385Z" fill="#333333"/>
<path d="M12.1805 8.3385H11.7036V8.81534H12.1805V8.3385Z" fill="#333333"/>
<path d="M8.23832 8.39879V5.76361H7.76147V8.59632L9.24594 10.0808L9.58313 9.7436L8.23832 8.39879Z" fill="#333333"/>
</svg>
