<svg width="81" height="81" viewBox="0 0 81 81" fill="none" xmlns="http://www.w3.org/2000/svg">
<rect x="0.00488281" y="0.410645" width="80" height="80" rx="5" fill="#325F8A"/>
<g clip-path="url(#clip0)">
<path d="M43.0222 17.1702L18.8948 15.2638C18.1083 15.2022 17.4262 15.9068 17.3735 16.8356L17.1847 20.1694H13.978C13.19 20.1694 12.5488 20.9269 12.5488 21.8577V62.904C12.5488 63.8349 13.19 64.5923 13.978 64.5923H32.4459C32.606 64.5923 32.7646 64.515 32.8781 64.3815L35.666 61.1027C35.6944 61.1098 35.7233 61.1155 35.753 61.1178L40.5126 61.4939C41.2723 61.5531 41.983 60.8232 42.034 59.922L44.3527 18.9675C44.4049 18.0483 43.8002 17.2316 43.0222 17.1702V17.1702ZM33.0584 62.1175V57.0912C33.0584 56.9583 33.1501 56.85 33.2626 56.85H37.5011L33.0584 62.1175ZM40.8117 59.8255C40.7918 59.9712 40.7193 60.0461 40.5945 60.05L36.815 59.7514L39.408 56.7017C39.5235 56.566 39.5884 56.3814 39.5884 56.189V21.8578C39.5884 20.927 38.9473 20.1695 38.1593 20.1695H31.7899C30.998 20.1695 30.998 21.6166 31.7899 21.6166H38.1593C38.2719 21.6166 38.3634 21.7249 38.3634 21.8578V55.4029H33.2626C32.4746 55.4029 31.8335 56.1603 31.8335 57.0912V63.1452H13.978C13.8654 63.1452 13.7738 63.037 13.7738 62.904V21.8578C13.7738 21.7249 13.8654 21.6166 13.978 21.6166H28.5282C29.3201 21.6166 29.3201 20.1695 28.5282 20.1695H18.4124L18.5957 16.9323C18.6156 16.7865 18.688 16.7117 18.813 16.7078L42.9403 18.6141C43.0637 18.6376 43.1271 18.7232 43.1304 18.8708L40.8117 59.8255Z" fill="white"/>
<path d="M34.421 38.0977H17.716C17.3777 38.0977 17.1035 38.4216 17.1035 38.8212C17.1035 39.2208 17.3777 39.5448 17.716 39.5448H34.421C34.7593 39.5448 35.0335 39.2208 35.0335 38.8212C35.0335 38.4216 34.7593 38.0977 34.421 38.0977Z" fill="white"/>
<path d="M34.421 43.1418H17.716C17.3777 43.1418 17.1035 43.4658 17.1035 43.8654C17.1035 44.265 17.3777 44.589 17.716 44.589H34.421C34.7593 44.589 35.0335 44.265 35.0335 43.8654C35.0335 43.4658 34.7593 43.1418 34.421 43.1418Z" fill="white"/>
<path d="M17.1035 33.7773C17.1035 34.1769 17.3777 34.5008 17.716 34.5008H34.421C34.7593 34.5008 35.0335 34.1769 35.0335 33.7773C35.0335 33.3777 34.7593 33.0537 34.421 33.0537H17.716C17.3777 33.0537 17.1035 33.3777 17.1035 33.7773Z" fill="white"/>
<path d="M20.0469 28.7331C20.0469 29.1327 20.3211 29.4566 20.6594 29.4566H31.479C31.8173 29.4566 32.0915 29.1327 32.0915 28.7331C32.0915 28.3335 31.8173 28.0095 31.479 28.0095H20.6594C20.3211 28.0095 20.0469 28.3335 20.0469 28.7331V28.7331Z" fill="white"/>
<path d="M28.4533 57.5603C27.3517 57.5638 26.2501 57.5666 25.1485 57.5686C24.7783 57.5693 24.4081 57.5699 24.0379 57.5701C23.367 57.5707 22.915 57.4116 22.7647 56.5399C22.6376 55.8028 21.755 55.9019 21.5835 56.5399C21.1596 58.116 20.4586 57.4985 20.066 56.4383C19.6742 55.3807 19.5738 54.1969 19.4027 53.0714C19.2769 52.2443 18.218 52.4761 18.1996 53.2638C18.1753 54.3009 18.0933 55.3216 17.8704 56.3276C17.6405 57.3654 17.296 58.3629 16.9539 59.3545C16.6558 60.219 17.8414 60.5909 18.1352 59.7393C18.4382 58.8606 18.7417 57.9771 18.9676 57.0656C19.3873 58.258 20.2558 59.6067 21.4933 58.8119C21.7235 58.664 21.9385 58.4537 22.1272 58.2086C22.7707 59.0871 23.7286 59.0178 24.6249 59.0166C25.9011 59.0146 27.1773 59.0114 28.4535 59.0074C29.2415 59.005 29.2429 57.5579 28.4533 57.5603V57.5603Z" fill="white"/>
<path d="M53.8656 39.0039C53.5473 38.6298 53.1097 38.4379 52.6655 38.4237L52.2026 38.4264V37.3923C52.2026 36.7624 51.8859 36.0969 51.4322 35.7656V34.309C51.4322 31.3117 47.4819 31.3247 47.4819 34.3231V35.7798C47.0198 36.1173 46.7098 36.7196 46.7098 37.4056V38.4651C44.6709 38.6291 44.6651 42.2994 46.712 42.4429C46.7251 45.682 46.7245 48.868 46.7098 52.1614C46.7058 53.0696 47.9306 53.1228 47.9347 52.169C47.9494 48.8729 47.9501 45.684 47.9371 42.4422L50.976 42.4244C50.976 42.4244 50.9721 53.1183 50.9721 57.9358C50.9721 60.2838 47.9325 60.2994 47.9325 57.9114L47.9336 56.5919C47.9814 55.6581 46.7587 55.5709 46.7108 56.5047V57.7429C46.7108 58.8041 46.9886 59.7028 47.5265 60.335C47.5744 61.849 48.1143 63.3139 49.0266 64.3827C49.2884 64.6894 49.6507 64.5957 49.904 64.3651C50.8322 63.2667 51.3552 61.8188 51.3878 60.2733C51.7922 59.7976 52.197 59.3186 52.197 57.6785L52.1975 51.0844C53.2567 51.4403 54.3611 50.472 54.3611 49.1602V40.4127C54.3611 39.8799 54.1851 39.3796 53.8656 39.0039V39.0039ZM47.9347 38.4514V37.4055C47.9347 37.1914 48.0591 37.0119 48.2265 36.9586L50.6786 36.9442C50.7472 36.9642 50.8104 37.0025 50.8617 37.0629C50.9365 37.1508 50.9776 37.2678 50.9776 37.3923V38.4336L47.9347 38.4514ZM49.4595 33.4348C49.8355 33.4348 50.2072 33.8702 50.2072 34.309V35.4827L48.7068 35.4915V34.3231C48.7069 33.8356 49.0443 33.4372 49.4595 33.4348V33.4348ZM49.4586 62.7532C49.1739 62.2764 48.9679 61.7373 48.8529 61.1705C49.0425 61.219 49.2346 61.2443 49.4268 61.2443C49.6413 61.2443 49.8558 61.2128 50.067 61.1519C49.9547 61.7273 49.7491 62.2698 49.4586 62.7532ZM53.1361 49.1602C53.1361 49.8452 52.2009 49.8992 52.2009 49.1728C52.2009 49.1728 52.2019 42.3257 52.2026 41.698C52.203 41.2932 51.9182 40.9736 51.5854 40.9736L46.817 41.0016C46.2256 41.0016 46.2394 39.9084 46.823 39.9051L52.6715 39.8708C52.9543 39.8993 53.1092 40.08 53.136 40.4127V49.1602H53.1361Z" fill="white"/>
</g>
<defs>
<clipPath id="clip0">
<rect width="41.8129" height="49.3945" fill="white" transform="translate(12.5488 15.229)"/>
</clipPath>
</defs>
</svg>
