<svg width="14" height="14" viewBox="0 0 14 14" fill="none" xmlns="http://www.w3.org/2000/svg">
<g clip-path="url(#clip0)">
<path d="M7.00001 0C3.14026 0 0 3.14026 0 7.00001C0 10.8598 3.14026 14 7.00001 14C10.8598 14 14 10.8598 14 7.00001C14 3.14026 10.8597 0 7.00001 0ZM7.45534 11.1533C7.12278 11.2087 6.46104 11.3472 6.125 11.375C5.84056 11.3986 5.57215 11.2358 5.40852 11.002C5.24447 10.7683 5.20516 10.4693 5.30255 10.2009L6.62573 6.56252H5.25C5.24882 5.80438 5.81749 5.24693 6.54482 5.03299C6.89191 4.93086 7.53858 4.79111 7.87499 4.81253C8.07654 4.82535 8.42785 4.9518 8.59148 5.18553C8.75553 5.41923 8.79484 5.71831 8.69745 5.98662L7.37426 9.62504H8.74958C8.74984 10.3823 8.20238 11.0288 7.45534 11.1533ZM7.87499 4.37502C7.39173 4.37502 6.99999 3.98322 6.99999 3.50001C6.99999 3.01674 7.39173 2.625 7.87499 2.625C8.35826 2.625 8.75 3.01674 8.75 3.50001C8.75 3.98324 8.35828 4.37502 7.87499 4.37502Z" fill="#B3B3B3"/>
</g>
<defs>
<clipPath id="clip0">
<rect width="14" height="14" fill="white"/>
</clipPath>
</defs>
</svg>
