<svg width="26" height="26" viewBox="0 0 26 26" fill="none" xmlns="http://www.w3.org/2000/svg">
<rect width="26" height="26" rx="5" fill="#325F8A"/>
<path d="M14.2309 9.33837C14.2309 8.99589 14.1293 8.66111 13.939 8.37637C13.7487 8.09163 13.4782 7.86971 13.1618 7.73868C12.8453 7.60765 12.4972 7.57339 12.1613 7.64024C11.8254 7.70708 11.5168 7.87202 11.2747 8.11421C11.0325 8.3564 10.8676 8.66496 10.8008 9.00086C10.734 9.33677 10.7683 9.68494 10.8994 10.0013C11.0305 10.3178 11.2524 10.5882 11.5372 10.7785C11.822 10.9687 12.1568 11.0703 12.4993 11.0703C12.9584 11.0697 13.3986 10.8871 13.7232 10.5624C14.0478 10.2377 14.2304 9.79751 14.2309 9.33837ZM11.1777 9.33837C11.1778 9.07701 11.2553 8.82153 11.4006 8.60424C11.5458 8.38695 11.7522 8.2176 11.9937 8.11762C12.2352 8.01763 12.5009 7.99149 12.7572 8.04251C13.0135 8.09353 13.249 8.21941 13.4338 8.40424C13.6186 8.58906 13.7444 8.82454 13.7954 9.08088C13.8464 9.33722 13.8202 9.60292 13.7202 9.84439C13.6201 10.0858 13.4507 10.2922 13.2334 10.4374C13.0161 10.5826 12.7606 10.6601 12.4993 10.6601C12.1488 10.6597 11.8129 10.5203 11.5652 10.2725C11.3174 10.0247 11.1781 9.68878 11.1777 9.33837Z" fill="white"/>
<path d="M19.4518 19.1876L17.78 14.8048C17.7652 14.766 17.7389 14.7326 17.7047 14.7091C17.6705 14.6855 17.6299 14.6729 17.5884 14.6729H14.4243C14.4437 14.6413 14.4629 14.6108 14.4822 14.5791C15.6997 12.5635 16.3123 10.8003 16.3035 9.3392C16.3037 8.33022 15.9031 7.36249 15.1897 6.64891C14.4764 5.93533 13.5088 5.53435 12.4998 5.53418C11.4908 5.53401 10.5231 5.93466 9.80953 6.648C9.09595 7.36134 8.69497 8.32893 8.6948 9.33791C8.68601 10.8003 9.29867 12.5637 10.5161 14.5791C10.5355 14.6111 10.5547 14.6417 10.574 14.6729H7.40995C7.36841 14.6729 7.32786 14.6855 7.29365 14.7091C7.25943 14.7326 7.23318 14.766 7.21835 14.8048L5.54679 19.1876C5.53488 19.2187 5.53071 19.2522 5.53464 19.2852C5.53857 19.3182 5.55048 19.3498 5.56934 19.3772C5.58821 19.4046 5.61346 19.427 5.64291 19.4424C5.67236 19.4579 5.70513 19.4659 5.73839 19.4658H19.2602C19.2934 19.4659 19.3262 19.4579 19.3557 19.4424C19.3851 19.427 19.4104 19.4046 19.4292 19.3772C19.4481 19.3498 19.46 19.3182 19.4639 19.2852C19.4679 19.2522 19.4637 19.2187 19.4518 19.1876ZM9.10507 9.33826C9.10515 8.89253 9.19302 8.45117 9.36367 8.0394C9.53431 7.62762 9.78439 7.25349 10.0996 6.93836C10.4149 6.62323 10.7891 6.37328 11.2009 6.20277C11.6128 6.03227 12.0541 5.94455 12.4999 5.94463C12.9456 5.94471 13.387 6.03258 13.7987 6.20322C14.2105 6.37387 14.5847 6.62395 14.8998 6.93919C15.2149 7.25442 15.4649 7.62864 15.6354 8.04048C15.8059 8.45231 15.8936 8.8937 15.8935 9.33943C15.9111 12.2525 13.1876 15.8453 12.4993 16.7069C11.8109 15.8457 9.08738 12.2538 9.10507 9.33826ZM12.3431 17.1639C12.3623 17.1866 12.3863 17.2047 12.4132 17.2172C12.4402 17.2297 12.4696 17.2361 12.4993 17.2361C12.529 17.2361 12.5584 17.2297 12.5853 17.2172C12.6123 17.2047 12.6362 17.1866 12.6555 17.1639C13.2 16.5006 13.7048 15.8057 14.1672 15.0828H17.4469L17.7094 15.7713L11.3003 18.0507L9.01589 15.0824H10.8311C11.2936 15.8055 11.7985 16.5005 12.3431 17.1639ZM11.2932 18.4881H11.2944L15.1178 17.1288L16.6009 19.0557H9.69851L11.2932 18.4881ZM7.5514 15.0824H8.49827L10.8938 18.1952L8.47472 19.0556H6.03605L7.5514 15.0824ZM17.1189 19.0557L15.5241 16.9836L17.8562 16.1542L18.9628 19.0557H17.1189Z" fill="white"/>
</svg>
