<svg width="26" height="26" viewBox="0 0 26 26" fill="none" xmlns="http://www.w3.org/2000/svg">
<rect width="26" height="26" rx="5" fill="#325F8A"/>
<g clip-path="url(#clip0)">
<path d="M19.997 11.7345C19.9954 11.7173 19.992 11.7003 19.9867 11.6838C19.9833 11.6691 19.9785 11.6547 19.9725 11.6408C19.9655 11.6272 19.9571 11.6144 19.9475 11.6025C19.9379 11.5884 19.9267 11.5754 19.9142 11.5638C19.9102 11.5603 19.9085 11.5555 19.9043 11.552L17.4999 9.68467V7.74934C17.4999 7.33512 17.1641 6.9993 16.7498 6.9993H14.0404L12.9556 6.15701C12.6876 5.94799 12.3118 5.94799 12.0438 6.15701L10.9588 6.9993H8.24936C7.83514 6.9993 7.49933 7.33509 7.49933 7.74934V9.6847L5.09572 11.552C5.09147 11.5556 5.08971 11.5603 5.08573 11.5638C5.07328 11.5754 5.06211 11.5885 5.05247 11.6025C5.04286 11.6144 5.03448 11.6272 5.02748 11.6408C5.02142 11.6547 5.01667 11.6691 5.01324 11.6838C5.00803 11.7001 5.0046 11.7168 5.00299 11.7338C5.00299 11.7391 5 11.7436 5 11.7488V20.25C5.00035 20.409 5.0518 20.5637 5.14676 20.6912C5.14825 20.6935 5.14851 20.6962 5.15024 20.6982C5.152 20.7002 5.15575 20.7025 5.15824 20.7052C5.2987 20.89 5.51715 20.999 5.74928 21H19.25C19.483 20.9993 19.7024 20.8898 19.843 20.704C19.845 20.7015 19.848 20.7007 19.8497 20.6983C19.8515 20.6958 19.8517 20.6935 19.8532 20.6912C19.9482 20.5637 19.9996 20.409 20 20.25V11.7495C20 11.7443 19.9972 11.7398 19.997 11.7345ZM12.3496 6.55151C12.4369 6.48213 12.5605 6.48213 12.6478 6.55151L13.2246 6.99927H11.7745L12.3496 6.55151ZM5.81227 20.5L12.3496 15.422C12.437 15.3527 12.5605 15.3527 12.6479 15.422L19.1869 20.5H5.81227ZM19.5 20.1102L12.9556 15.0274C12.6876 14.8186 12.3119 14.8186 12.0438 15.0274L5.49924 20.1102V12.1303L9.59621 15.3117C9.70538 15.3964 9.86247 15.3765 9.94712 15.2673C10.0318 15.1582 10.0119 15.0011 9.90273 14.9164L5.74052 11.6845L7.49936 10.3177V12.2495C7.49936 12.3876 7.6113 12.4995 7.74936 12.4995C7.88744 12.4995 7.99936 12.3876 7.99936 12.2495V7.74931C7.99936 7.61123 8.11128 7.49931 8.24936 7.49931H16.7498C16.8879 7.49931 16.9998 7.61123 16.9998 7.74931V12.2495C16.9998 12.3876 17.1117 12.4995 17.2498 12.4995C17.3879 12.4995 17.4998 12.3876 17.4998 12.2495V10.3177L19.2586 11.6845L15.0892 14.9222C15.0175 14.9765 14.9805 15.0653 14.9924 15.1545C15.0042 15.2437 15.0632 15.3196 15.1466 15.3533C15.2301 15.387 15.3252 15.3732 15.3957 15.3172L19.4999 12.1303V20.1102H19.5Z" fill="white"/>
<path d="M15.4993 11.9997V10.9997C15.4993 9.34272 14.1561 7.99951 12.4992 7.99951C10.8422 7.99951 9.49902 9.34272 9.49902 10.9997C9.49902 12.6566 10.8422 13.9998 12.4992 13.9998C12.6373 13.9998 12.7492 13.8879 12.7492 13.7498C12.7492 13.6117 12.6373 13.4998 12.4992 13.4998C11.1184 13.4998 9.99906 12.3805 9.99906 10.9997C9.99906 9.61892 11.1184 8.49958 12.4992 8.49958C13.8799 8.49958 14.9993 9.61892 14.9993 10.9997V11.9997C14.9993 12.2759 14.7754 12.4998 14.4992 12.4998C14.2231 12.4998 13.9992 12.2759 13.9992 11.9997V10.9997C13.9992 10.8616 13.8873 10.7497 13.7492 10.7497C13.6111 10.7497 13.4992 10.8616 13.4992 10.9997C13.4992 11.552 13.0515 11.9997 12.4992 11.9997C11.9469 11.9997 11.4991 11.552 11.4991 10.9997C11.4991 10.4474 11.9469 9.99965 12.4992 9.99965C12.6373 9.99965 12.7492 9.88773 12.7492 9.74965C12.7492 9.61157 12.6373 9.49965 12.4992 9.49965C11.8278 9.49815 11.2372 9.94293 11.0532 10.5886C10.8692 11.2343 11.1366 11.9236 11.7079 12.2762C12.2792 12.6289 13.0153 12.559 13.51 12.105C13.5644 12.6338 14.0239 13.0269 14.5547 12.9988C15.0855 12.9707 15.501 12.5312 15.4993 11.9997Z" fill="white"/>
</g>
<defs>
<clipPath id="clip0">
<rect width="15" height="15" fill="white" transform="translate(5 6)"/>
</clipPath>
</defs>
</svg>
