<svg width="147" height="61" viewBox="0 0 147 61" fill="none" xmlns="http://www.w3.org/2000/svg">
<path d="M42.0949 59.0282C42.095 59.0284 42.0951 59.0287 42.0951 59.029L42.0663 59.0358C42.0603 59.0589 42.0544 59.082 42.0485 59.1052C42.0528 59.1106 42.057 59.1161 42.0611 59.1217C42.1054 59.1819 42.133 59.2407 42.1496 59.2905L42.0949 59.0282ZM42.0949 59.0282C42.0907 59.0104 42.0865 58.9927 42.0822 58.975" fill="#002868" stroke="white" stroke-width="2"/>
<path d="M50.5739 41.587C50.5739 41.674 50.5718 41.7597 50.5698 41.846C50.4053 48.669 43.7927 51.6734 42.4008 57.552C42.3837 57.6226 42.3659 57.7048 42.3467 57.798C42.1575 58.7149 40.8438 58.7149 40.6539 57.798C40.6347 57.7048 40.6169 57.6226 40.6005 57.552C40.0782 55.3466 38.8214 53.5463 37.4459 51.7967C36.5448 50.6509 37.5448 48.9067 39.7228 45.9626C40.9803 46.4862 42.9284 45.0615 43.9516 44.0383C45.0852 42.9054 46.4108 40.6335 45.6481 39.3081C47.9925 37.0821 48.988 36.3189 49.5513 37.399C50.2045 38.6518 50.5739 40.0766 50.5739 41.587Z" fill="#002868"/>
<path d="M45.2174 34.4283L43.2519 37.2263C42.065 36.8631 39.9864 38.1968 39.0475 39.1356C38.4959 39.6873 37.6173 39.5443 37.5152 40.2612L34.543 35.7612C36.2076 33.7765 38.7056 32.5142 41.4989 32.5142C42.4549 32.5142 43.3767 32.6615 44.2415 32.9356C44.9234 33.1522 44.6164 34.0664 45.2174 34.4283Z" fill="#002868"/>
<path d="M37.7273 43.9224L35.4624 46.8295C35.0266 46.1695 33.6923 46.6259 33.3653 45.8988C32.8212 44.6872 32.4662 43.3611 32.4299 41.8458C32.4272 41.7602 32.4258 41.6738 32.4258 41.5875C32.4258 39.3698 33.2214 37.3372 34.5434 35.761L38.8013 39.4103C37.9172 40.5034 37.0866 42.717 37.7273 43.9224Z" fill="#002868"/>
<path d="M44.0661 43.9224L37.4453 51.7966C35.963 49.9127 34.3442 48.0877 33.3574 45.8803L38.7995 39.4082L38.8016 39.4096C37.6989 40.7713 37.7811 42.7731 39.0476 44.0389C40.4017 45.393 42.5968 45.393 43.9503 44.0389C43.9894 43.9998 44.0271 43.96 44.0633 43.9196L44.0661 43.9224Z" fill="#002868"/>
<path d="M44.0645 43.9191C44.0878 43.8937 44.1104 43.8684 44.133 43.843L44.0672 43.9219L44.0645 43.9191Z" fill="#002868"/>
<path d="M49.5493 37.3993L44.1312 43.8433C45.301 42.4809 45.2401 40.4263 43.9496 39.1359C42.5961 37.7817 40.4011 37.7817 39.0469 39.1359C38.9592 39.2236 38.8762 39.3154 38.8002 39.41L38.7988 39.4086L44.2409 32.9365C46.5442 33.6657 48.4494 35.2892 49.5493 37.3993Z" fill="#002868"/>
<path d="M41.4993 32C36.2129 32 31.9121 36.3008 31.9121 41.5872C31.9121 41.6787 31.9136 41.7697 31.9161 41.8585C32.0119 45.8411 34.1934 48.5598 36.303 51.1889C37.9526 53.2447 39.5107 55.1864 40.0991 57.6705C40.1148 57.737 40.1317 57.8146 40.1497 57.9018C40.2853 58.5587 40.8276 59 41.4992 59C42.1709 59 42.7132 58.5587 42.8487 57.902C42.8668 57.8146 42.8838 57.737 42.8995 57.6705C43.4878 55.1864 45.0459 53.2446 46.6955 51.1888C48.8051 48.5597 50.9866 45.8411 51.0823 41.8605C51.0849 41.7697 51.0864 41.6787 51.0864 41.5872C51.0864 36.3008 46.7856 32 41.4993 32V32ZM48.9284 37.3401L45.4768 41.4453C45.4416 40.4352 45.0326 39.4905 44.3142 38.7722C43.5623 38.0203 42.5626 37.6062 41.4993 37.6062C41.3155 37.6062 41.1339 37.6194 40.9549 37.6437L44.4082 33.5372C46.3254 34.2322 47.926 35.5935 48.9284 37.3401ZM39.4112 39.4991C39.969 38.9414 40.7105 38.6342 41.4993 38.6342C42.288 38.6342 43.0296 38.9414 43.5873 39.4991C44.1451 40.0569 44.4523 40.7984 44.4523 41.5872C44.4523 42.376 44.1451 43.1175 43.5873 43.6752C43.0296 44.233 42.288 44.5401 41.4993 44.5401C40.7105 44.5401 39.9689 44.233 39.4112 43.6752C38.8534 43.1175 38.5463 42.3759 38.5463 41.5872C38.5463 40.7984 38.8534 40.0569 39.4112 39.4991ZM41.4993 33.028C42.1266 33.028 42.7382 33.0964 43.3275 33.2252L38.7399 38.6807L35.2787 35.7144C36.8402 34.0613 39.0512 33.028 41.4993 33.028ZM32.9401 41.5872C32.9401 39.6846 33.5644 37.9252 34.6185 36.5025L38.0782 39.4675L33.5117 44.898C33.1776 43.9614 32.9707 42.9522 32.9438 41.8317C32.9415 41.7505 32.9401 41.669 32.9401 41.5872ZM33.9584 45.9641L37.5217 41.7266C37.5563 42.7377 37.9654 43.6832 38.6843 44.4022C39.4362 45.1541 40.4359 45.5682 41.4993 45.5682C41.6824 45.5682 41.8634 45.5551 42.0418 45.5308L37.4564 50.9845C37.3392 50.8377 37.2218 50.6914 37.1048 50.5455C35.9073 49.0531 34.7484 47.6076 33.9584 45.9641ZM50.0547 41.8337C49.9673 45.4689 47.9886 47.9348 45.8937 50.5455C44.2454 52.5997 42.5409 54.7238 41.8992 57.4335C41.8815 57.5083 41.8623 57.5956 41.842 57.694C41.7903 57.9449 41.5851 57.972 41.4992 57.972C41.4134 57.972 41.2082 57.9449 41.1564 57.694C41.1361 57.5957 41.1171 57.5083 41.0993 57.4335C40.5878 55.2738 39.4011 53.4862 38.1059 51.8094L49.4222 38.3501C49.8319 39.3493 50.0584 40.4421 50.0584 41.5871C50.0585 41.669 50.0571 41.7505 50.0547 41.8337Z" fill="#002868"/>
<circle cx="41.5" cy="41.5" r="4.5" fill="#DA3020"/>
<g filter="url(#filter0_d)">
<path d="M41.5 42L45.5 37H37.5L41.5 42Z" fill="white"/>
<path d="M4 0H142.5V37H4V0Z" fill="white"/>
</g>
<g clip-path="url(#clip0)">
<path d="M37.865 10.2721H92.7785V11.7142H37.865V10.2721ZM101.477 10.4536V28.5H105.807V23.9819H111.065V28.5H115.549V25.0981C115.549 24.3532 115.284 23.7048 114.75 23.1504C114.321 22.7005 113.832 22.4147 113.282 22.2935C113.796 22.2247 114.278 21.9919 114.725 21.5925C115.275 21.0908 115.549 20.4946 115.549 19.801V16.6592H111.065V20.3977H105.807V10.4536H101.477ZM118.023 16.6592V19.9314H128.075V25.2286H121.735V24.1375H126.993V21.0214H121.246C119.94 21.0214 118.973 21.355 118.346 22.0216C117.719 22.6883 117.406 23.5834 117.406 24.7099C117.406 25.8513 117.696 26.7515 118.281 27.4094C118.933 28.1364 119.922 28.5003 121.246 28.5003H132.405V19.9314C132.405 18.9272 132.164 18.1481 131.684 17.5947C131.134 16.9715 130.292 16.6592 129.158 16.6592H118.023ZM95.2398 16.6592H99.5694V28.5H95.2398V16.6592ZM82.5337 16.5036V28.5H86.8625V19.7748H89.0547V20.8656H93.3841V19.7748C93.3841 18.7716 93.1434 17.9925 92.663 17.4386C92.1135 16.8148 91.2709 16.5036 90.1359 16.5036H82.5337ZM71.2178 13.3423V16.6592H70.1096V19.9314H71.2178V25.2286C71.2178 26.2323 71.4587 27.0122 71.9397 27.5653C72.4902 28.1885 73.3313 28.5003 74.466 28.5003H80.7299V25.2286H75.548V19.9314H80.7299V16.6592H75.548V13.3423H71.2178ZM54.2333 13.5241V28.5H58.5635V23.9819H63.8213V28.5H68.3054V25.0981C68.3054 24.3532 68.039 23.7048 67.5063 23.1504C67.0774 22.7005 66.5867 22.4147 66.0377 22.2935C66.552 22.2247 67.0343 21.9919 67.4803 21.5925C68.0314 21.0908 68.3054 20.4946 68.3054 19.801V16.6592H63.8213V20.3977H58.5635V13.5241H54.2333ZM48.5365 21.0214H43.3044V24.1375H52.4299V19.9314C52.4299 18.9272 52.1887 18.1481 51.7075 17.5947C51.1588 16.9715 50.3154 16.6592 49.1817 16.6592H41.1143C39.9966 16.6592 39.1772 16.9584 38.6529 17.556C38.1289 18.1527 37.8672 18.9454 37.8672 19.9314V25.2286C37.8672 26.2323 38.1075 27.0122 38.589 27.5653C39.139 28.1885 39.9806 28.5003 41.1143 28.5003H52.4299V25.2286H42.1973V19.9314H48.5365V21.0214ZM31.6035 10.2721H35.9334V28.5H31.6035V10.2721ZM9 16.8151H24.155V21.8008H15.6495V23.3587H29.1034V28.5H9V16.8151ZM9 10.1162H29.1034V15.2572H9V10.1162Z" fill="#002868"/>
<path fill-rule="evenodd" clip-rule="evenodd" d="M97.4082 8.04614C99.0239 8.04614 100.334 9.36572 100.334 10.9935C100.334 12.6213 99.0239 13.9411 97.4082 13.9411C95.7922 13.9411 94.4824 12.6215 94.4824 10.9935C94.4824 9.36545 95.7922 8.04614 97.4082 8.04614Z" fill="#CB0D00"/>
<path fill-rule="evenodd" clip-rule="evenodd" d="M134.759 13.2379H135.375C135.669 13.2379 135.871 13.1926 135.978 13.1047C136.085 13.0168 136.139 12.8994 136.139 12.7526C136.139 12.6592 136.113 12.5754 136.061 12.5006C136.008 12.4252 135.933 12.3677 135.847 12.3355C135.754 12.2981 135.585 12.2809 135.336 12.2809H134.759V13.2379ZM134.251 15.0216V11.8512H135.332C135.703 11.8512 135.97 11.8793 136.135 11.9377C136.301 11.9962 136.432 12.0991 136.531 12.2443C136.629 12.3912 136.678 12.5457 136.678 12.7097C136.678 12.9418 136.596 13.1429 136.432 13.3149C136.268 13.4869 136.049 13.583 135.778 13.6046C135.889 13.651 135.979 13.7069 136.045 13.7724C136.172 13.8977 136.327 14.1071 136.511 14.4017L136.895 15.0216H136.274L135.995 14.5215C135.775 14.1295 135.6 13.883 135.465 13.7842C135.372 13.711 135.235 13.675 135.057 13.675H134.759V15.0213H134.251V15.0216ZM135.535 10.9329C135.123 10.9329 134.723 11.0396 134.334 11.2515C133.949 11.4598 133.632 11.7755 133.421 12.1608C133.201 12.5555 133.092 12.9661 133.092 13.3941C133.092 13.818 133.2 14.2245 133.416 14.614C133.626 14.9978 133.94 15.3135 134.321 15.5244C134.709 15.7417 135.112 15.8512 135.535 15.8512C135.955 15.8512 136.36 15.742 136.748 15.5244C137.129 15.3138 137.442 14.9979 137.65 14.614C137.865 14.2248 137.972 13.818 137.972 13.3941C137.972 12.9661 137.864 12.5555 137.645 12.1608C137.435 11.775 137.118 11.4591 136.732 11.2515C136.342 11.0394 135.942 10.9329 135.535 10.9329ZM135.535 10.4448C136.025 10.4448 136.504 10.5715 136.973 10.8248C137.435 11.0733 137.815 11.4523 138.066 11.9154C138.326 12.3873 138.457 12.8806 138.457 13.3938C138.457 13.9016 138.329 14.3896 138.071 14.8575C137.822 15.3184 137.447 15.6975 136.99 15.9494C136.525 16.2096 136.041 16.3387 135.535 16.3387C135.028 16.3387 134.542 16.2096 134.079 15.9494C133.621 15.6977 133.245 15.3187 132.995 14.8575C132.736 14.3896 132.607 13.9016 132.607 13.3938C132.607 12.8806 132.738 12.3873 133 11.9154C133.253 11.4522 133.633 11.0733 134.096 10.8248C134.563 10.5715 135.044 10.4448 135.535 10.4448Z" fill="#002868"/>
</g>
<defs>
<filter id="filter0_d" x="0" y="0" width="146.5" height="50" filterUnits="userSpaceOnUse" color-interpolation-filters="sRGB">
<feFlood flood-opacity="0" result="BackgroundImageFix"/>
<feColorMatrix in="SourceAlpha" type="matrix" values="0 0 0 0 0 0 0 0 0 0 0 0 0 0 0 0 0 0 127 0"/>
<feOffset dy="4"/>
<feGaussianBlur stdDeviation="2"/>
<feColorMatrix type="matrix" values="0 0 0 0 0 0 0 0 0 0 0 0 0 0 0 0 0 0 0.25 0"/>
<feBlend mode="normal" in2="BackgroundImageFix" result="effect1_dropShadow"/>
<feBlend mode="normal" in="SourceGraphic" in2="effect1_dropShadow" result="shape"/>
</filter>
<clipPath id="clip0">
<rect width="130" height="21" fill="white" transform="translate(9 7.5)"/>
</clipPath>
</defs>
</svg>
