<svg width="27" height="27" viewBox="0 0 27 27" fill="none" xmlns="http://www.w3.org/2000/svg">
<path d="M22.5739 9.58698C22.5739 9.67399 22.5718 9.75969 22.5698 9.84601C22.4053 16.669 15.7927 19.6734 14.4008 25.552C14.3837 25.6226 14.3659 25.7048 14.3467 25.798C14.1575 26.7149 12.8438 26.7149 12.6539 25.798C12.6347 25.7048 12.6169 25.6226 12.6005 25.552C12.0782 23.3466 10.8214 21.5463 9.44595 19.7967C8.54477 18.6509 9.54482 16.9067 11.7228 13.9626C12.9803 14.4862 14.9284 13.0615 15.9516 12.0383C17.0852 10.9054 18.4108 8.63349 17.6481 7.30806C19.9925 5.08215 20.988 4.31892 21.5513 5.39898C22.2045 6.65184 22.5739 8.07656 22.5739 9.58698Z" fill="#002868"/>
<path d="M17.2193 2.42826L15.2539 5.22629C14.0669 4.86306 11.9884 6.19682 11.0495 7.13565C10.4978 7.6873 9.61928 7.54434 9.51719 8.26116L6.54492 3.76117C8.20959 1.77652 10.7075 0.51416 13.5008 0.51416C14.4569 0.51416 15.3786 0.6615 16.2434 0.935613C16.9254 1.15219 16.6183 2.0664 17.2193 2.42826Z" fill="#002868"/>
<path d="M9.7283 11.9224L7.46341 14.8295C7.02756 14.1695 5.69323 14.6259 5.36633 13.8988C4.82221 12.6872 4.46721 11.3611 4.43087 9.84585C4.42813 9.76021 4.42676 9.67383 4.42676 9.5875C4.42676 7.36981 5.22241 5.33722 6.54436 3.76099L10.8022 7.41026C9.91815 8.50339 9.08753 10.717 9.7283 11.9224Z" fill="#002868"/>
<path d="M16.0671 11.9224L9.44626 19.7966C7.96395 17.9127 6.34522 16.0877 5.3584 13.8803L10.8005 7.4082L10.8025 7.40957C9.69986 8.77128 9.78207 10.7731 11.0485 12.0389C12.4027 13.393 14.5978 13.393 15.9513 12.0389C15.9903 11.9998 16.028 11.96 16.0643 11.9196L16.0671 11.9224Z" fill="#002868"/>
<path d="M16.0645 11.9191C16.0878 11.8937 16.1104 11.8684 16.133 11.843L16.0672 11.9219L16.0645 11.9191Z" fill="#002868"/>
<path d="M21.5513 5.39928L16.1332 11.8433C17.303 10.4809 17.242 8.42628 15.9516 7.13587C14.5981 5.7817 12.403 5.7817 11.0488 7.13587C10.9611 7.22357 10.8782 7.31543 10.8022 7.40998L10.8008 7.40861L16.2429 0.936523C18.5462 1.66568 20.4513 3.28916 21.5513 5.39928Z" fill="#002868"/>
<path d="M13.5002 0C8.21389 0 3.91309 4.3008 3.91309 9.58722C3.91309 9.67866 3.91462 9.76973 3.91709 9.85853C4.01291 13.8411 6.19438 16.5598 8.30401 19.1889C9.9536 21.2447 11.5117 23.1864 12.1 25.6705C12.1158 25.737 12.1327 25.8146 12.1507 25.9018C12.2862 26.5587 12.8286 27 13.5002 27C14.1719 27 14.7142 26.5587 14.8497 25.902C14.8678 25.8146 14.8847 25.737 14.9005 25.6705C15.4888 23.1864 17.0469 21.2446 18.6965 19.1888C20.8061 16.5597 22.9875 13.8411 23.0833 9.86054C23.0858 9.76973 23.0874 9.67866 23.0874 9.58722C23.0874 4.3008 18.7866 0 13.5002 0V0ZM20.9294 5.34009L17.4778 9.44531C17.4426 8.43523 17.0336 7.49055 16.3152 6.7722C15.5633 6.02026 14.5636 5.60619 13.5002 5.60619C13.3165 5.60619 13.1349 5.61938 12.9559 5.64374L16.4091 1.53721C18.3264 2.23219 19.927 3.59348 20.9294 5.34009ZM11.4122 7.49909C11.9699 6.94137 12.7115 6.6342 13.5002 6.6342C14.289 6.6342 15.0306 6.94137 15.5883 7.49909C16.1461 8.05686 16.4533 8.79841 16.4533 9.58716C16.4533 10.376 16.1461 11.1175 15.5883 11.6752C15.0305 12.233 14.289 12.5401 13.5002 12.5401C12.7115 12.5401 11.9699 12.233 11.4122 11.6752C10.8544 11.1175 10.5472 10.3759 10.5472 9.58716C10.5472 8.79841 10.8544 8.05686 11.4122 7.49909ZM13.5002 1.02795C14.1276 1.02795 14.7391 1.0964 15.3284 1.22518L10.7409 6.68071L7.27965 3.7144C8.84117 2.06133 11.0522 1.02795 13.5002 1.02795ZM4.94104 9.58722C4.94104 7.68461 5.56536 5.92518 6.61947 4.50246L10.0792 7.4675L5.51268 12.898C5.17861 11.9614 4.97168 10.9522 4.94473 9.83174C4.94246 9.75048 4.94104 9.66901 4.94104 9.58722ZM5.95939 13.9641L9.52265 9.72664C9.55725 10.7377 9.96641 11.6832 10.6853 12.4022C11.4372 13.1541 12.4369 13.5682 13.5002 13.5682C13.6833 13.5682 13.8644 13.5551 14.0428 13.5308L9.45742 18.9845C9.34019 18.8377 9.22281 18.6914 9.10573 18.5455C7.90824 17.0531 6.7494 15.6076 5.95939 13.9641ZM22.0557 9.83375C21.9682 13.4689 19.9895 15.9348 17.8947 18.5455C16.2464 20.5997 14.5419 22.7238 13.9002 25.4335C13.8825 25.5083 13.8633 25.5956 13.843 25.694C13.7912 25.9449 13.586 25.972 13.5002 25.972C13.4144 25.972 13.2092 25.9449 13.1574 25.694C13.1371 25.5957 13.118 25.5083 13.1003 25.4335C12.5888 23.2738 11.4021 21.4862 10.1069 19.8094L21.4232 6.35012C21.8329 7.34927 22.0594 8.44214 22.0594 9.58711C22.0595 9.66901 22.058 9.75048 22.0557 9.83375Z" fill="#002868"/>
<circle cx="13.5" cy="9.5" r="4.5" fill="#DA3020"/>
</svg>
