<svg width="16" height="16" viewBox="0 0 16 16" fill="none" xmlns="http://www.w3.org/2000/svg">
<path d="M10.7039 5.57501L8.20149 3.46411C8.08509 3.36589 7.9149 3.36589 7.79849 3.46411L5.29609 5.57498C5.19577 5.65957 5.15902 5.79786 5.20405 5.92114C5.24909 6.04439 5.36634 6.12636 5.49759 6.12636H5.81249V8.68886C5.81249 8.86142 5.9524 9.00136 6.12499 9.00136H9.87499C10.0476 9.00136 10.1875 8.86142 10.1875 8.68886V6.12636H10.5024C10.6336 6.12636 10.7509 6.04439 10.7959 5.92114C10.841 5.79789 10.8042 5.65961 10.7039 5.57501ZM8.31249 8.37636H7.68749V7.37636H8.31249V8.37636ZM9.56249 8.37636H8.93749V7.06386C8.93749 6.89129 8.79759 6.75136 8.62499 6.75136H7.37499C7.2024 6.75136 7.06249 6.89129 7.06249 7.06386V8.37636H6.43749V6.12636H9.56249V8.37636ZM6.35271 5.50136L7.99999 4.11179L9.64727 5.50136H6.35271Z" fill="#333333"/>
<path d="M7.99984 0C4.59837 0 1.83105 2.76731 1.83105 6.16875C1.83105 7.57947 2.31943 8.95778 3.20665 10.0518C3.20821 10.0538 3.20984 10.056 3.21143 10.058L4.20784 11.3352C4.31399 11.4712 4.5104 11.4955 4.64646 11.3893C4.78252 11.2832 4.80677 11.0868 4.70062 10.9507L3.71315 9.68503C3.70912 9.67934 3.7049 9.67381 3.70046 9.66838C2.89802 8.68381 2.45605 7.44094 2.45605 6.16875C2.45605 3.11191 4.94296 0.625 7.9998 0.625C11.0566 0.625 13.5436 3.11191 13.5436 6.16875C13.5436 7.45459 13.0933 8.70772 12.2758 9.69725C12.2652 9.71012 12.2557 9.72372 12.2474 9.73784L7.9999 15.1795L6.42412 13.1598C6.31799 13.0238 6.12162 12.9995 5.98549 13.1057C5.84943 13.2118 5.82518 13.4082 5.93134 13.5443L7.75343 15.8797C7.81265 15.9556 7.90352 16 7.99977 16C8.09602 16 8.1869 15.9557 8.24612 15.8798L12.7665 10.0886C12.7733 10.0798 12.7796 10.0708 12.7854 10.0616C13.6776 8.96562 14.1686 7.585 14.1686 6.16878C14.1686 2.76731 11.4013 0 7.99984 0Z" fill="#333333"/>
<path d="M5.76127 12.3101L5.73939 12.282C5.63326 12.1459 5.43689 12.1216 5.30079 12.2277C5.1647 12.3338 5.14036 12.5302 5.24648 12.6663L5.26836 12.6943C5.32998 12.7733 5.42201 12.8147 5.51501 12.8147C5.58217 12.8147 5.64986 12.7932 5.70695 12.7487C5.84305 12.6425 5.86739 12.4462 5.76127 12.3101Z" fill="#333333"/>
<path d="M11.4339 3.77161C10.9522 3.0828 10.2846 2.55983 9.50309 2.2592C9.34212 2.1973 9.16122 2.27755 9.09925 2.43864C9.03728 2.59973 9.11763 2.78055 9.27872 2.84251C10.6447 3.36801 11.5625 4.70473 11.5625 6.16873C11.5625 8.13308 9.96438 9.73123 8 9.73123C6.03562 9.73123 4.4375 8.13308 4.4375 6.16873C4.4375 4.63867 5.41075 3.28192 6.85928 2.7927C7.02278 2.73745 7.11059 2.56014 7.05534 2.39661C7.00013 2.23311 6.82281 2.14545 6.65928 2.20055C4.95653 2.77567 3.8125 4.37036 3.8125 6.16873C3.8125 8.47773 5.691 10.3562 8 10.3562C10.309 10.3562 12.1875 8.47773 12.1875 6.16873C12.1875 5.30555 11.9269 4.47664 11.4339 3.77161Z" fill="#333333"/>
<path d="M8.08484 1.98211L8.06953 1.98183C7.89703 1.97798 7.75509 2.11736 7.75272 2.28992C7.75028 2.46251 7.88822 2.60436 8.06081 2.60676L8.07178 2.60698C8.074 2.60701 8.07622 2.60705 8.07843 2.60705C8.24796 2.60705 8.38718 2.47139 8.39074 2.30108C8.39434 2.12855 8.25737 1.9857 8.08484 1.98211Z" fill="#333333"/>
</svg>
