<svg width="15" height="15" viewBox="0 0 15 15" fill="none" xmlns="http://www.w3.org/2000/svg">
<path d="M7.5001 14.419C11.3214 14.419 14.4191 11.3213 14.4191 7.49999C14.4191 3.67871 11.3214 0.580948 7.5001 0.580948C3.67882 0.580948 0.581055 3.67871 0.581055 7.49999C0.581055 11.3213 3.67882 14.419 7.5001 14.419Z" fill="#325F8A"/>
<path d="M7.5 15C3.36483 15 0 11.6358 0 7.5C0 3.36483 3.36483 0 7.5 0C11.6358 0 15 3.36483 15 7.5C15 11.6358 11.6358 15 7.5 15ZM7.5 1.16188C4.00503 1.16188 1.16188 4.00503 1.16188 7.5C1.16188 10.995 4.00503 13.8381 7.5 13.8381C10.995 13.8381 13.8381 10.9944 13.8381 7.5C13.8381 4.00503 10.995 1.16188 7.5 1.16188Z" fill="#325F8A"/>
<path d="M10.4051 8.02864H4.59561C4.27492 8.02864 4.01465 7.76837 4.01465 7.44769C4.01465 7.12701 4.27492 6.86674 4.59561 6.86674H10.4051C10.7263 6.86674 10.986 7.12701 10.986 7.44769C10.986 7.76837 10.7263 8.02864 10.4051 8.02864Z" fill="white"/>
</svg>
