<svg width="27" height="27" viewBox="0 0 27 27" fill="none" xmlns="http://www.w3.org/2000/svg">
<rect width="27" height="27" rx="5" fill="#325F8A"/>
<path d="M13 17.0625C12.8275 17.0625 12.6875 17.2025 12.6875 17.375C12.6875 17.5475 12.8275 17.6875 13 17.6875C13.1725 17.6875 13.3125 17.5475 13.3125 17.375C13.3125 17.2025 13.1725 17.0625 13 17.0625Z" fill="white"/>
<path d="M19.659 6.91781C18.89 6.60809 17.8902 6.4375 16.8438 6.4375C15.7973 6.4375 14.7975 6.60809 14.0285 6.91781C13.5741 7.10084 13.2271 7.32453 13 7.57553C12.7729 7.32453 12.4259 7.10087 11.9715 6.91784C11.2025 6.60809 10.2027 6.4375 9.15625 6.4375C8.10984 6.4375 7.11003 6.60809 6.34103 6.91781C5.47625 7.26612 5 7.76144 5 8.3125V15.8125C5 16.3636 5.47625 16.8589 6.34103 17.2072C7.05625 17.4952 7.97119 17.6628 8.9375 17.6848V17.6875C8.9375 18.7564 10.684 19.5625 13 19.5625C15.316 19.5625 17.0625 18.7564 17.0625 17.6875V17.6848C18.0288 17.6628 18.9438 17.4952 19.659 17.2072C20.5238 16.8589 21 16.3636 21 15.8125V8.3125C21 7.76144 20.5238 7.26612 19.659 6.91781ZM20.375 13.9375C20.375 14.2043 20.0112 14.5165 19.4255 14.7524C18.7916 15.0078 17.9405 15.1622 17.0625 15.1844V13.9375C17.0625 13.9366 17.0624 13.9357 17.0624 13.9348C18.0288 13.9128 18.9437 13.7453 19.659 13.4572C19.9397 13.3441 20.1792 13.2155 20.375 13.0746L20.375 13.9375ZM12.6875 10.1875C12.6875 10.4543 12.3237 10.7665 11.738 11.0024C11.0515 11.2789 10.1105 11.4375 9.15625 11.4375C8.202 11.4375 7.261 11.2789 6.57453 11.0024C5.98884 10.7665 5.625 10.4543 5.625 10.1875V9.32456C5.82084 9.4655 6.06031 9.59413 6.34103 9.70719C7.11003 10.0169 8.10984 10.1875 9.15625 10.1875C10.2027 10.1875 11.2025 10.0169 11.9715 9.70719C12.2522 9.59413 12.4917 9.4655 12.6875 9.32456V10.1875ZM6.34103 11.5822C7.11003 11.8919 8.10984 12.0625 9.15625 12.0625C10.2027 12.0625 11.2025 11.8919 11.9715 11.5822C12.2522 11.4691 12.4917 11.3405 12.6875 11.1996V12.068C11.8791 12.0954 11.1038 12.2281 10.4767 12.4489C9.84769 12.6705 9.39509 12.9659 9.14897 13.3124C8.19722 13.3116 7.25925 13.1532 6.57453 12.8774C5.98884 12.6415 5.625 12.3293 5.625 12.0625V11.1996C5.82084 11.3405 6.06031 11.4691 6.34103 11.5822ZM5.625 13.0746C5.82084 13.2155 6.06031 13.3441 6.34103 13.4572C7.05628 13.7453 7.97125 13.9128 8.93759 13.9348C8.93759 13.9357 8.93753 13.9366 8.93753 13.9375V15.1844C8.0595 15.1622 7.20847 15.0078 6.57456 14.7524C5.98884 14.5165 5.625 14.2043 5.625 13.9375V13.0746ZM9.59556 13.784C9.82716 13.245 11.1639 12.6875 13 12.6875C14.8361 12.6875 16.1728 13.245 16.4042 13.7833C16.4266 13.8359 16.4375 13.8863 16.4375 13.9375C16.4375 14.2122 16.0988 14.5174 15.5314 14.7538C14.8603 15.0335 13.9613 15.1875 13 15.1875C12.0387 15.1875 11.1397 15.0335 10.4686 14.7538C9.90122 14.5174 9.5625 14.2122 9.5625 13.9375C9.5625 13.8863 9.57341 13.8359 9.59556 13.784ZM20.375 12.0625C20.375 12.3293 20.0112 12.6415 19.4255 12.8774C18.7408 13.1532 17.8028 13.3116 16.8511 13.3124C16.6052 12.9661 16.1525 12.6705 15.5233 12.4489C14.8963 12.2281 14.1209 12.0954 13.3125 12.068V11.1996C13.5083 11.3405 13.7478 11.4691 14.0285 11.5822C14.7975 11.8919 15.7973 12.0625 16.8438 12.0625C17.8902 12.0625 18.89 11.8919 19.659 11.5822C19.9397 11.4691 20.1792 11.3405 20.375 11.1996V12.0625ZM20.375 10.1875C20.375 10.4543 20.0112 10.7665 19.4255 11.0024C18.739 11.2789 17.798 11.4375 16.8438 11.4375C15.8895 11.4375 14.9485 11.2789 14.262 11.0024C13.6763 10.7665 13.3125 10.4543 13.3125 10.1875V9.32456C13.5083 9.4655 13.7478 9.59413 14.0285 9.70719C14.7975 10.0169 15.7973 10.1875 16.8438 10.1875C17.8902 10.1875 18.89 10.0169 19.659 9.70719C19.9397 9.59413 20.1792 9.4655 20.375 9.32456V10.1875ZM14.262 7.49756C14.9485 7.22106 15.8895 7.0625 16.8438 7.0625C17.798 7.0625 18.739 7.22106 19.4255 7.49756C20.0112 7.73347 20.375 8.04572 20.375 8.3125C20.375 8.57928 20.0112 8.89153 19.4255 9.12744C18.739 9.40394 17.798 9.5625 16.8438 9.5625C15.8895 9.5625 14.9485 9.40394 14.262 9.12744C13.6763 8.89153 13.3125 8.57928 13.3125 8.3125C13.3125 8.04572 13.6763 7.73347 14.262 7.49756ZM6.57453 7.49756C7.261 7.22106 8.202 7.0625 9.15625 7.0625C10.1105 7.0625 11.0515 7.22106 11.738 7.49756C12.3237 7.73347 12.6875 8.04572 12.6875 8.3125C12.6875 8.57928 12.3237 8.89153 11.738 9.12744C11.0515 9.40394 10.1105 9.5625 9.15625 9.5625C8.202 9.5625 7.261 9.40394 6.57453 9.12744C5.98884 8.89153 5.625 8.57928 5.625 8.3125C5.625 8.04572 5.98884 7.73347 6.57453 7.49756ZM6.57453 16.6274C5.98884 16.3915 5.625 16.0793 5.625 15.8125V14.9496C5.82084 15.0905 6.06031 15.2191 6.34103 15.3322C7.05625 15.6202 7.97119 15.7878 8.9375 15.8098V17.0594C8.05947 17.0372 7.20844 16.8828 6.57453 16.6274ZM15.5314 18.5038C14.8603 18.7835 13.9613 18.9375 13 18.9375C12.0387 18.9375 11.1397 18.7835 10.4686 18.5038C9.90122 18.2674 9.5625 17.9622 9.5625 17.6875V16.8428C9.63328 16.894 9.7115 16.9449 9.79825 16.9951C10.2835 17.2759 10.9438 17.4836 11.7077 17.5957C11.7232 17.598 11.7384 17.5991 11.7535 17.5991C11.906 17.5991 12.0395 17.4873 12.0623 17.3319C12.0874 17.1612 11.9692 17.0024 11.7985 16.9774C10.3462 16.7642 9.5625 16.2181 9.5625 15.8125V14.965C10.2698 15.4826 11.5183 15.8125 13 15.8125C14.4817 15.8125 15.7302 15.4826 16.4375 14.965V15.8125C16.4375 16.2181 15.6538 16.7642 14.2015 16.9774C14.0307 17.0024 13.9126 17.1612 13.9377 17.3319C13.9605 17.4873 14.094 17.5991 14.2465 17.5991C14.2616 17.5991 14.2769 17.598 14.2922 17.5957C15.0562 17.4836 15.7164 17.2759 16.2017 16.9951C16.2885 16.9449 16.3667 16.894 16.4375 16.8428V17.6875C16.4375 17.9622 16.0988 18.2674 15.5314 18.5038ZM19.4255 16.6274C18.7916 16.8828 17.9405 17.0372 17.0625 17.0594V15.8098C18.0288 15.7877 18.9438 15.6202 19.659 15.3322C19.9397 15.2191 20.1792 15.0905 20.375 14.9495V15.8125C20.375 16.0793 20.0112 16.3915 19.4255 16.6274Z" fill="white"/>
</svg>
