<svg width="123" height="28" viewBox="0 0 123 28" fill="none" xmlns="http://www.w3.org/2000/svg">
<path d="M1.53078 3.89268C2.67442 2.76648 3.78721 1.60931 4.93826 0.49179C5.1924 0.645419 5.4231 0.834976 5.6501 1.02701C6.93809 2.064 8.59371 2.61285 10.2419 2.60294C11.5497 2.5794 12.8512 2.20524 13.9652 1.51515C14.4501 1.22524 14.8757 0.848605 15.3075 0.485596C15.4926 0.629313 15.6727 0.779224 15.8355 0.948958C16.8805 2.0194 17.9538 3.06259 18.9951 4.13675C19.1998 4.28294 19.0247 4.47993 18.8964 4.59763C17.4616 5.9617 15.706 6.9863 13.8098 7.54754C11.4275 8.25869 8.83922 8.25498 6.45818 7.53639C4.61873 6.98383 2.91499 5.99391 1.5024 4.68931C1.3926 4.57781 1.27046 4.46754 1.20508 4.32135C1.25689 4.14294 1.41234 4.02524 1.53078 3.89268Z" fill="#EC6602" stroke="#EB6C0D" stroke-width="0.09375"/>
<path d="M23.4997 1.42494C23.7822 1.08795 24.0499 0.726176 24.4262 0.487061C25.5908 1.63308 26.7319 2.80387 27.8916 3.95485C28.0064 4.08741 28.2025 4.22122 28.1149 4.42441C28.0323 4.55078 27.9336 4.66476 27.8373 4.77998C26.7838 5.99166 26.1854 7.57503 26.1065 9.17697C26.03 10.8384 26.5395 12.5246 27.5339 13.8577C27.7275 14.1228 27.9681 14.352 28.1384 14.6345C28.1507 14.8674 27.936 15.0025 27.8016 15.1586C26.6616 16.2699 25.571 17.4333 24.4138 18.5248C24.288 18.4294 24.1597 18.3352 24.0486 18.2237C21.9143 15.9267 20.6523 12.812 20.6621 9.66388C20.5857 6.69414 21.6269 3.72069 23.4997 1.42494Z" fill="#E73E0D" stroke="#E73E0D" stroke-width="0.09375"/>
<path d="M91.7145 5.55399C92.4004 5.27151 93.2357 5.42266 93.7711 5.94054C94.4015 6.5216 94.5533 7.53753 94.1326 8.28337C93.7452 9.02426 92.8372 9.43559 92.0266 9.24107C91.1495 9.06762 90.4722 8.20532 90.5178 7.30585C90.5129 6.54762 91.0249 5.83894 91.7145 5.55399Z" fill="#DB030E" stroke="#DB030E" stroke-width="0.09375"/>
<path d="M4.72234 9.6538C4.87532 9.44318 5.06655 9.66495 5.18868 9.77894C6.26077 10.8494 7.32422 11.931 8.40001 12.9977C8.49994 13.1055 8.63318 13.2158 8.61344 13.3805C8.58013 13.5552 8.43085 13.6729 8.33092 13.8104C7.24773 15.0568 6.63581 16.691 6.58153 18.3412C6.53465 20.1711 7.18605 22.0196 8.41111 23.3825C8.54188 23.5188 8.71583 23.7542 8.53571 23.9251C7.49694 24.9919 6.43102 26.0313 5.39101 27.0956C5.24173 27.2455 5.09492 27.4004 4.9222 27.5255C4.75565 27.5354 4.65326 27.3731 4.53976 27.2777C2.39682 24.9782 1.15941 21.8611 1.13844 18.7129C1.08293 15.3789 2.37091 12.0189 4.72234 9.6538Z" fill="#DE006F" stroke="#DE006F" stroke-width="0.09375"/>
<path d="M63.157 11.5332C65.2259 10.9038 67.4121 10.5346 69.5747 10.7713C70.4359 10.8654 71.3303 11.1045 71.9866 11.7029C72.6466 12.315 72.8872 13.2479 72.9094 14.1226C72.9144 17.1803 72.9045 20.2367 72.9144 23.2944C72.9008 23.484 72.939 23.6909 72.8551 23.8693C72.7133 24.0254 72.4875 23.9944 72.3 24.0068C71.5968 24.0031 70.8923 24.0081 70.1891 24.0056C69.9819 24.0044 69.6969 23.9932 69.6278 23.7491C69.5895 23.4332 69.6117 23.1136 69.6093 22.7964C69.6117 20.1946 69.608 17.5941 69.6117 14.9923C69.608 14.4757 69.5575 13.9132 69.2145 13.4994C68.9122 13.1475 68.4286 13.0274 67.9845 13.01C66.8618 12.9605 65.7453 13.1599 64.6547 13.409C64.6338 16.7045 64.6461 19.9989 64.6486 23.2944C64.6375 23.4852 64.6671 23.6884 64.5918 23.8706C64.4462 24.0217 64.2229 23.9969 64.0329 24.0068C63.3297 24.0031 62.6265 24.0081 61.9233 24.0056C61.7173 24.0044 61.4224 23.9944 61.3731 23.7405C61.32 23.4283 61.3459 23.1098 61.3422 22.7964C61.3484 20.1537 61.3398 17.5111 61.3472 14.8684C61.3435 14.389 61.2978 13.8587 60.9672 13.4833C60.6896 13.1587 60.2553 13.0323 59.8433 13.015C58.6787 12.953 57.5215 13.1599 56.3889 13.4102C56.3667 16.7479 56.384 20.0868 56.3803 23.4258C56.3852 23.5757 56.3643 23.7206 56.3174 23.8619C56.1434 24.0477 55.8683 23.9932 55.6425 24.0081C54.9455 23.9957 54.2485 24.0167 53.5514 24.0019C53.375 23.9944 53.1357 23.9684 53.0752 23.7665C53.0222 23.4047 53.0518 23.0367 53.0468 22.6725C53.0481 19.4921 53.0505 16.3118 53.0456 13.1314C53.0444 12.761 53.0715 12.3521 53.333 12.0635C53.6711 11.6893 54.1806 11.5592 54.6432 11.4093C56.2113 10.967 57.841 10.7675 59.467 10.7031C60.7365 10.6585 62.0738 10.8121 63.157 11.5332Z" fill="#DB030E" stroke="#DB030E" stroke-width="0.09375"/>
<path d="M79.5083 11.0006C81.1615 10.7417 82.8529 10.5806 84.5208 10.8011C85.3782 10.9225 86.2739 11.2087 86.8612 11.884C87.4558 12.5579 87.6199 13.4983 87.6248 14.373C87.6223 17.1395 87.6236 19.9061 87.6236 22.6726C87.6186 23.0418 87.6458 23.4123 87.6026 23.7802C87.5089 24.033 87.1955 23.9995 86.9821 24.0082C86.2394 23.997 85.4967 24.0156 84.754 24.0008C84.5813 24.002 84.3481 23.945 84.3173 23.7431C84.2692 23.4296 84.2926 23.1112 84.2914 22.7953C84.2951 20.1526 84.2889 17.51 84.2938 14.8673C84.2864 14.4151 84.242 13.9294 83.9718 13.5503C83.7288 13.2171 83.3217 13.0486 82.9207 13.0225C81.7475 12.9346 80.5816 13.1526 79.4404 13.4041C79.4071 13.891 79.4182 14.3792 79.4207 14.8673C79.4182 17.7578 79.4219 20.6482 79.4195 23.5399C79.4516 23.7641 79.3134 24.0094 79.0642 23.9946C78.3277 24.0243 77.5911 23.9933 76.8546 24.0082C76.6042 23.9871 76.2476 24.0602 76.1181 23.7765C76.07 23.494 76.0873 23.2054 76.086 22.9204C76.0959 19.5753 76.0786 16.2301 76.0947 12.885C76.07 12.3944 76.3636 11.9372 76.8065 11.7378C77.6578 11.3401 78.5917 11.1703 79.5083 11.0006Z" fill="#DB030E" stroke="#DB030E" stroke-width="0.09375"/>
<path d="M111.569 11.412C113.633 10.8371 115.8 10.5745 117.939 10.7566C118.975 10.8532 120.07 11.0824 120.875 11.7886C121.562 12.4019 121.788 13.3621 121.798 14.2504C121.799 16.6861 121.795 19.1207 121.8 21.5564C121.793 22.0508 121.749 22.5736 121.481 23.0035C121.233 23.3863 120.806 23.5994 120.387 23.7382C118.646 24.287 116.799 24.3663 114.987 24.2982C114.037 24.2462 113.066 24.1297 112.192 23.7283C111.516 23.4223 110.929 22.8982 110.595 22.2292C110.236 21.5292 110.147 20.7251 110.167 19.947C110.17 19.247 110.301 18.5371 110.628 17.9139C110.977 17.2536 111.577 16.7469 112.258 16.4569C112.999 16.1398 113.799 15.9651 114.602 15.8932C115.887 15.7743 117.174 15.6566 118.461 15.5339C118.455 15.0012 118.525 14.4548 118.389 13.9345C118.233 13.4302 117.685 13.2283 117.214 13.1552C115.664 12.9322 114.094 13.1911 112.585 13.5467C112.163 13.6346 111.745 13.8304 111.308 13.7511C111.184 13.1341 110.99 12.5307 110.915 11.9051C110.923 11.5669 111.316 11.4975 111.569 11.412ZM115.474 18.044C114.845 18.1246 114.143 18.3191 113.801 18.9051C113.467 19.5109 113.457 20.2654 113.656 20.9171C113.857 21.5515 114.478 21.9479 115.11 22.0495C116.224 22.244 117.386 22.14 118.463 21.8017C118.468 20.4401 118.469 19.0798 118.463 17.7182C117.465 17.8223 116.47 17.9338 115.474 18.044Z" fill="#DB030E" stroke="#DB030E" stroke-width="0.09375"/>
<path d="M42.3496 10.7997C44.5184 10.3995 46.8501 11.1466 48.3824 12.7411C49.7839 14.1659 50.4896 16.2324 50.2737 18.2222C50.0689 20.4708 48.6402 22.5423 46.6441 23.567C44.706 24.5816 42.2719 24.5717 40.3473 23.5285C38.1896 22.4085 36.7375 20.0372 36.7585 17.5928C36.7005 15.5857 37.6171 13.5861 39.1494 12.3025C40.0574 11.527 41.1739 11.0016 42.3496 10.7997ZM42.7505 13.7372C41.1615 14.0507 39.8686 15.4767 39.7144 17.0985C39.5158 18.7239 40.4904 20.394 41.9869 21.0346C43.1601 21.5747 44.5974 21.4397 45.6609 20.7112C46.5491 20.1227 47.161 19.1452 47.3263 18.0921C47.5336 16.8358 47.0426 15.4977 46.0951 14.6565C45.2155 13.8314 43.9263 13.4832 42.7505 13.7372Z" fill="#DB030E" stroke="#DB030E" stroke-width="0.09375"/>
<path d="M96.6067 11.5024C96.5512 11.2831 96.7116 10.9945 96.9632 11.0329C97.7479 11.0118 98.535 11.0353 99.3208 11.0229C99.5195 11.0366 99.7822 10.992 99.9007 11.2026C100.045 11.4987 100.098 11.8283 100.187 12.1442C100.922 14.9876 101.665 17.8284 102.404 20.6706C102.499 21.01 102.533 21.3829 102.765 21.6642C102.836 21.5118 102.894 21.3545 102.94 21.1934C103.672 18.0106 104.42 14.8314 105.151 11.6486C105.211 11.4021 105.282 11.0366 105.605 11.0378C106.511 11.0143 107.419 11.0242 108.324 11.0329C108.5 11.0106 108.629 11.1357 108.704 11.2831C108.749 11.4826 108.656 11.6796 108.618 11.8729C107.563 15.4782 106.523 19.0872 105.473 22.695C105.357 23.0642 105.289 23.4532 105.113 23.8014C104.942 24.0306 104.627 23.9996 104.377 24.0083C103.221 24.0021 102.066 24.0045 100.911 24.007C100.715 23.9996 100.494 24.012 100.336 23.8757C100.224 23.753 100.178 23.5895 100.125 23.4383C99.0605 19.8268 97.9847 16.2191 96.9176 12.6088C96.8127 12.2408 96.6721 11.8803 96.6067 11.5024Z" fill="#DB030E" stroke="#DB030E" stroke-width="0.09375"/>
<path d="M90.9483 11.3016C91.2136 11.1988 91.5084 11.2545 91.7885 11.2409C92.4831 11.2645 93.1826 11.2062 93.8772 11.2669C94.0943 11.3091 94.0906 11.594 94.1017 11.7687C94.1005 15.6528 94.0992 19.5368 94.1029 23.4209C94.0943 23.6068 94.1116 23.8434 93.9265 23.9537C93.6736 24.0342 93.4034 23.9995 93.1443 24.0082C92.4905 23.9908 91.8366 24.028 91.184 23.9945C91.0273 23.9995 90.8941 23.9029 90.8176 23.774C90.7781 23.4085 90.8028 23.0393 90.8003 22.6726C90.8003 19.0351 90.8015 15.3988 90.7991 11.7625C90.8102 11.6027 90.7867 11.397 90.9483 11.3016Z" fill="#DB030E" stroke="#DB030E" stroke-width="0.09375"/>
<path d="M23.8493 20.4908C24.0294 20.3384 24.2169 20.1934 24.4094 20.0547C24.5932 20.2108 24.7758 20.3694 24.9448 20.5416C26.0194 21.6356 27.11 22.7122 28.1857 23.8037C28.1401 23.9301 28.0747 24.0428 27.9896 24.1432C25.6641 26.372 22.4651 27.6704 19.2451 27.632C16.2842 27.6754 13.3308 26.5988 11.0669 24.6883C10.7893 24.448 10.4883 24.225 10.2773 23.9202C10.2835 23.7331 10.4649 23.629 10.5697 23.4952C11.5789 22.488 12.5868 21.4795 13.5874 20.4635C13.7342 20.3161 13.897 20.1848 14.0599 20.0547C14.4312 20.3471 14.7804 20.6704 15.1764 20.9306C16.6605 21.9329 18.5234 22.3628 20.2925 22.0841C21.5941 21.8958 22.8414 21.3395 23.8493 20.4908Z" fill="#DC030E" stroke="#DC030E" stroke-width="0.09375"/>
</svg>
