<svg width="15" height="15" viewBox="0 0 15 15" fill="none" xmlns="http://www.w3.org/2000/svg">
<g clip-path="url(#clip0)">
<path d="M14.2495 5.09659H12.81L12.406 2.04805C12.3482 1.63875 11.9723 1.35177 11.5622 1.40387L0.651663 2.84984C0.453938 2.87636 0.27488 2.98049 0.154081 3.13928C0.0327495 3.29701 -0.0202234 3.4968 0.00698228 3.6939L0.927598 10.6368C0.976506 11.0107 1.29525 11.2903 1.67235 11.29C1.70465 11.2899 1.73689 11.2877 1.76891 11.2835L2.49164 11.1882V12.8518C2.49164 13.2663 2.82765 13.6023 3.24215 13.6023H14.2495C14.664 13.6023 15 13.2663 15 12.8518V5.84709C15 5.4326 14.664 5.09659 14.2495 5.09659ZM12.3055 5.09659H10.3519L12.2717 4.84217L12.3055 5.09659ZM0.502314 3.62636C0.493526 3.56106 0.511351 3.49496 0.551847 3.44299C0.592092 3.38948 0.652101 3.35433 0.718458 3.34542L11.627 1.89995C11.7642 1.88257 11.89 1.97826 11.9099 2.1151L12.0088 2.8601L0.60113 4.37286L0.502314 3.62636ZM2.49164 10.6836L1.70462 10.7874C1.56765 10.8056 1.44188 10.7093 1.42368 10.5723C1.42368 10.5723 1.42368 10.5723 1.42368 10.5723L0.865557 6.35493L2.49164 6.14004V10.6836ZM2.52467 5.6312L0.798512 5.85885L0.667174 4.86919L12.0748 3.35618L12.1499 3.92956L12.2054 4.34609L6.54435 5.09659H3.24215C2.9113 5.09719 2.61985 5.31433 2.52467 5.6312ZM14.4997 12.8518C14.4997 12.9899 14.3877 13.1019 14.2495 13.1019H3.24215C3.10399 13.1019 2.99198 12.9899 2.99198 12.8518V5.8546C2.99198 5.8521 2.99323 5.8496 2.99323 5.84709C2.99323 5.70894 3.10524 5.59693 3.2434 5.59693H14.2495C14.3877 5.59693 14.4997 5.70894 14.4997 5.84709V12.8518Z" fill="#333333"/>
<path d="M10.9839 8.8549C11.0845 8.78067 11.1734 8.6918 11.2476 8.59123C11.6589 9.14488 12.4412 9.26027 12.9948 8.84893C13.5485 8.43762 13.6639 7.65535 13.2525 7.1017C13.0165 6.78404 12.644 6.59704 12.2483 6.59761C11.853 6.5987 11.4817 6.78723 11.2476 7.1057C10.8374 6.54986 10.0543 6.43181 9.4984 6.84202C8.94256 7.25223 8.82451 8.03535 9.23472 8.59123C9.64493 9.14704 10.4281 9.26512 10.9839 8.8549ZM12.2483 7.09794C12.6628 7.09794 12.9988 7.43395 12.9988 7.84845C12.9988 8.26294 12.6628 8.59895 12.2483 8.59895C11.8338 8.59895 11.4978 8.26294 11.4978 7.84845C11.4978 7.43395 11.8338 7.09794 12.2483 7.09794ZM10.2469 7.09794C10.6614 7.09794 10.9974 7.43395 10.9974 7.84845C10.9974 8.26294 10.6614 8.59895 10.2469 8.59895C9.83243 8.59895 9.49642 8.26294 9.49642 7.84845C9.49642 7.43395 9.83243 7.09794 10.2469 7.09794Z" fill="#333333"/>
<path d="M4.49252 6.84778H3.99219V7.34811H4.49252V6.84778Z" fill="#333333"/>
<path d="M7.99519 6.84778H4.99316V7.34811H7.99519V6.84778Z" fill="#333333"/>
<path d="M7.99488 7.84839H3.99219V8.34874H7.99488V7.84839Z" fill="#333333"/>
<path d="M13.2484 10.0999H4.24235C4.1042 10.0999 3.99219 10.2119 3.99219 10.3501V11.8511C3.99219 11.9892 4.1042 12.1013 4.24235 12.1013H13.2484C13.3865 12.1013 13.4985 11.9892 13.4985 11.8511V10.3501C13.4985 10.2119 13.3866 10.0999 13.2484 10.0999ZM12.9982 11.6009H4.49252V10.6002H12.9982V11.6009Z" fill="#333333"/>
</g>
<defs>
<clipPath id="clip0">
<rect width="15" height="15" fill="white"/>
</clipPath>
</defs>
</svg>
