<svg width="16" height="16" viewBox="0 0 16 16" fill="none" xmlns="http://www.w3.org/2000/svg">
<g clip-path="url(#clip0)">
<path d="M15.8884 5.74782L14.1009 1.1002C13.7621 0.221614 12.7753 -0.216015 11.8967 0.122713C11.8839 0.127642 11.8712 0.132703 11.8586 0.137931L2.92561 3.8409C2.07503 4.18981 1.65698 5.15262 1.98282 6.01232L2.22844 6.66793H1.665C0.745889 6.66897 0.0010323 7.41382 0 8.33294V14.3269C0.0010323 15.2461 0.745889 15.9909 1.665 15.9919H12.987C13.9062 15.9909 14.651 15.2461 14.652 14.3269V8.33294C14.6515 8.24256 14.6435 8.15238 14.6281 8.06334L14.9374 7.93813C15.7955 7.58638 16.2173 6.61502 15.8884 5.74782ZM1.665 7.20077H12.987C13.585 7.20247 14.0782 7.66943 14.1126 8.26637H0.539462C0.573827 7.6694 1.06707 7.20243 1.665 7.20077ZM4.3426 5.59597L6.12322 4.7054L6.48926 5.62102L4.70863 6.51132L4.3426 5.59597ZM14.1192 14.327C14.1185 14.952 13.612 15.4584 12.987 15.4592H1.665C1.04 15.4584 0.533534 14.952 0.532802 14.327V10.9304H14.1192V14.327ZM14.1192 10.3976H0.532802V8.79917H14.1192V10.3976ZM14.7376 7.44586L14.4592 7.55854C14.1716 7.01162 13.605 6.66883 12.987 6.66797H5.58696L6.94693 5.98785C7.07094 5.92594 7.12679 5.77929 7.07534 5.65059L6.5103 4.23866C6.45566 4.10207 6.30064 4.0356 6.16405 4.09021C6.15715 4.09298 6.15039 4.09601 6.14377 4.09934L3.88496 5.22941C3.76105 5.29141 3.70533 5.43803 3.75682 5.56667L4.19744 6.66797H2.79721L2.48179 5.82668C2.25818 5.236 2.54539 4.57466 3.12968 4.33483L12.0624 0.631871C12.6595 0.384252 13.3444 0.667602 13.592 1.26477C13.5959 1.27406 13.5996 1.28342 13.6032 1.29281L15.3908 5.94043C15.6169 6.53633 15.3272 7.20393 14.7376 7.44586Z" fill="#333333"/>
<path d="M9.58284 14.71C10.0793 14.9985 10.6923 14.9985 11.1887 14.71C11.952 15.1535 12.9303 14.8942 13.3738 14.1309C13.8172 13.3676 13.5579 12.3893 12.7946 11.9458C12.5496 11.8035 12.2712 11.7288 11.9879 11.7295C11.7071 11.7296 11.4313 11.8043 11.1887 11.9458C10.4254 11.5024 9.44714 11.7616 9.00368 12.525C8.56023 13.2883 8.81953 14.2665 9.58284 14.71ZM11.6342 12.3274C11.7475 12.2856 11.8672 12.2636 11.9879 12.2623C12.5764 12.2623 13.0535 12.7394 13.0535 13.328C13.0535 13.9165 12.5764 14.3936 11.9879 14.3936C11.8672 14.3923 11.7475 14.3703 11.6342 14.3286C12.1058 13.7448 12.1058 12.911 11.6342 12.3274ZM11.1887 12.6305C11.5439 13.0277 11.5439 13.6283 11.1887 14.0254C10.8335 13.6283 10.8335 13.0276 11.1887 12.6305ZM10.3895 12.2623C10.5103 12.2636 10.63 12.2856 10.7433 12.3274C10.2716 12.911 10.2716 13.7449 10.7433 14.3286C10.63 14.3703 10.5103 14.3923 10.3895 14.3936C9.80102 14.3936 9.32393 13.9165 9.32393 13.328C9.32393 12.7394 9.80102 12.2623 10.3895 12.2623Z" fill="#333333"/>
<path d="M11.2374 5.50599L11.4539 5.99286L13.9953 4.86313L13.7789 4.37626L11.2374 5.50599Z" fill="#333333"/>
<path d="M13.2115 3.24844L9.54053 4.94281L9.76371 5.42635L13.4347 3.73198L13.2115 3.24844Z" fill="#333333"/>
</g>
<defs>
<clipPath id="clip0">
<rect width="16" height="16" fill="white"/>
</clipPath>
</defs>
</svg>
