<svg width="23" height="22" viewBox="0 0 23 22" fill="none" xmlns="http://www.w3.org/2000/svg">
<path d="M5.73837 8.98047H4.3125C4.13344 8.98047 3.96171 9.04866 3.83525 9.16996C3.7088 9.29126 3.63809 9.45575 3.63868 9.62706L3.6486 14.5231C3.6486 14.8791 3.9503 15.1677 4.32243 15.1677C4.69456 15.1677 4.99626 14.8791 4.99626 14.5231V13.0365C5.27176 13.0352 5.56609 13.0341 5.73837 13.0341C6.92233 13.0341 7.88559 12.1248 7.88559 11.0073C7.88559 9.88969 6.92233 8.98047 5.73837 8.98047ZM5.73837 11.745C5.56457 11.745 5.26916 11.7462 4.99258 11.7475C4.99114 11.4731 4.98988 11.1776 4.98988 11.0073C4.98988 10.8615 4.98912 10.5563 4.98831 10.2695H5.73832C6.17173 10.2695 6.53789 10.6074 6.53789 11.0073C6.53789 11.4072 6.17177 11.745 5.73837 11.745Z" fill="#325F8A"/>
<path d="M11.4699 8.98047H10.0625C9.88358 8.98047 9.71198 9.04853 9.58557 9.16966C9.45916 9.29079 9.38831 9.45506 9.38867 9.6262C9.38867 9.62625 9.39869 14.3633 9.39874 14.3805C9.39941 14.5515 9.47101 14.7152 9.59787 14.8356C9.72415 14.9555 9.89476 15.0227 10.0726 15.0227H10.0751C10.1177 15.0226 11.1215 15.0189 11.5229 15.0122C13.0454 14.9868 14.1505 13.7206 14.1505 12.0016C14.1505 10.1946 13.0733 8.98047 11.4699 8.98047ZM11.4993 13.7234C11.3248 13.7263 11.0245 13.7286 10.7441 13.7304C10.7423 13.1705 10.7386 10.8513 10.7375 10.2695H11.4699C12.7067 10.2695 12.8028 11.5953 12.8028 12.0016C12.8028 12.8478 12.3998 13.7083 11.4993 13.7234Z" fill="#325F8A"/>
<path d="M18.5915 10.2198C18.9636 10.2198 19.2653 9.93126 19.2653 9.57531C19.2653 9.21936 18.9636 8.93079 18.5915 8.93079H16.5312C16.1591 8.93079 15.8574 9.21936 15.8574 9.57531V14.4375C15.8574 14.7935 16.1591 15.0821 16.5312 15.0821C16.9034 15.0821 17.2051 14.7935 17.2051 14.4375V12.6049H18.4278C18.8 12.6049 19.1017 12.3164 19.1017 11.9604C19.1017 11.6045 18.8 11.3159 18.4278 11.3159H17.2051V10.2198H18.5915Z" fill="#325F8A"/>
<path d="M20.5742 6.23047H20.0801V6.04661C20.0801 5.21808 19.7519 4.43068 19.1559 3.82938L16.3571 1.00543C15.7238 0.36648 14.8326 0 13.9121 0H4.94141C3.82676 0 2.91992 0.86741 2.91992 1.93359V6.23047H2.42578C1.31113 6.23047 0.404297 7.09788 0.404297 8.16406V15.8984C0.404297 16.9646 1.31113 17.832 2.42578 17.832H2.91992V20.0664C2.91992 21.1326 3.82676 22 4.94141 22H18.0586C19.1732 22 20.0801 21.1326 20.0801 20.0664V17.832H20.5742C21.6889 17.832 22.5957 16.9646 22.5957 15.8984V8.16406C22.5957 7.09788 21.6889 6.23047 20.5742 6.23047ZM4.26758 1.93359C4.26758 1.5782 4.56986 1.28906 4.94141 1.28906H13.9121C14.4644 1.28906 14.9991 1.50893 15.3791 1.89234L18.1779 4.71629C18.5355 5.07706 18.7324 5.5495 18.7324 6.04661V6.23047H4.26758V1.93359ZM18.7324 20.0664C18.7324 20.4218 18.4301 20.7109 18.0586 20.7109H4.94141C4.56986 20.7109 4.26758 20.4218 4.26758 20.0664V17.832H18.7324V20.0664ZM21.248 15.8984C21.248 16.2538 20.9458 16.543 20.5742 16.543H2.42578C2.05423 16.543 1.75195 16.2538 1.75195 15.8984V8.16406C1.75195 7.80867 2.05423 7.51953 2.42578 7.51953H20.5742C20.9458 7.51953 21.248 7.80867 21.248 8.16406V15.8984Z" fill="#325F8A"/>
</svg>
