<svg width="15" height="15" viewBox="0 0 15 15" fill="none" xmlns="http://www.w3.org/2000/svg">
<path d="M3.74241 6.12305H2.8125C2.69572 6.12305 2.58372 6.16954 2.50125 6.25225C2.41878 6.33495 2.37267 6.4471 2.37305 6.56391L2.37952 9.90214C2.37952 10.1448 2.57628 10.3416 2.81898 10.3416C3.06167 10.3416 3.25843 10.1448 3.25843 9.90214V8.88855C3.43811 8.88765 3.63006 8.88686 3.74241 8.88686C4.51456 8.88686 5.14278 8.26693 5.14278 7.50495C5.14278 6.74297 4.51456 6.12305 3.74241 6.12305ZM3.74241 8.00795C3.62906 8.00795 3.43641 8.00874 3.25603 8.00968C3.25509 7.82259 3.25427 7.62111 3.25427 7.50495C3.25427 7.40555 3.25377 7.19751 3.25324 7.00195H3.74239C4.02504 7.00195 4.26384 7.23229 4.26384 7.50495C4.26384 7.77762 4.02507 8.00795 3.74241 8.00795Z" fill="white"/>
<path d="M7.48037 6.12305H6.5625C6.44581 6.12305 6.3339 6.16945 6.25146 6.25204C6.16901 6.33463 6.12281 6.44663 6.12305 6.56332C6.12305 6.56335 6.12958 9.79318 6.12961 9.8049C6.13005 9.92147 6.17675 10.0331 6.25948 10.1152C6.34184 10.197 6.45311 10.2428 6.56906 10.2428H6.57073C6.59848 10.2427 7.25317 10.2402 7.51491 10.2356C8.5079 10.2183 9.2286 9.35496 9.2286 8.18291C9.22857 6.95086 8.52604 6.12305 7.48037 6.12305ZM7.49956 9.35684C7.38574 9.35883 7.18992 9.36044 7.00705 9.36161C7.00582 8.9799 7.00342 7.39863 7.00274 7.00195H7.48037C8.287 7.00195 8.34967 7.90588 8.34967 8.18294C8.34967 8.75985 8.08682 9.34658 7.49956 9.35684Z" fill="white"/>
<path d="M12.1249 6.96802C12.3676 6.96802 12.5643 6.77126 12.5643 6.52856C12.5643 6.28587 12.3676 6.08911 12.1249 6.08911H10.7812C10.5386 6.08911 10.3418 6.28587 10.3418 6.52856V9.84373C10.3418 10.0864 10.5386 10.2832 10.7812 10.2832C11.0239 10.2832 11.2207 10.0864 11.2207 9.84373V8.59422H12.0182C12.2609 8.59422 12.4576 8.39746 12.4576 8.15477C12.4576 7.91208 12.2609 7.71532 12.0182 7.71532H11.2207V6.96802H12.1249Z" fill="white"/>
<path d="M13.418 4.24805H13.0957V4.12269C13.0957 3.55778 12.8817 3.02092 12.493 2.61094L10.6677 0.685518C10.2546 0.249873 9.67345 0 9.0731 0H3.22266C2.49571 0 1.9043 0.591416 1.9043 1.31836V4.24805H1.58203C0.855088 4.24805 0.263672 4.83946 0.263672 5.56641V10.8398C0.263672 11.5668 0.855088 12.1582 1.58203 12.1582H1.9043V13.6816C1.9043 14.4086 2.49571 15 3.22266 15H11.7773C12.5043 15 13.0957 14.4086 13.0957 13.6816V12.1582H13.418C14.1449 12.1582 14.7363 11.5668 14.7363 10.8398V5.56641C14.7363 4.83946 14.1449 4.24805 13.418 4.24805ZM2.7832 1.31836C2.7832 1.07604 2.98034 0.878906 3.22266 0.878906H9.0731C9.4333 0.878906 9.78202 1.02882 10.0298 1.29023L11.8552 3.21565C12.0884 3.46163 12.2168 3.78375 12.2168 4.12269V4.24805H2.7832V1.31836ZM12.2168 13.6816C12.2168 13.924 12.0197 14.1211 11.7773 14.1211H3.22266C2.98034 14.1211 2.7832 13.924 2.7832 13.6816V12.1582H12.2168V13.6816ZM13.8574 10.8398C13.8574 11.0822 13.6603 11.2793 13.418 11.2793H1.58203C1.33972 11.2793 1.14258 11.0822 1.14258 10.8398V5.56641C1.14258 5.32409 1.33972 5.12695 1.58203 5.12695H13.418C13.6603 5.12695 13.8574 5.32409 13.8574 5.56641V10.8398Z" fill="white"/>
</svg>
