<svg width="26" height="26" viewBox="0 0 26 26" fill="none" xmlns="http://www.w3.org/2000/svg">
<rect width="26" height="26" rx="5" fill="#325F8A"/>
<g clip-path="url(#clip0)">
<path d="M14.5 6C14.362 6 14.25 6.112 14.25 6.24999C14.25 6.38798 14.362 6.49998 14.5 6.49998C17.257 6.49998 19.5 8.74297 19.5 11.5C19.5 11.638 19.612 11.75 19.75 11.75C19.8882 11.75 20 11.638 20 11.5C20 8.46726 17.5327 6 14.5 6Z" fill="white"/>
<path d="M14.5 7.5C14.362 7.5 14.25 7.612 14.25 7.74999C14.25 7.88798 14.362 7.99998 14.5 7.99998C16.43 7.99998 18 9.56997 18 11.5C18 11.638 18.112 11.75 18.25 11.75C18.3882 11.75 18.5 11.638 18.5 11.5C18.5 9.29452 16.7057 7.5 14.5 7.5Z" fill="white"/>
<path d="M14.5 9C14.362 9 14.25 9.112 14.25 9.24999C14.25 9.38798 14.362 9.49998 14.5 9.49998C15.6028 9.49998 16.5 10.3972 16.5 11.5C16.5 11.638 16.612 11.75 16.75 11.75C16.8882 11.75 17 11.638 17 11.5C17 10.1215 15.8785 9 14.5 9Z" fill="white"/>
<path d="M18.5282 15.3813C17.848 15.2918 17.1772 15.1248 16.5347 14.8855C15.9125 14.6522 15.2054 14.8027 14.7319 15.27L13.9417 16.0585C12.2847 15.0815 10.9005 13.7 9.92121 12.0463L10.712 11.2573C11.1794 10.7855 11.3304 10.0793 11.0967 9.45853C10.857 8.81705 10.6897 8.14779 10.5997 7.46652C10.48 6.62201 9.74871 5.99676 8.89397 6.00001H6.70673C6.65572 6.00001 6.60472 6.0025 6.55424 6.00701C6.09996 6.04803 5.68872 6.26327 5.39646 6.61278C5.10422 6.96253 4.96571 7.40503 5.00722 7.86276C5.24948 10.1398 6.03697 12.359 7.28323 14.279C8.41473 16.056 9.95399 17.5922 11.7327 18.7203C13.6492 19.9607 15.8625 20.7465 18.1382 20.9932C18.1897 20.9978 18.2414 21 18.2934 21C18.2949 21 18.2964 21 18.2982 21C19.2402 20.996 20.0032 20.228 19.9994 19.2887V17.109C20.0192 16.2448 19.3882 15.5023 18.5282 15.3813ZM19.4994 17.1C19.4994 17.102 19.4994 17.1042 19.4994 17.1062V19.29C19.5019 19.9545 18.9622 20.4975 18.2965 20.5002C18.2575 20.4987 18.22 20.4987 18.187 20.4957C15.9935 20.2577 13.8554 19.4987 12.0022 18.2992C10.2832 17.209 8.79723 15.726 7.70373 14.0085C6.49896 12.1525 5.73847 10.009 5.50471 7.81378C5.47571 7.49327 5.57347 7.18079 5.78022 6.93353C5.98696 6.68626 6.27771 6.53404 6.59921 6.50503C6.63495 6.50178 6.67072 6.50002 6.7067 6.50002H8.8962C8.90021 6.50002 8.9042 6.50002 8.90821 6.50002C9.50721 6.50002 10.0205 6.94378 10.1042 7.53426C10.1989 8.25051 10.3752 8.957 10.6284 9.63425C10.7937 10.0732 10.6869 10.5722 10.3577 10.9045L9.43168 11.8285C9.35168 11.9082 9.33518 12.0313 9.39093 12.1293C10.4504 13.9893 11.9957 15.5313 13.8589 16.5885C13.9569 16.6442 14.0794 16.6273 14.1589 16.548L15.0839 15.625C15.4182 15.2953 15.9189 15.189 16.3594 15.354C17.0374 15.6065 17.7452 15.7828 18.4604 15.8768C19.0679 15.9622 19.5147 16.488 19.4994 17.1Z" fill="white"/>
<path d="M8.75012 7H6.70687C6.68587 7 6.66512 7.001 6.64438 7.00299C6.38965 7.02599 6.23387 7.17048 6.16388 7.25424C6.10763 7.32147 5.97914 7.50499 6.00164 7.757C6.09615 8.64376 6.26713 9.50649 6.51038 10.3215C6.54287 10.4297 6.64213 10.5 6.74988 10.5C6.77364 10.5 6.79763 10.4968 6.82163 10.4895C6.95387 10.45 7.02914 10.3108 6.98962 10.1785C6.75512 9.39302 6.59012 8.56052 6.49936 7.70828C6.49362 7.64479 6.53487 7.59004 6.54761 7.57454C6.56812 7.55005 6.61385 7.5078 6.70687 7.50004H8.74962C8.74989 7.50004 8.74989 7.50004 8.74989 7.50004C8.88787 7.50004 8.99988 7.3883 8.99988 7.25028C9.00011 7.11224 8.88811 7 8.75012 7Z" fill="white"/>
<path d="M18.7499 17.0002C18.6119 17.0002 18.4999 17.1122 18.4999 17.2502L18.4996 19.29C18.4999 19.3462 18.4784 19.3992 18.4391 19.4387C18.3999 19.4782 18.3479 19.5 18.2984 19.5002L18.2754 19.4997C17.4211 19.4069 16.5956 19.2424 15.8219 19.0107C15.6901 18.971 15.5504 19.0462 15.5106 19.1785C15.4709 19.3107 15.5461 19.45 15.6784 19.4897C16.4811 19.7302 17.3369 19.9007 18.2259 19.9972C18.2464 19.9992 18.2881 20.0002 18.2942 20.0002C18.4834 19.9994 18.6609 19.9252 18.7942 19.791C18.9274 19.6565 19.0004 19.478 18.9997 19.289L18.9999 17.2502C18.9999 17.1122 18.8879 17.0002 18.7499 17.0002Z" fill="white"/>
</g>
<defs>
<clipPath id="clip0">
<rect width="15" height="15" fill="white" transform="translate(5 6)"/>
</clipPath>
</defs>
</svg>
