<svg width="20" height="21" viewBox="0 0 20 21" fill="none" xmlns="http://www.w3.org/2000/svg">
<g clip-path="url(#clip0)">
<path d="M9.9998 19.4123C15.0948 19.4123 19.2252 15.3424 19.2252 10.3219C19.2252 5.30141 15.0948 1.23151 9.9998 1.23151C4.90476 1.23151 0.774414 5.30141 0.774414 10.3219C0.774414 15.3424 4.90476 19.4123 9.9998 19.4123Z" fill="#325F8A"/>
<path d="M10 20.1756C4.48645 20.1756 0 15.7556 0 10.3219C0 4.88905 4.48645 0.468262 10 0.468262C15.5143 0.468262 20 4.88905 20 10.3219C20 15.7556 15.5143 20.1756 10 20.1756ZM10 1.99477C5.34004 1.99477 1.54918 5.73015 1.54918 10.3219C1.54918 14.9137 5.34004 18.6491 10 18.6491C14.66 18.6491 18.4508 14.9129 18.4508 10.3219C18.4508 5.73015 14.66 1.99477 10 1.99477Z" fill="#325F8A"/>
<path d="M10.0002 14.8328C9.57262 14.8328 9.22559 14.4916 9.22559 14.0695V6.43692C9.22559 6.0156 9.57262 5.67365 10.0002 5.67365C10.4278 5.67365 10.7748 6.0156 10.7748 6.43692V14.0695C10.7748 14.4916 10.4278 14.8328 10.0002 14.8328Z" fill="white"/>
<path d="M13.8731 11.0165H6.12715C5.69957 11.0165 5.35254 10.6745 5.35254 10.2532C5.35254 9.83188 5.69957 9.48993 6.12715 9.48993H13.8731C14.3014 9.48993 14.6477 9.83188 14.6477 10.2532C14.6477 10.6745 14.3014 11.0165 13.8731 11.0165Z" fill="white"/>
</g>
<defs>
<clipPath id="clip0">
<rect width="20" height="19.7073" fill="white" transform="translate(0 0.468262)"/>
</clipPath>
</defs>
</svg>
