<svg width="15" height="15" viewBox="0 0 15 15" fill="none" xmlns="http://www.w3.org/2000/svg">
<path d="M7.5001 14.419C11.3214 14.419 14.4191 11.3213 14.4191 7.49997C14.4191 3.67869 11.3214 0.580933 7.5001 0.580933C3.67882 0.580933 0.581055 3.67869 0.581055 7.49997C0.581055 11.3213 3.67882 14.419 7.5001 14.419Z" fill="#325F8A"/>
<path d="M7.5 15C3.36483 15 0 11.6358 0 7.5C0 3.36483 3.36483 0 7.5 0C11.6358 0 15 3.36483 15 7.5C15 11.6358 11.6358 15 7.5 15ZM7.5 1.16188C4.00503 1.16188 1.16188 4.00503 1.16188 7.5C1.16188 10.995 4.00503 13.8381 7.5 13.8381C10.995 13.8381 13.8381 10.9944 13.8381 7.5C13.8381 4.00503 10.995 1.16188 7.5 1.16188Z" fill="#325F8A"/>
<path d="M7.49991 10.9334C7.17922 10.9334 6.91895 10.6737 6.91895 10.3524V4.54299C6.91895 4.22231 7.17922 3.96204 7.49991 3.96204C7.82059 3.96204 8.08087 4.22231 8.08087 4.54299V10.3524C8.08087 10.6737 7.82059 10.9334 7.49991 10.9334Z" fill="white"/>
<path d="M10.4051 8.02866H4.59561C4.27492 8.02866 4.01465 7.76839 4.01465 7.44771C4.01465 7.12703 4.27492 6.86676 4.59561 6.86676H10.4051C10.7263 6.86676 10.986 7.12703 10.986 7.44771C10.986 7.76839 10.7263 8.02866 10.4051 8.02866Z" fill="white"/>
</svg>
