<svg width="16" height="16" viewBox="0 0 16 16" fill="none" xmlns="http://www.w3.org/2000/svg">
<g clip-path="url(#clip0)">
<path d="M8.43811 13.2589C8.5675 13.2589 8.67249 13.1541 8.67249 13.0245V12.6128C8.67249 12.4833 8.5675 12.3783 8.43811 12.3783C8.30859 12.3783 8.20361 12.4833 8.20361 12.6128V13.0245C8.20361 13.1541 8.30859 13.2589 8.43811 13.2589Z" fill="#333333"/>
<path d="M12.9888 13.2589C13.1183 13.2589 13.2233 13.1541 13.2233 13.0245V12.6128C13.2233 12.4833 13.1183 12.3783 12.9888 12.3783C12.8594 12.3783 12.7544 12.4833 12.7544 12.6128V13.0245C12.7544 13.1541 12.8594 13.2589 12.9888 13.2589Z" fill="#333333"/>
<path d="M10.7137 13.4788C11.0003 13.4788 11.2693 13.359 11.4519 13.1502C11.5371 13.0528 11.5271 12.9047 11.4297 12.8195C11.3321 12.7343 11.184 12.7442 11.0988 12.8417C11.0053 12.9486 10.865 13.0099 10.7137 13.0099C10.5625 13.0099 10.4222 12.9486 10.3287 12.8417C10.2435 12.7442 10.0954 12.7343 9.99789 12.8195C9.90035 12.9047 9.89047 13.0528 9.97567 13.1502C10.1582 13.359 10.4272 13.4788 10.7137 13.4788Z" fill="#333333"/>
<path d="M3.33313 3.02939C3.33313 3.02939 5.45044 4.87473 5.45239 4.87644C5.81482 5.19248 6.39624 4.92575 6.39624 4.44711V4.08225C7.01575 4.12363 7.59351 4.28208 8.07861 4.54489C8.73462 4.90048 9.24646 5.5239 9.48303 6.25546C9.55969 6.49289 9.78052 6.65232 10.0322 6.65232C10.0922 6.65232 10.1522 6.64743 10.212 6.64475C10.526 6.63046 10.7773 6.35532 10.7605 6.04111L10.7603 6.03684C10.7285 5.47556 10.5912 4.91379 10.3632 4.4122C9.93237 3.46457 9.1958 2.69138 8.11157 2.04843C7.56689 1.72544 6.97192 1.5405 6.39612 1.36215C6.39612 1.36215 6.39612 0.753267 6.39612 0.752779C6.39612 0.275362 5.8125 0.00949308 5.45239 0.323458C5.45239 0.323458 3.33618 2.16782 3.33313 2.1705C3.07654 2.39426 3.07703 2.80612 3.33313 3.02939ZM3.64124 2.52402C3.64124 2.52402 5.75745 0.679537 5.7605 0.676851C5.82471 0.620943 5.92737 0.667452 5.92737 0.752779V1.54099C5.92737 1.64987 6.00244 1.74448 6.10852 1.76926C6.15356 1.77976 6.20386 1.79343 6.25012 1.80783C6.82764 1.98667 7.37305 2.15561 7.87244 2.45175C8.87146 3.04416 9.54663 3.74899 9.9364 4.60629C10.1406 5.05564 10.2637 5.55942 10.2921 6.06259L10.2922 6.06601C10.2954 6.12412 10.248 6.1738 10.1907 6.17636L10.0375 6.18332L10.0322 6.18344C9.98523 6.18344 9.94275 6.15378 9.92908 6.1113C9.65588 5.26621 9.06274 4.54502 8.30188 4.13266C7.69458 3.80356 6.96301 3.6207 6.18616 3.60373C6.0498 3.6008 5.92725 3.69419 5.92725 3.83774V4.44711C5.92725 4.5311 5.82483 4.5792 5.76038 4.52304L3.64111 2.676C3.5957 2.6362 3.59583 2.56357 3.64124 2.52402Z" fill="#333333"/>
<path d="M0.696521 11.1677H1.26342V14.8556C1.26342 15.3823 1.69188 15.8108 2.21849 15.8108H13.7815C14.3081 15.8108 14.7366 15.3823 14.7366 14.8556V11.1677H15.3035C15.7881 11.1677 16.1312 10.662 15.9515 10.2115L14.7198 7.12378C14.6843 7.03467 14.598 6.9762 14.5022 6.9762H13.2639C13.1345 6.9762 13.0295 7.08118 13.0295 7.21057C13.0295 7.34009 13.1345 7.44507 13.2639 7.44507H14.3432C14.3432 7.44507 15.5133 10.3784 15.516 10.3853C15.5753 10.5338 15.4628 10.6989 15.3035 10.6989H7.96068C7.86766 10.6989 7.78258 10.6412 7.74816 10.5548L6.50768 7.44495H12.3263C12.4557 7.44495 12.5607 7.34009 12.5607 7.21057C12.5607 7.08105 12.4557 6.9762 12.3263 6.9762H1.49791C1.40197 6.9762 1.31566 7.03455 1.28014 7.12366C1.28014 7.12366 0.0510129 10.2053 0.0485715 10.2115C-0.13136 10.6624 0.21178 11.1677 0.696521 11.1677ZM6.16173 13.6473C6.29125 13.6473 6.39623 13.5425 6.39623 13.413V8.43103L7.31261 10.7286C7.41905 10.9954 7.67345 11.1677 7.96068 11.1677H14.2677V14.8556C14.2677 15.1238 14.0495 15.3419 13.7815 15.3419H6.39623V14.3507C6.39623 14.2212 6.29125 14.1162 6.16173 14.1162C6.03234 14.1162 5.92736 14.2212 5.92736 14.3507V15.3419H2.21849C1.95043 15.3419 1.73229 15.1238 1.73229 14.8556V11.1677H4.3629C4.64647 11.1677 4.90587 10.9919 5.01097 10.7285L5.92736 8.43103V13.413C5.92736 13.5425 6.03234 13.6473 6.16173 13.6473ZM0.483996 10.3853L1.65673 7.44507H5.81591C5.81591 7.44507 4.57555 10.5547 4.57543 10.5548C4.54088 10.6416 4.45653 10.6989 4.3629 10.6989C4.3629 10.6989 0.701404 10.6989 0.696521 10.6989C0.537219 10.6989 0.424914 10.5333 0.483996 10.3853Z" fill="#333333"/>
</g>
<defs>
<clipPath id="clip0">
<rect width="16" height="16" fill="white"/>
</clipPath>
</defs>
</svg>
