<svg width="16" height="16" viewBox="0 0 16 16" fill="none" xmlns="http://www.w3.org/2000/svg">
<path d="M14.4529 10.4772L14.3051 10.2465C14.2352 10.1376 14.0902 10.1058 13.9813 10.1757C13.8723 10.2455 13.8405 10.3905 13.9104 10.4995L14.0583 10.7302C14.1192 10.8252 14.1367 10.9377 14.1075 11.0469C14.0783 11.1562 14.0068 11.245 13.9064 11.297L13.0068 11.7618C12.7073 11.9168 12.524 12.2346 12.5398 12.5711L12.5867 13.5825C12.592 13.6953 12.5509 13.8014 12.4711 13.8813C12.3911 13.9614 12.2849 14.0026 12.1718 13.9974L11.1608 13.9502C10.8235 13.9342 10.5059 14.118 10.3513 14.4176L9.88628 15.3168C9.83444 15.4171 9.74578 15.4885 9.63666 15.5178C9.52732 15.5471 9.41466 15.5296 9.31941 15.4686L8.46729 14.9224C8.18344 14.7403 7.81669 14.7403 7.53297 14.9223L6.68079 15.4686C6.58547 15.5296 6.47282 15.5471 6.3635 15.5178C6.25438 15.4885 6.16572 15.4172 6.11382 15.3167L5.64894 14.4178C5.49429 14.1179 5.17641 13.9342 4.83938 13.9502L3.8285 13.9974C3.71507 14.0028 3.60904 13.9614 3.52907 13.8813C3.44919 13.8014 3.40816 13.6953 3.41347 13.5823L3.46035 12.5712C3.47613 12.2346 3.29282 11.9168 2.99319 11.7617L2.09394 11.2971C1.99341 11.245 1.92194 11.1562 1.89269 11.0469C1.86347 10.9377 1.88097 10.8252 1.94194 10.7302L2.48857 9.87788C2.67041 9.59403 2.67041 9.22725 2.4885 8.94334L1.942 8.09122C1.88094 7.99591 1.86344 7.88322 1.89279 7.77394C1.92207 7.66481 1.99344 7.57616 2.09388 7.52428L2.99316 7.05934C3.29279 6.90459 3.47619 6.58697 3.46038 6.25022L3.41347 5.23878C3.40816 5.12603 3.44922 5.01991 3.52907 4.93997C3.60907 4.85991 3.71504 4.81859 3.82841 4.82391L4.8396 4.87109C5.177 4.88637 5.49425 4.70297 5.64882 4.40369L6.11388 3.5045C6.16572 3.40416 6.25438 3.33275 6.3635 3.30347C6.47285 3.27409 6.58547 3.29166 6.68075 3.35269L7.53288 3.89891C7.776 4.05487 8.07979 4.07678 8.34029 3.96563C8.28241 4.21969 8.21547 4.48506 8.13822 4.75887C8.09232 4.75753 8.04629 4.75666 8.00007 4.75666C7.21691 4.75666 6.44247 4.95494 5.7605 5.33006C5.6471 5.39244 5.60572 5.53497 5.6681 5.64838C5.73047 5.76178 5.87297 5.80319 5.98641 5.74078C6.59894 5.40384 7.29475 5.22566 7.99869 5.22544C7.93213 5.43603 7.8595 5.65041 7.77997 5.86763C7.73547 5.98919 7.79791 6.12378 7.91944 6.16831C7.94604 6.17806 7.97325 6.18266 8.00004 6.18266C8.0956 6.18266 8.18538 6.12378 8.22013 6.02881C8.3155 5.76834 8.4021 5.50903 8.4806 5.25316C10.5628 5.49228 12.1851 7.26534 12.1851 9.41047C12.1851 10.5025 11.7669 11.5361 11.0076 12.3207C10.9176 12.4137 10.92 12.5621 11.0131 12.6521C11.0586 12.6961 11.1173 12.718 11.176 12.718C11.2373 12.718 11.2985 12.6942 11.3445 12.6467C12.1889 11.7742 12.6539 10.6248 12.6539 9.41047C12.6539 7.05216 10.8906 5.09812 8.61319 4.79706C8.72485 4.39128 8.81644 3.99816 8.89094 3.62731L9.31935 3.35269C9.41466 3.29163 9.52732 3.27412 9.63663 3.30344C9.74575 3.33272 9.83441 3.40409 9.88632 3.50456L10.3513 4.40353C10.5059 4.70294 10.8234 4.88653 11.1608 4.87103L12.1716 4.82387C12.285 4.81841 12.3911 4.85987 12.4711 4.93991C12.5509 5.01984 12.592 5.12594 12.5867 5.23891L12.5398 6.25003C12.524 6.58691 12.7074 6.90453 13.0069 7.05922L13.9064 7.52428C14.0067 7.57612 14.0781 7.66478 14.1074 7.77391C14.1367 7.88319 14.1192 7.99588 14.0582 8.09109L13.5113 8.94375C13.424 9.08059 13.3767 9.23831 13.3746 9.39981C13.3728 9.52925 13.4763 9.63559 13.6058 9.63731H13.609C13.737 9.63731 13.8416 9.53441 13.8433 9.40606C13.8443 9.33181 13.8662 9.25913 13.9063 9.19631L14.4529 8.34403C14.584 8.13931 14.6232 7.88722 14.5602 7.65244C14.4972 7.41778 14.3373 7.21925 14.1216 7.10781L13.2221 6.64275C13.0848 6.57187 13.0008 6.42634 13.0081 6.27184L13.0549 5.26075C13.0664 5.01816 12.9744 4.78044 12.8027 4.60856C12.6308 4.43656 12.3928 4.34416 12.1499 4.35559L11.1392 4.40275C10.9845 4.40978 10.8387 4.32566 10.7678 4.18828L10.3028 3.28931C10.1913 3.0735 9.99282 2.91359 9.75816 2.85066C9.52338 2.78769 9.27132 2.82678 9.0665 2.958L9.00554 2.99709C9.13582 2.19516 9.18157 1.54791 9.18157 1.18138C9.18154 0.529969 8.65157 0 8.00013 0C7.34869 0 6.81872 0.529969 6.81872 1.18141C6.81872 1.51634 6.81894 2.09797 7.06122 3.03972L6.93379 2.95803C6.72907 2.82684 6.47697 2.78772 6.24216 2.85072C6.0075 2.91366 5.80897 3.07356 5.69757 3.28925L5.2325 4.18844C5.1616 4.32572 5.01597 4.40991 4.86135 4.40278L3.85029 4.35559C3.6076 4.34459 3.36944 4.43656 3.19757 4.60859C3.02582 4.78047 2.93391 5.01819 2.94532 5.26059L2.99222 6.272C2.99944 6.42634 2.91544 6.57188 2.77807 6.64281L1.87872 7.10781C1.66291 7.21928 1.50304 7.41781 1.4401 7.65247C1.3771 7.88725 1.41622 8.13934 1.54744 8.34416L2.09394 9.19628C2.17735 9.3265 2.17735 9.49478 2.094 9.62491L1.54744 10.4771C1.41632 10.6815 1.37716 10.9334 1.43994 11.1681C1.50279 11.4029 1.66266 11.6017 1.87869 11.7134L2.77788 12.178C2.91532 12.2492 2.99941 12.3949 2.99219 12.5494L2.94532 13.5605C2.93388 13.8031 3.02582 14.0408 3.19754 14.2127C3.36941 14.3847 3.60725 14.4769 3.85035 14.4656L4.86138 14.4184C5.01604 14.4111 5.16157 14.4953 5.23254 14.6329L5.69747 15.5319C5.80894 15.7477 6.00747 15.9076 6.24213 15.9705C6.47697 16.0335 6.729 15.9944 6.93379 15.8632L7.78607 15.3169C7.9161 15.2335 8.08419 15.2335 8.21429 15.3169L9.06654 15.8632C9.20713 15.9533 9.37004 15.9999 9.53438 15.9999C9.60932 15.9999 9.6846 15.9902 9.75816 15.9705C9.99282 15.9076 10.1913 15.7477 10.3028 15.532L10.7679 14.6327C10.8388 14.4952 10.9844 14.4113 11.139 14.4184L12.1501 14.4656C12.393 14.4768 12.6309 14.3846 12.8028 14.2126C12.9745 14.0407 13.0664 13.803 13.055 13.5606L13.0081 12.5492C13.0009 12.3949 13.085 12.2492 13.2223 12.1781L14.1218 11.7133C14.3377 11.6016 14.4976 11.4028 14.5604 11.168C14.6231 10.9334 14.5839 10.6815 14.4529 10.4772ZM7.6556 3.41628C7.28747 2.23272 7.28747 1.54884 7.28747 1.18141C7.28747 0.788437 7.60716 0.46875 8.00013 0.46875C8.3931 0.46875 8.71279 0.788437 8.71279 1.18141C8.71279 1.19497 8.70838 2.06406 8.46985 3.34047L8.21419 3.50434C8.08419 3.58775 7.9161 3.58775 7.78597 3.50431L7.65694 3.42159C7.65644 3.41984 7.65616 3.41806 7.6556 3.41628Z" fill="#333333"/>
<path d="M5.1469 6.34871C5.24159 6.26043 5.24674 6.11212 5.15849 6.01746C5.07021 5.92281 4.9219 5.91762 4.82725 6.00587C3.88615 6.8834 3.34644 8.12434 3.34644 9.41046C3.34644 11.9768 5.43412 14.0646 8.00027 14.0646C8.86821 14.0646 9.71502 13.824 10.4491 13.3688C10.5592 13.3006 10.593 13.1561 10.5248 13.0461C10.4566 12.9361 10.3121 12.9022 10.2021 12.9704C9.54224 13.3796 8.78086 13.5959 8.0003 13.5959C5.69265 13.5959 3.81525 11.7183 3.81525 9.41046C3.81518 8.25387 4.30059 7.1379 5.1469 6.34871Z" fill="#333333"/>
<path d="M8.98743 7.08059C8.86805 7.03046 8.73071 7.08668 8.68062 7.20599L6.94362 11.3449C6.89352 11.4643 6.94968 11.6016 7.06902 11.6517C7.09865 11.6642 7.1294 11.6701 7.15962 11.6701C7.25121 11.6701 7.33818 11.616 7.37583 11.5263L9.11283 7.38737C9.16293 7.26802 9.10677 7.13065 8.98743 7.08059Z" fill="#333333"/>
<path d="M6.8271 6.86945C6.27466 6.86945 5.8252 7.3747 5.8252 7.9957C5.8252 8.61674 6.27466 9.12199 6.8271 9.12199C7.37954 9.12199 7.82901 8.61674 7.82901 7.9957C7.82901 7.3747 7.37954 6.86945 6.8271 6.86945ZM6.8271 8.65324C6.53313 8.65324 6.29398 8.35827 6.29398 7.99573C6.29398 7.6332 6.53313 7.33823 6.8271 7.33823C7.12107 7.33823 7.36023 7.6332 7.36023 7.99573C7.36023 8.35827 7.12107 8.65324 6.8271 8.65324Z" fill="#333333"/>
<path d="M8.17114 10.8255C8.17114 11.4465 8.62058 11.9518 9.17302 11.9518C9.72546 11.9518 10.1749 11.4465 10.1749 10.8255C10.1749 10.2045 9.72546 9.69928 9.17302 9.69928C8.62058 9.69928 8.17114 10.2045 8.17114 10.8255ZM9.17302 10.168C9.46699 10.168 9.70614 10.463 9.70614 10.8255C9.70614 11.1881 9.46699 11.483 9.17302 11.483C8.87905 11.483 8.63989 11.1881 8.63989 10.8255C8.63989 10.463 8.87905 10.168 9.17302 10.168Z" fill="#333333"/>
</svg>
