<svg width="80" height="80" viewBox="0 0 80 80" fill="none" xmlns="http://www.w3.org/2000/svg">
<rect width="80" height="80" rx="5" fill="#325F8A"/>
<g clip-path="url(#clip0)">
<path d="M55.5771 58.5483L53.7102 52.9467C53.0578 50.9911 51.3933 49.5475 49.3642 49.1782L43.9747 48.1975V47.7798C44.9126 47.2354 45.7288 46.5072 46.3788 45.6451H48.007C49.3409 45.6451 50.4263 44.5596 50.4263 43.2257V33.5483C50.4263 27.7677 45.7231 23.0645 39.9425 23.0645C34.1618 23.0645 29.4586 27.7677 29.4586 33.5483V39.1935C29.4586 40.7483 30.5642 42.0491 32.0304 42.3524C32.4828 44.6701 33.9312 46.6314 35.9102 47.7798V48.1975L30.5199 49.1782C28.4917 49.5475 26.8263 50.9911 26.1747 52.9467L25.8521 53.9153L23.1054 51.1685C22.7909 50.854 22.7909 50.3419 23.1054 50.0274L26.2909 46.8427L20.3118 40.8636L16.7118 44.4636C15.6457 45.5298 15.0586 46.9475 15.0586 48.4556C15.0586 49.9636 15.6457 51.3806 16.7118 52.4467L27.611 63.3459C28.6771 64.412 30.0949 64.9999 31.6029 64.9999C33.111 64.9999 34.5279 64.412 35.5691 63.3701L39.4973 59.7709L38.2723 58.5483H55.5771ZM48.8134 43.2257C48.8134 43.6709 48.4513 44.0322 48.007 44.0322H47.3288C47.5626 43.4991 47.74 42.937 47.8546 42.3524C48.1997 42.2806 48.5175 42.1435 48.8134 41.9709V43.2257ZM48.007 40.5822V37.8048C48.4868 38.0846 48.8134 38.5991 48.8134 39.1935C48.8134 39.7878 48.4868 40.3024 48.007 40.5822ZM31.8779 40.5822C31.3981 40.3024 31.0715 39.7878 31.0715 39.1935C31.0715 38.5991 31.3981 38.0846 31.8779 37.8048V40.5822ZM31.8779 35.1612V36.0822C31.5908 36.1572 31.3215 36.2701 31.0715 36.4161V33.5483C31.0715 28.6572 35.0513 24.6774 39.9425 24.6774C44.8336 24.6774 48.8134 28.6572 48.8134 33.5483V36.4161C48.5634 36.2701 48.2941 36.1564 48.007 36.0822V35.1612H47.2005C44.8159 35.1612 42.5739 34.2322 40.8868 32.5459L39.9425 31.6016L38.9981 32.5459C37.311 34.2322 35.0691 35.1612 32.6844 35.1612H31.8779ZM33.4908 40.8064V36.7435C35.9126 36.5612 38.1707 35.562 39.9425 33.8774C41.7142 35.562 43.9723 36.562 46.3941 36.7435V40.8064C46.3941 41.9822 46.0731 43.0822 45.5215 44.0322H39.9425V45.6451H44.1957C43.0586 46.6459 41.5723 47.258 39.9425 47.258C36.3852 47.258 33.4908 44.3636 33.4908 40.8064ZM42.3618 48.4991V48.537L39.9425 50.9564L37.5231 48.537V48.4991C38.2876 48.7395 39.0997 48.8709 39.9425 48.8709C40.7852 48.8709 41.5973 48.7395 42.3618 48.4991ZM27.7038 53.4564C28.1691 52.0596 29.3586 51.0282 30.8078 50.7636L36.4449 49.7395L39.9425 53.237L43.4392 49.7403L49.0755 50.7645C50.5247 51.029 51.7142 52.0596 52.1796 53.4572L53.34 56.9354H36.6594L33.5183 53.7943L30.0279 56.9516C29.7239 57.2572 29.1925 57.2572 28.8876 56.9516L27.1263 55.1903L27.7038 53.4564ZM20.311 43.1443L24.0094 46.8427L23.1336 47.7185L19.4352 44.0201L20.311 43.1443ZM34.4521 62.2072C33.6909 62.9669 32.6779 63.387 31.6013 63.387C30.5247 63.387 29.5118 62.9669 28.7497 62.2056L17.8505 51.3072C17.0892 50.5459 16.6699 49.533 16.6699 48.4564C16.6699 47.379 17.0892 46.3661 17.8505 45.6048L18.2941 45.1612L21.9925 48.8596L21.9634 48.8886C21.0207 49.8322 21.0207 51.3669 21.9634 52.3104L27.7465 58.0935C28.2038 58.5499 28.811 58.8024 29.4578 58.8024C30.1046 58.8024 30.7118 58.5507 31.1392 58.1217L31.1997 58.0677L34.915 61.783L34.4521 62.2072ZM36.1054 60.6911L32.3981 56.9838L33.4634 56.0209L37.1642 59.7217L36.1054 60.6911Z" fill="white"/>
<path d="M62.5232 15H51.2328C49.899 15 48.8135 16.0855 48.8135 17.4194V23.871C48.8135 25.2048 49.899 26.2903 51.2328 26.2903H53.3869L52.553 31.154L60.3352 26.2903H62.5232C63.857 26.2903 64.9425 25.2048 64.9425 23.871V17.4194C64.9425 16.0855 63.857 15 62.5232 15ZM63.3296 23.871C63.3296 24.3153 62.9675 24.6774 62.5232 24.6774H59.8723L54.7506 27.8782L55.2998 24.6774H51.2328C50.7885 24.6774 50.4264 24.3153 50.4264 23.871V17.4194C50.4264 16.975 50.7885 16.6129 51.2328 16.6129H62.5232C62.9675 16.6129 63.3296 16.975 63.3296 17.4194V23.871Z" fill="white"/>
<path d="M61.7165 18.2258H52.0391V19.8387H61.7165V18.2258Z" fill="white"/>
<path d="M58.4907 21.4517H52.0391V23.0646H58.4907V21.4517Z" fill="white"/>
<path d="M61.7164 21.4517H60.1035V23.0646H61.7164V21.4517Z" fill="white"/>
<path d="M39.9423 17.4194C29.4052 17.4194 20.3286 24.7081 17.9689 34.8751L16.4407 32.3275L15.0576 33.1573L17.8923 37.8807L22.6157 35.046L21.7858 33.663L19.6004 34.9743C21.8858 25.6735 30.2496 19.0323 39.9423 19.0323C42.0608 19.0323 44.1512 19.3469 46.1552 19.9678L46.6326 18.4275C44.4737 17.7581 42.2229 17.4194 39.9423 17.4194Z" fill="white"/>
<path d="M64.5503 32.8564L59.8269 30.0217L56.9931 34.7459L58.3761 35.5758L59.7874 33.2233C60.5302 35.3967 60.91 37.6701 60.91 40C60.91 44.7959 59.2487 49.4846 56.2334 53.2016L57.4858 54.2177C60.7342 50.2145 62.5229 45.1645 62.5229 40C62.5229 37.533 62.1253 35.1241 61.3503 32.8177L63.7205 34.2395L64.5503 32.8564Z" fill="white"/>
</g>
<defs>
<clipPath id="clip0">
<rect width="50" height="50" fill="white" transform="translate(15 15)"/>
</clipPath>
</defs>
</svg>
