<svg width="26" height="26" viewBox="0 0 26 26" fill="none" xmlns="http://www.w3.org/2000/svg">
<rect width="26" height="26" rx="5" fill="#325F8A"/>
<g clip-path="url(#clip0)">
<path d="M14.9559 13.5419C14.9559 13.2516 14.7197 13.0154 14.4293 13.0154H13.9925C13.702 13.0154 13.4658 13.2516 13.4658 13.5419V13.9788C13.4658 14.2692 13.702 14.5053 13.9925 14.5053H14.4293C14.7197 14.5053 14.9559 14.2691 14.9559 13.9788V13.5419ZM14.5156 13.9788C14.5156 14.0264 14.4769 14.065 14.4293 14.065H13.9925C13.9449 14.065 13.9061 14.0264 13.9061 13.9788V13.5419C13.9061 13.4943 13.9449 13.4557 13.9925 13.4557H14.4293C14.4768 13.4557 14.5156 13.4943 14.5156 13.5419V13.9788Z" fill="white"/>
<path d="M16.8104 13.5419C16.8104 13.2516 16.5742 13.0154 16.2838 13.0154H15.847C15.5565 13.0154 15.3203 13.2516 15.3203 13.5419V13.9788C15.3203 14.2692 15.5565 14.5053 15.847 14.5053H16.2838C16.5742 14.5053 16.8104 14.2691 16.8104 13.9788V13.5419ZM16.3701 13.9788C16.3701 14.0264 16.3314 14.065 16.2838 14.065H15.847C15.7994 14.065 15.7606 14.0264 15.7606 13.9788V13.5419C15.7606 13.4943 15.7994 13.4557 15.847 13.4557H16.2838C16.3314 13.4557 16.3701 13.4943 16.3701 13.5419V13.9788Z" fill="white"/>
<path d="M18.6649 13.5419C18.6649 13.2516 18.4287 13.0154 18.1383 13.0154H17.7015C17.411 13.0154 17.1748 13.2516 17.1748 13.5419V13.9788C17.1748 14.2692 17.411 14.5053 17.7015 14.5053H18.1383C18.4287 14.5053 18.6649 14.2691 18.6649 13.9788V13.5419ZM18.2246 13.9788C18.2246 14.0264 18.1859 14.065 18.1383 14.065H17.7015C17.6539 14.065 17.6151 14.0264 17.6151 13.9788V13.5419C17.6151 13.4943 17.6539 13.4557 17.7015 13.4557H18.1383C18.1858 13.4557 18.2246 13.4943 18.2246 13.5419V13.9788Z" fill="white"/>
<path d="M14.9559 15.2669C14.9559 14.9764 14.7197 14.7402 14.4293 14.7402H13.9925C13.702 14.7402 13.4658 14.9764 13.4658 15.2669V15.7038C13.4658 15.9941 13.702 16.2303 13.9925 16.2303H14.4293C14.7197 16.2303 14.9559 15.9941 14.9559 15.7038V15.2669ZM14.5156 15.7038C14.5156 15.7512 14.4769 15.79 14.4293 15.79H13.9925C13.9449 15.79 13.9061 15.7512 13.9061 15.7038V15.2669C13.9061 15.2193 13.9449 15.1805 13.9925 15.1805H14.4293C14.4768 15.1805 14.5156 15.2193 14.5156 15.2669V15.7038Z" fill="white"/>
<path d="M16.8104 15.2669C16.8104 14.9764 16.5742 14.7402 16.2838 14.7402H15.847C15.5565 14.7402 15.3203 14.9764 15.3203 15.2669V15.7038C15.3203 15.9941 15.5565 16.2303 15.847 16.2303H16.2838C16.5742 16.2303 16.8104 15.9941 16.8104 15.7038V15.2669ZM16.3701 15.7038C16.3701 15.7512 16.3314 15.79 16.2838 15.79H15.847C15.7994 15.79 15.7606 15.7512 15.7606 15.7038V15.2669C15.7606 15.2193 15.7994 15.1805 15.847 15.1805H16.2838C16.3314 15.1805 16.3701 15.2193 16.3701 15.2669V15.7038Z" fill="white"/>
<path d="M18.6649 15.2669C18.6649 14.9764 18.4287 14.7402 18.1383 14.7402H17.7015C17.411 14.7402 17.1748 14.9764 17.1748 15.2669V15.7038C17.1748 15.9941 17.411 16.2303 17.7015 16.2303H18.1383C18.4287 16.2303 18.6649 15.9941 18.6649 15.7038V15.2669ZM18.2246 15.7038C18.2246 15.7512 18.1859 15.79 18.1383 15.79H17.7015C17.6539 15.79 17.6151 15.7512 17.6151 15.7038V15.2669C17.6151 15.2193 17.6539 15.1805 17.7015 15.1805H18.1383C18.1858 15.1805 18.2246 15.2193 18.2246 15.2669V15.7038Z" fill="white"/>
<path d="M14.4293 16.4653H13.9925C13.702 16.4653 13.4658 16.7015 13.4658 16.9919V17.4287C13.4658 17.7191 13.702 17.9553 13.9925 17.9553H14.4293C14.7197 17.9553 14.9559 17.7191 14.9559 17.4287V16.9919C14.9559 16.7015 14.7197 16.4653 14.4293 16.4653ZM14.5156 17.4287C14.5156 17.4763 14.4769 17.515 14.4293 17.515H13.9925C13.9449 17.515 13.9061 17.4763 13.9061 17.4287V16.9919C13.9061 16.9443 13.9449 16.9056 13.9925 16.9056H14.4293C14.4768 16.9056 14.5156 16.9443 14.5156 16.9919V17.4287Z" fill="white"/>
<path d="M16.2837 16.4653H15.8469C15.5565 16.4653 15.3203 16.7015 15.3203 16.9919V17.4287C15.3203 17.7191 15.5565 17.9553 15.8469 17.9553H16.2837C16.5741 17.9553 16.8103 17.7191 16.8103 17.4287V16.9919C16.8103 16.7015 16.5741 16.4653 16.2837 16.4653ZM16.37 17.4287C16.37 17.4763 16.3313 17.515 16.2837 17.515H15.8469C15.7993 17.515 15.7605 17.4763 15.7605 17.4287V16.9919C15.7605 16.9443 15.7993 16.9056 15.8469 16.9056H16.2837C16.3313 16.9056 16.37 16.9443 16.37 16.9919V17.4287Z" fill="white"/>
<path d="M18.1383 16.4653H17.7015C17.411 16.4653 17.1748 16.7015 17.1748 16.9919V17.4287C17.1748 17.7191 17.4111 17.9553 17.7015 17.9553H18.1383C18.4287 17.9553 18.6649 17.7191 18.6649 17.4287V16.9919C18.6649 16.7015 18.4287 16.4653 18.1383 16.4653ZM18.2246 17.4287C18.2246 17.4763 18.1859 17.515 18.1383 17.515H17.7015C17.6539 17.515 17.6151 17.4763 17.6151 17.4287V16.9919C17.6151 16.9443 17.6539 16.9056 17.7015 16.9056H18.1383C18.1858 16.9056 18.2246 16.9443 18.2246 16.9919V17.4287Z" fill="white"/>
<path d="M19.8091 17.3546C19.9307 17.3546 20.0293 17.2561 20.0293 17.1344V8.01534C20.0293 7.21968 19.382 6.57251 18.5865 6.57251H9.06506C8.2694 6.57251 7.62223 7.21979 7.62223 8.01534V13.2817C7.16162 13.1302 6.73404 13.2267 6.35117 13.5697C6.07575 13.8165 5.9385 14.0743 5.9315 14.3583C5.93139 14.3647 5.6109 15.0866 5.6109 15.0866C5.51114 14.8796 5.43546 14.6307 5.44051 14.355C5.44578 14.0636 5.55127 13.6272 6.02358 13.204C6.28903 12.9662 6.58188 12.8143 6.89388 12.7526C7.01313 12.729 7.09076 12.6132 7.06714 12.4939C7.04352 12.3746 6.92782 12.2973 6.80834 12.3207C6.41779 12.3979 6.05488 12.5848 5.72981 12.8761C5.13928 13.405 5.00708 13.9681 5.00031 14.3471C4.99079 14.8708 5.20189 15.3085 5.40393 15.6058L5.30452 15.8549C5.21886 16.0696 5.2223 16.3056 5.31415 16.5191C5.39659 16.7109 5.54141 16.8632 5.72568 16.9544C5.65596 17.1579 5.66433 17.3776 5.75033 17.5777C5.83266 17.7693 5.97714 17.9214 6.16095 18.0125L6.07093 18.2382C5.98539 18.4529 5.98872 18.6889 6.08057 18.9024C6.16496 19.099 6.31483 19.254 6.50563 19.3442C6.42949 19.7443 6.6446 20.157 7.03698 20.3126C7.37169 20.4454 7.75834 20.3017 7.91382 20.1727C8.27089 20.3537 8.68127 20.4454 9.13661 20.4454C9.22937 20.4454 18.5864 20.435 18.5864 20.435C19.382 20.435 20.0293 19.7878 20.0293 18.9922V18.0479C20.0293 17.9264 19.9307 17.8278 19.8091 17.8278C19.6875 17.8278 19.589 17.9264 19.589 18.0479V18.9922C19.589 19.545 19.1391 19.9947 18.5864 19.9947H10.6463C10.8569 19.8419 11.1346 19.5752 11.2867 19.2734C12.1813 19.0892 12.8345 18.313 12.8345 17.3561C12.8345 16.928 12.7876 16.4797 12.7335 15.9606C12.6599 15.2557 12.5682 14.3787 12.5682 13.2357C12.5682 12.0928 12.6599 11.2156 12.7335 10.5108C12.7735 10.1278 12.8081 9.797 12.8247 9.47674C12.8309 9.3552 12.7375 9.25177 12.6161 9.24546C12.494 9.2387 12.3911 9.33249 12.3849 9.45392C12.369 9.76272 12.3349 10.0882 12.2956 10.465C12.2209 11.18 12.128 12.0699 12.128 13.2357C12.128 14.4016 12.2209 15.2914 12.2956 16.0063C12.3485 16.5133 12.3942 16.9509 12.3942 17.3561C12.3942 17.776 12.2362 18.1624 11.9493 18.4441C11.6666 18.7218 11.2852 18.8748 10.8755 18.8748C10.4659 18.8748 10.0845 18.7218 9.80178 18.4441C9.51489 18.1624 9.35688 17.776 9.35688 17.3561C9.35688 16.9509 9.40263 16.5133 9.45549 16.0063C9.53025 15.2914 9.62324 14.4016 9.62324 13.2357C9.62324 12.0699 9.53025 11.1801 9.45549 10.465C9.40263 9.95822 9.35688 9.52043 9.35688 9.11532C9.35688 8.69553 9.51477 8.30911 9.80178 8.02738C10.0845 7.74966 10.4659 7.5967 10.8755 7.5967C11.534 7.5967 12.1124 8.00559 12.3149 8.61435C12.3532 8.7297 12.4778 8.79219 12.5932 8.75378C12.7086 8.71537 12.771 8.59073 12.7326 8.47537C12.4703 7.68648 11.724 7.15638 10.8755 7.15638C9.77701 7.15638 8.91657 8.01683 8.91657 9.11543C8.91657 9.54348 8.96335 9.99182 9.01759 10.5109C9.0912 11.2157 9.18282 12.0928 9.18282 13.2357C9.18282 14.3787 9.0912 15.2559 9.01759 15.9606C8.96335 16.4797 8.91657 16.928 8.91657 17.3561C8.91657 18.0216 9.2327 18.5992 9.72587 18.9516C9.56522 19.0328 9.36823 19.0738 9.13672 19.0738C8.8965 19.0738 8.68976 19.0284 8.51948 18.939L8.6682 18.566C8.83871 18.1384 8.64412 17.6543 8.23362 17.4599C8.2811 17.2099 8.2147 16.9553 8.06254 16.7613V8.01534C8.06254 7.46254 8.51226 7.01282 9.06506 7.01282H18.5865C19.1393 7.01282 19.589 7.46254 19.589 8.01534V17.1344C19.589 17.2561 19.6875 17.3546 19.8091 17.3546ZM7.62212 13.7545V15.3201C7.56673 15.2716 7.50436 15.2295 7.43579 15.1957C7.58451 14.7611 7.36699 14.2802 6.93573 14.1083C6.79435 14.0519 6.64391 14.0343 6.49668 14.055C6.53647 14.0031 7.04444 13.4578 7.62212 13.7545ZM5.71352 16.018L6.21667 14.7563C6.25875 14.6508 6.43981 14.3967 6.77268 14.5173C6.99467 14.5977 7.09913 14.8541 7.01176 15.0733L6.99834 15.1069C6.67327 15.127 6.37239 15.3297 6.24396 15.6518L5.88908 16.5418C5.71375 16.4353 5.63509 16.2147 5.71352 16.018ZM6.14982 17.0766L6.65297 15.815C6.74035 15.5957 6.98986 15.4885 7.20898 15.5759C7.42822 15.6633 7.53543 15.9128 7.44806 16.1319L7.32858 16.4316C7.00339 16.4517 6.70251 16.6544 6.57408 16.9765L6.32537 17.6004C6.14994 17.494 6.07139 17.2733 6.14982 17.0766ZM6.47994 18.4012L6.98309 17.1396C7.07047 16.9204 7.31998 16.8131 7.5391 16.9005C7.73254 16.9777 7.8386 17.181 7.80076 17.3784C7.40013 17.3558 7.14076 17.708 7.0551 17.9227L6.65549 18.9251C6.48017 18.8186 6.40151 18.598 6.47994 18.4012ZM9.13661 19.514C9.55938 19.514 9.90486 19.404 10.1668 19.187C10.3436 19.2538 10.5333 19.2958 10.7323 19.3096C10.4655 19.6406 9.9802 20.005 9.13661 20.005C8.77725 20.005 8.45401 19.9391 8.17262 19.8089L8.35574 19.3496C8.58014 19.4587 8.84158 19.514 9.13661 19.514ZM8.25919 18.4028L7.75605 19.6645C7.66867 19.8837 7.41928 19.9909 7.20004 19.9036C6.98091 19.8162 6.87359 19.5667 6.96108 19.3476L7.46411 18.0859C7.53084 17.9185 7.77714 17.7471 8.02023 17.8468C8.23855 17.9364 8.34657 18.1837 8.25919 18.4028Z" fill="white"/>
</g>
<defs>
<clipPath id="clip0">
<rect width="15.0293" height="15" fill="white" transform="translate(5 6)"/>
</clipPath>
</defs>
</svg>
