<svg width="15" height="16" viewBox="0 0 15 16" fill="none" xmlns="http://www.w3.org/2000/svg">
<g clip-path="url(#clip0)">
<path d="M13.5901 4.05981L13.2589 3.08157C13.1328 2.70899 12.7802 2.45865 12.3817 2.45865H9.59818V1.56565C9.59818 1.11932 9.2299 0.756104 8.77706 0.756104H6.228C5.77528 0.756104 5.40689 1.11932 5.40689 1.56565V2.45865H2.62346C2.22486 2.45865 1.87227 2.70899 1.74616 3.08157L1.41496 4.05981C1.33955 4.28253 1.37777 4.52915 1.51704 4.71961C1.65632 4.91007 1.88165 5.02385 2.11992 5.02385H2.4661L3.22805 14.308C3.2847 14.9969 3.87796 15.5366 4.57891 15.5366H10.5808C11.2816 15.5366 11.875 14.9969 11.9315 14.3079L12.6935 5.02385H12.8851C13.1234 5.02385 13.3487 4.91007 13.488 4.71972C13.6273 4.52926 13.6655 4.28253 13.5901 4.05981V4.05981ZM6.2858 1.62215H8.71927V2.45865H6.2858V1.62215ZM11.0555 14.2381C11.0356 14.4806 10.827 14.6705 10.5808 14.6705H4.57891C4.33263 14.6705 4.12412 14.4806 4.10421 14.2381L3.34787 5.02385H11.8117L11.0555 14.2381ZM2.3084 4.15781L2.57997 3.35559C2.58615 3.3371 2.60366 3.32469 2.62346 3.32469H12.3817C12.4015 3.32469 12.4189 3.3371 12.4252 3.35559L12.6968 4.15781H2.3084Z" fill="#333333"/>
<path d="M9.65342 14.2074C9.6612 14.2078 9.66887 14.208 9.67665 14.208C9.90886 14.208 10.103 14.0287 10.1151 13.7975L10.5278 5.99159C10.5404 5.75275 10.354 5.54898 10.1118 5.53657C9.8688 5.52383 9.66269 5.70764 9.64999 5.94648L9.23742 13.7524C9.22483 13.9912 9.41103 14.195 9.65342 14.2074V14.2074Z" fill="#333333"/>
<path d="M4.90886 13.7985C4.92167 14.0293 5.11553 14.2079 5.34728 14.2079C5.35529 14.2079 5.36353 14.2077 5.37165 14.2073C5.61392 14.1943 5.79965 13.9902 5.78649 13.7513L5.35426 5.94545C5.3411 5.70661 5.13396 5.52359 4.89158 5.53667C4.64931 5.54964 4.46357 5.75375 4.47673 5.99258L4.90886 13.7985Z" fill="#333333"/>
<path d="M7.50732 14.208C7.75005 14.208 7.94678 14.0141 7.94678 13.7749V5.96903C7.94678 5.72986 7.75005 5.53601 7.50732 5.53601C7.2646 5.53601 7.06787 5.72986 7.06787 5.96903V13.7749C7.06787 14.0141 7.2646 14.208 7.50732 14.208Z" fill="#333333"/>
</g>
<defs>
<clipPath id="clip0">
<rect width="15" height="14.7805" fill="white" transform="translate(0 0.756104)"/>
</clipPath>
</defs>
</svg>
