<svg width="27" height="27" viewBox="0 0 27 27" fill="none" xmlns="http://www.w3.org/2000/svg">
<rect width="27" height="27" rx="5" fill="#325F8A"/>
<path d="M19.8799 12.2301L19.4656 10.5728C19.5789 10.5487 19.6639 10.4482 19.6639 10.3278V10.0606C19.6639 9.48039 19.1918 9.00839 18.6117 9.00839H16.7244V8.4572C16.7244 8.1717 16.4922 7.93945 16.2067 7.93945H6.58662C6.30113 7.93945 6.06887 8.1717 6.06887 8.4572V13C6.06887 13.1384 6.18103 13.2505 6.31941 13.2505C6.45775 13.2505 6.56994 13.1384 6.56994 13V8.4572C6.56994 8.44798 6.57741 8.44052 6.58662 8.44052H16.2067C16.2159 8.44052 16.2233 8.44798 16.2233 8.4572V13.0001C16.2233 13.1384 16.3355 13.2506 16.4739 13.2506C16.6122 13.2506 16.7244 13.1385 16.7244 13.0001V12.7161H19.6797C19.6799 12.7161 19.6801 12.7161 19.6803 12.7161C19.6806 12.7161 19.6808 12.7161 19.681 12.7161C20.0447 12.7164 20.3535 12.955 20.4595 13.284H19.6805C19.5422 13.284 19.43 13.3961 19.43 13.5345V14.0689C19.43 14.5018 19.7821 14.8539 20.215 14.8539H20.4989V15.9562H19.8438C19.6287 15.3348 19.038 14.8873 18.3444 14.8873C17.6508 14.8873 17.0601 15.3348 16.845 15.9562H16.7243V14.0689C16.7243 13.9305 16.6122 13.8184 16.4738 13.8184C16.3355 13.8184 16.2233 13.9305 16.2233 14.0689V15.9561H11.0255C10.8103 15.3348 10.2197 14.8872 9.52609 14.8872C8.8325 14.8872 8.24181 15.3348 8.02666 15.9561H6.58662C6.57741 15.9561 6.56994 15.9486 6.56994 15.9394V15.3883H7.65553C7.79387 15.3883 7.90606 15.2761 7.90606 15.1377C7.90606 14.9994 7.79391 14.8872 7.65553 14.8872H5.25053C5.11219 14.8872 5 14.9994 5 15.1377C5 15.2761 5.11216 15.3883 5.25053 15.3883H6.06891V15.9394C6.06891 16.2249 6.30116 16.4572 6.58666 16.4572H7.93991C7.93984 16.4627 7.93947 16.4683 7.93947 16.4739C7.93947 17.3487 8.65125 18.0605 9.52609 18.0605C10.4009 18.0605 11.1127 17.3487 11.1127 16.4739C11.1127 16.4682 11.1123 16.4627 11.1123 16.4572H16.7582C16.7582 16.4627 16.7578 16.4683 16.7578 16.4739C16.7578 17.3487 17.4696 18.0605 18.3444 18.0605C19.2192 18.0605 19.931 17.3487 19.931 16.4739C19.931 16.4682 19.9307 16.4627 19.9306 16.4572H20.7494C20.8878 16.4572 21 16.345 21 16.2066V13.5344C21 12.8747 20.5132 12.3265 19.8799 12.2301ZM16.7244 9.50942H18.6117C18.9156 9.50942 19.1628 9.75667 19.1628 10.0606V10.0773H16.7244V9.50942ZM16.7244 12.215V10.5783H18.9505L19.3597 12.215H16.7244ZM9.52609 17.5595C8.9275 17.5595 8.4405 17.0725 8.4405 16.4739C8.4405 15.8753 8.9275 15.3883 9.52609 15.3883C10.1247 15.3883 10.6117 15.8753 10.6117 16.4739C10.6117 17.0725 10.1247 17.5595 9.52609 17.5595ZM18.3445 17.5595C17.7459 17.5595 17.2589 17.0725 17.2589 16.4739C17.2589 15.8753 17.7459 15.3883 18.3445 15.3883C18.9431 15.3883 19.4301 15.8753 19.4301 16.4739C19.4301 17.0725 18.9431 17.5595 18.3445 17.5595ZM20.499 14.3528H20.215C20.0585 14.3528 19.9311 14.2255 19.9311 14.0689V13.785H20.4989V14.3528H20.499Z" fill="white"/>
<path d="M9.52556 15.9563C9.24006 15.9563 9.00781 16.1885 9.00781 16.474C9.00781 16.7595 9.24006 16.9918 9.52556 16.9918C9.81106 16.9918 10.0433 16.7595 10.0433 16.474C10.0433 16.1885 9.81106 15.9563 9.52556 15.9563Z" fill="white"/>
<path d="M18.3439 15.9563C18.0584 15.9563 17.8262 16.1885 17.8262 16.474C17.8262 16.7595 18.0584 16.9918 18.3439 16.9918C18.6294 16.9918 18.8617 16.7595 18.8617 16.474C18.8617 16.1885 18.6294 15.9563 18.3439 15.9563Z" fill="white"/>
<path d="M15.4057 14.8872H11.6646C11.5262 14.8872 11.4141 14.9994 11.4141 15.1377C11.4141 15.2761 11.5262 15.3883 11.6646 15.3883H15.4057C15.544 15.3883 15.6562 15.2761 15.6562 15.1377C15.6562 14.9994 15.5441 14.8872 15.4057 14.8872Z" fill="white"/>
<path d="M8.99237 13.8184H5.78569C5.64734 13.8184 5.53516 13.9305 5.53516 14.0689C5.53516 14.2073 5.64731 14.3194 5.78569 14.3194H8.99237C9.13071 14.3194 9.2429 14.2073 9.2429 14.0689C9.2429 13.9305 9.13071 13.8184 8.99237 13.8184Z" fill="white"/>
<path d="M13.7118 10.4178C13.614 10.32 13.4553 10.32 13.3575 10.4179L11.1296 12.6457L9.97063 11.4867C9.87279 11.3889 9.71416 11.3889 9.61635 11.4867C9.51851 11.5846 9.51851 11.7432 9.61635 11.841L10.9525 13.1771C11.0014 13.2261 11.0655 13.2505 11.1296 13.2505C11.1937 13.2505 11.2579 13.2261 11.3067 13.1771L13.7117 10.7721C13.8096 10.6743 13.8096 10.5157 13.7118 10.4178Z" fill="white"/>
</svg>
