<svg width="27" height="27" viewBox="0 0 27 27" fill="none" xmlns="http://www.w3.org/2000/svg">
<rect width="27" height="27" rx="5" fill="#325F8A"/>
<g clip-path="url(#clip0)">
<path d="M19.6705 20.7694H6.28991C6.00173 20.7694 5.72979 20.6428 5.54416 20.4215C5.35854 20.2008 5.2813 19.9107 5.33128 19.6264L7.04928 9.89083C7.13106 9.42482 7.53476 9.08667 8.00791 9.08667H17.9525C18.4256 9.08667 18.8293 9.42482 18.9111 9.89083L20.6291 19.6264C20.6791 19.9107 20.6019 20.2008 20.4162 20.4215C20.2306 20.6428 19.9587 20.7694 19.6705 20.7694ZM8.00791 9.73571C7.8502 9.73571 7.71584 9.84864 7.68794 10.0038L5.96993 19.7393C5.94721 19.8685 6.00498 19.9613 6.04133 20.0041C6.07767 20.0476 6.15815 20.1203 6.28991 20.1203H19.6705C19.8022 20.1203 19.8827 20.0476 19.9191 20.0041C19.9554 19.9613 20.0132 19.8685 19.9905 19.7393L18.2725 10.0038C18.2445 9.84864 18.1102 9.73571 17.9525 9.73571H8.00791Z" fill="white"/>
<path d="M12.9806 9.73565C11.728 9.73565 10.709 8.71666 10.709 7.46402C10.709 6.21137 11.728 5.19238 12.9806 5.19238C14.2333 5.19238 15.2523 6.21137 15.2523 7.46402C15.2523 8.71666 14.2333 9.73565 12.9806 9.73565ZM12.9806 5.84142C12.0862 5.84142 11.358 6.56964 11.358 7.46402C11.358 8.35839 12.0862 9.08661 12.9806 9.08661C13.875 9.08661 14.6032 8.35839 14.6032 7.46402C14.6032 6.56964 13.875 5.84142 12.9806 5.84142Z" fill="white"/>
<path d="M9.41046 17.5241C9.23132 17.5241 9.08594 17.3787 9.08594 17.1996V12.6563C9.08594 12.4772 9.23132 12.3318 9.41046 12.3318C9.5896 12.3318 9.73498 12.4772 9.73498 12.6563V17.1996C9.73498 17.3787 9.5896 17.5241 9.41046 17.5241Z" fill="white"/>
<path d="M15.2515 17.5241C14.3571 17.5241 13.6289 16.7965 13.6289 15.9015V13.9544C13.6289 13.06 14.3571 12.3318 15.2515 12.3318C16.1459 12.3318 16.8741 13.06 16.8741 13.9544C16.8741 14.1335 16.7287 14.2789 16.5496 14.2789C16.3704 14.2789 16.225 14.1335 16.225 13.9544C16.225 13.4176 15.7882 12.9808 15.2515 12.9808C14.7147 12.9808 14.2779 13.4176 14.2779 13.9544V15.9015C14.2779 16.4382 14.7147 16.875 15.2515 16.875C15.7882 16.875 16.225 16.4382 16.225 15.9015V15.577H15.2515C15.0724 15.577 14.927 15.4316 14.927 15.2525C14.927 15.0733 15.0724 14.9279 15.2515 14.9279H16.5496C16.7287 14.9279 16.8741 15.0733 16.8741 15.2525V15.9015C16.8741 16.7965 16.1459 17.5241 15.2515 17.5241Z" fill="white"/>
<path d="M12.0066 17.5645C11.9294 17.5645 11.8528 17.5372 11.7905 17.482L9.19433 15.1702C9.12553 15.1085 9.08594 15.0202 9.08594 14.9268C9.08594 14.8333 9.12683 14.745 9.19692 14.684L11.7931 12.4124C11.9274 12.2943 12.1319 12.3073 12.2513 12.4429C12.3694 12.5779 12.3558 12.7824 12.2208 12.9011L9.90113 14.93L12.2227 16.9985C12.3564 17.1179 12.3688 17.3224 12.2493 17.4567C12.1844 17.5281 12.0962 17.5645 12.0066 17.5645Z" fill="white"/>
</g>
<defs>
<clipPath id="clip0">
<rect width="15.5769" height="15.5769" fill="white" transform="translate(5.19141 5.19238)"/>
</clipPath>
</defs>
</svg>
