<svg width="262" height="200" viewBox="0 0 262 200" fill="none" xmlns="http://www.w3.org/2000/svg">
<path d="M259.778 69.0245H251.724L211.382 47.1728C210.878 46.8979 210.27 46.8979 209.766 47.1728L169.424 69.0245H161.37C160.433 69.0245 159.673 69.7842 159.673 70.7212V77.5079C159.673 78.4449 160.433 79.2046 161.37 79.2046H163.067V84.2947C163.067 85.2317 163.826 85.9914 164.763 85.9914H256.385C257.322 85.9914 258.081 85.2317 258.081 84.2947V79.2046H259.778C260.715 79.2046 261.475 78.4449 261.475 77.5079V70.7212C261.475 69.7842 260.715 69.0245 259.778 69.0245ZM210.574 50.5933L244.6 69.0245H239.839L211.368 53.9511C210.871 53.6881 210.277 53.6881 209.78 53.9511L181.31 69.0245H176.549L210.574 50.5933ZM232.587 69.0245H188.561L210.574 57.3699L232.587 69.0245ZM254.688 82.598H166.46V79.2046H254.688V82.598ZM258.081 75.8113H163.067V72.4179H258.081V75.8113Z" fill="black"/>
<path d="M210.574 92.7782C201.203 92.7782 193.607 100.374 193.607 109.745C193.607 119.116 201.203 126.712 210.574 126.712C219.945 126.712 227.541 119.116 227.541 109.745C227.531 100.379 219.94 92.7886 210.574 92.7782ZM210.574 123.319C203.078 123.319 197.001 117.241 197.001 109.745C197.001 102.249 203.078 96.1716 210.574 96.1716C218.07 96.1716 224.148 102.249 224.148 109.745C224.139 117.238 218.067 123.31 210.574 123.319Z" fill="black"/>
<g clip-path="url(#clip0)">
<path d="M215.631 117.958L215.178 115.898C215.152 115.777 215.087 115.686 214.983 115.626C214.871 115.566 214.759 115.557 214.646 115.6L214.582 115.626L214.426 115.665C214.357 115.682 214.277 115.702 214.186 115.723C214.096 115.745 213.99 115.766 213.869 115.788C213.748 115.81 213.62 115.829 213.487 115.846C213.353 115.863 213.209 115.879 213.053 115.892C212.897 115.904 212.742 115.911 212.587 115.911C211.49 115.911 210.503 115.615 209.626 115.024C208.75 114.432 208.104 113.631 207.69 112.621H212.703C212.798 112.621 212.884 112.588 212.962 112.523C213.04 112.459 213.087 112.379 213.104 112.284L213.415 110.833C213.441 110.704 213.415 110.587 213.338 110.483C213.251 110.379 213.143 110.328 213.014 110.328H207.068C207.042 109.74 207.042 109.287 207.068 108.967H213.39C213.623 108.967 213.761 108.855 213.804 108.631L214.115 107.154C214.141 107.033 214.111 106.921 214.024 106.817C213.947 106.713 213.839 106.661 213.701 106.661H207.638C208.07 105.694 208.718 104.934 209.581 104.381C210.445 103.829 211.421 103.552 212.509 103.552C212.544 103.535 212.671 103.539 212.891 103.565C213.111 103.591 213.237 103.602 213.267 103.598C213.297 103.593 213.409 103.606 213.603 103.636C213.798 103.667 213.895 103.682 213.895 103.682L214.122 103.727C214.187 103.74 214.236 103.751 214.271 103.759L214.323 103.772C214.435 103.807 214.538 103.796 214.633 103.74C214.729 103.684 214.789 103.6 214.815 103.487L215.372 101.428C215.398 101.315 215.385 101.212 215.333 101.117C215.256 101.013 215.169 100.948 215.074 100.922C214.28 100.724 213.442 100.625 212.561 100.625C210.626 100.625 208.897 101.177 207.373 102.283C205.848 103.388 204.797 104.848 204.218 106.661H202.949C202.828 106.661 202.728 106.7 202.651 106.778C202.573 106.855 202.534 106.955 202.534 107.076V108.553C202.534 108.673 202.573 108.773 202.651 108.85C202.729 108.928 202.828 108.967 202.949 108.967H203.817C203.791 109.382 203.786 109.835 203.804 110.327H202.949C202.836 110.327 202.739 110.368 202.657 110.45C202.575 110.532 202.534 110.629 202.534 110.741V112.205C202.534 112.318 202.575 112.415 202.657 112.497C202.739 112.579 202.836 112.62 202.949 112.62H204.179C204.723 114.528 205.751 116.046 207.263 117.173C208.774 118.301 210.54 118.864 212.561 118.864C212.725 118.864 212.891 118.86 213.06 118.851C213.229 118.842 213.386 118.829 213.533 118.812C213.679 118.795 213.824 118.776 213.967 118.754C214.109 118.732 214.239 118.711 214.355 118.689C214.472 118.668 214.582 118.646 214.685 118.625C214.789 118.603 214.882 118.579 214.964 118.553C215.046 118.528 215.115 118.508 215.171 118.495C215.228 118.482 215.273 118.467 215.307 118.45L215.372 118.437C215.467 118.402 215.541 118.34 215.592 118.249C215.644 118.159 215.657 118.061 215.631 117.958Z" fill="black"/>
</g>
<path d="M259.778 140.286H258.081V135.195C258.081 134.258 257.322 133.499 256.385 133.499H164.763C163.826 133.499 163.067 134.258 163.067 135.195V140.286H161.37C160.433 140.286 159.673 141.045 159.673 141.982V148.769C159.673 149.706 160.433 150.466 161.37 150.466H259.778C260.715 150.466 261.475 149.706 261.475 148.769V141.982C261.475 141.045 260.715 140.286 259.778 140.286ZM166.46 136.892H254.688V140.286H166.46V136.892V136.892ZM258.081 147.072H163.067V143.679H258.081V147.072Z" fill="black"/>
<path d="M176.64 130.105C177.577 130.105 178.337 129.346 178.337 128.409V91.0815C178.337 90.1445 177.577 89.3848 176.64 89.3848H168.157C167.22 89.3848 166.46 90.1445 166.46 91.0815V128.409C166.46 129.346 167.22 130.105 168.157 130.105H176.64ZM169.853 92.7782H174.944V126.712H169.853V92.7782V92.7782Z" fill="black"/>
<path d="M195.304 89.3848H186.82C185.883 89.3848 185.124 90.1445 185.124 91.0815V128.409C185.124 129.346 185.883 130.105 186.82 130.105H195.304C196.241 130.105 197.001 129.346 197.001 128.409V123.319H193.607V126.712H188.517V92.7782H193.607V96.1716H197.001V91.0815C197.001 90.1445 196.241 89.3848 195.304 89.3848Z" fill="black"/>
<path d="M224.148 123.319V128.409C224.148 129.346 224.907 130.105 225.844 130.105H234.328C235.265 130.105 236.024 129.346 236.024 128.409V91.0815C236.024 90.1445 235.265 89.3848 234.328 89.3848H225.844C224.907 89.3848 224.148 90.1445 224.148 91.0815V96.1716H227.541V92.7782H232.631V126.712H227.541V123.319H224.148Z" fill="black"/>
<path d="M252.991 130.105C253.928 130.105 254.688 129.346 254.688 128.409V91.0815C254.688 90.1445 253.928 89.3848 252.991 89.3848H244.508C243.571 89.3848 242.811 90.1445 242.811 91.0815V128.409C242.811 129.346 243.571 130.105 244.508 130.105H252.991ZM246.205 92.7782H251.295V126.712H246.205V92.7782Z" fill="black"/>
<path d="M101.041 69.0245H92.9868L52.6445 47.1728C52.1413 46.8979 51.5326 46.8979 51.0293 47.1728L10.687 69.0245H2.63285C1.69585 69.0245 0.936157 69.7842 0.936157 70.7212V77.5079C0.936157 78.4449 1.69585 79.2046 2.63285 79.2046H4.32954V84.2947C4.32954 85.2317 5.08923 85.9914 6.02623 85.9914H97.6476C98.5846 85.9914 99.3443 85.2317 99.3443 84.2947V79.2046H101.041C101.978 79.2046 102.738 78.4449 102.738 77.5079V70.7212C102.738 69.7842 101.978 69.0245 101.041 69.0245ZM51.8369 50.5933L85.8624 69.0245H81.1014L52.631 53.9511C52.1343 53.6881 51.5396 53.6881 51.0429 53.9511L22.5724 69.0245H17.8115L51.8369 50.5933ZM73.8498 69.0245H29.824L51.8369 57.3699L73.8498 69.0245ZM95.9509 82.598H7.72292V79.2046H95.9509V82.598ZM99.3443 75.8113H4.32954V72.4179H99.3443V75.8113Z" fill="black"/>
<path d="M51.8369 92.7782C42.4663 92.7782 34.87 100.374 34.87 109.745C34.87 119.116 42.4663 126.712 51.8369 126.712C61.2075 126.712 68.8038 119.116 68.8038 109.745C68.7937 100.379 61.2033 92.7886 51.8369 92.7782ZM51.8369 123.319C44.3405 123.319 38.2634 117.241 38.2634 109.745C38.2634 102.249 44.3405 96.1716 51.8369 96.1716C59.3333 96.1716 65.4104 102.249 65.4104 109.745C65.402 117.238 59.3299 123.31 51.8369 123.319Z" fill="black"/>
<g clip-path="url(#clip1)">
<path d="M56.8939 117.958L56.4404 115.898C56.4147 115.777 56.3499 115.686 56.246 115.626C56.1337 115.566 56.0215 115.557 55.9093 115.6L55.8445 115.626L55.6888 115.665C55.6196 115.682 55.5398 115.702 55.4491 115.723C55.3584 115.745 55.2528 115.766 55.1317 115.788C55.0113 115.81 54.8833 115.829 54.7497 115.846C54.6159 115.863 54.4715 115.879 54.3159 115.892C54.1603 115.904 54.005 115.911 53.8494 115.911C52.7526 115.911 51.7658 115.615 50.8893 115.024C50.0127 114.432 49.3672 113.631 48.9527 112.621H53.9658C54.061 112.621 54.1473 112.588 54.2248 112.523C54.3028 112.459 54.3503 112.379 54.3672 112.284L54.6781 110.833C54.7041 110.704 54.6781 110.587 54.6006 110.483C54.5143 110.379 54.406 110.328 54.2767 110.328H48.331C48.3051 109.74 48.3051 109.287 48.331 108.967H54.6526C54.886 108.967 55.024 108.855 55.0672 108.631L55.3781 107.154C55.4038 107.033 55.374 106.921 55.2874 106.817C55.2099 106.713 55.102 106.661 54.9638 106.661H48.901C49.3328 105.694 49.9805 104.934 50.8442 104.381C51.7078 103.829 52.6837 103.552 53.7719 103.552C53.8065 103.535 53.9338 103.539 54.1539 103.565C54.3741 103.591 54.4995 103.602 54.5296 103.598C54.5594 103.593 54.6722 103.606 54.8663 103.636C55.0606 103.667 55.1579 103.682 55.1579 103.682L55.3846 103.727C55.4495 103.74 55.4991 103.751 55.5336 103.759L55.5855 103.772C55.6976 103.807 55.801 103.796 55.8964 103.74C55.9914 103.684 56.052 103.6 56.0779 103.487L56.635 101.428C56.6608 101.315 56.6477 101.212 56.5962 101.117C56.5184 101.013 56.4319 100.948 56.3369 100.922C55.5425 100.724 54.7044 100.625 53.8237 100.625C51.889 100.625 50.1598 101.177 48.6354 102.283C47.1111 103.388 46.0596 104.848 45.4809 106.661H44.2115C44.0906 106.661 43.9913 106.7 43.9136 106.778C43.836 106.855 43.7971 106.955 43.7971 107.076V108.553C43.7971 108.673 43.8359 108.773 43.9136 108.85C43.9914 108.928 44.0908 108.967 44.2115 108.967H45.0795C45.0534 109.382 45.0493 109.835 45.0665 110.327H44.2115C44.0993 110.327 44.0021 110.368 43.9201 110.45C43.8381 110.532 43.7971 110.629 43.7971 110.741V112.205C43.7971 112.318 43.8381 112.415 43.9201 112.497C44.0022 112.579 44.0993 112.62 44.2115 112.62H45.4422C45.9863 114.528 47.0141 116.046 48.5254 117.173C50.0369 118.301 51.803 118.864 53.8237 118.864C53.988 118.864 54.1541 118.86 54.3226 118.851C54.4914 118.842 54.6487 118.829 54.7956 118.812C54.9423 118.795 55.087 118.776 55.2296 118.754C55.3719 118.732 55.5016 118.711 55.618 118.689C55.7347 118.668 55.8448 118.646 55.9483 118.625C56.052 118.603 56.1449 118.579 56.227 118.553C56.309 118.528 56.3778 118.508 56.4342 118.495C56.4904 118.482 56.5357 118.467 56.57 118.45L56.635 118.437C56.73 118.402 56.8034 118.34 56.8551 118.249C56.907 118.159 56.9197 118.061 56.8939 117.958Z" fill="black"/>
</g>
<path d="M101.041 140.286H99.3443V135.195C99.3443 134.258 98.5846 133.499 97.6476 133.499H6.02623C5.08923 133.499 4.32954 134.258 4.32954 135.195V140.286H2.63285C1.69585 140.286 0.936157 141.045 0.936157 141.982V148.769C0.936157 149.706 1.69585 150.466 2.63285 150.466H101.041C101.978 150.466 102.738 149.706 102.738 148.769V141.982C102.738 141.045 101.978 140.286 101.041 140.286ZM7.72292 136.892H95.9509V140.286H7.72292V136.892V136.892ZM99.3443 147.072H4.32954V143.679H99.3443V147.072Z" fill="black"/>
<path d="M17.9031 130.105C18.8401 130.105 19.5998 129.346 19.5998 128.409V91.0815C19.5998 90.1445 18.8401 89.3848 17.9031 89.3848H9.41965C8.48266 89.3848 7.72296 90.1445 7.72296 91.0815V128.409C7.72296 129.346 8.48266 130.105 9.41965 130.105H17.9031ZM11.1163 92.7782H16.2064V126.712H11.1163V92.7782V92.7782Z" fill="black"/>
<path d="M36.5667 89.3848H28.0832C27.1462 89.3848 26.3865 90.1445 26.3865 91.0815V128.409C26.3865 129.346 27.1462 130.105 28.0832 130.105H36.5667C37.5037 130.105 38.2634 129.346 38.2634 128.409V123.319H34.87V126.712H29.7799V92.7782H34.87V96.1716H38.2634V91.0815C38.2634 90.1445 37.5037 89.3848 36.5667 89.3848Z" fill="black"/>
<path d="M65.4105 123.319V128.409C65.4105 129.346 66.1702 130.105 67.1072 130.105H75.5906C76.5276 130.105 77.2873 129.346 77.2873 128.409V91.0815C77.2873 90.1445 76.5276 89.3848 75.5906 89.3848H67.1072C66.1702 89.3848 65.4105 90.1445 65.4105 91.0815V96.1716H68.8038V92.7782H73.8939V126.712H68.8038V123.319H65.4105Z" fill="black"/>
<path d="M94.2542 130.105C95.1912 130.105 95.9509 129.346 95.9509 128.409V91.0815C95.9509 90.1445 95.1912 89.3848 94.2542 89.3848H85.7708C84.8338 89.3848 84.0741 90.1445 84.0741 91.0815V128.409C84.0741 129.346 84.8338 130.105 85.7708 130.105H94.2542ZM87.4675 92.7782H92.5576V126.712H87.4675V92.7782Z" fill="black"/>
<path d="M207.783 39.7361C209.154 39.9021 210.399 38.9255 210.565 37.5548L213.271 15.218C213.437 13.8473 212.46 12.6015 211.089 12.4355C209.719 12.2695 208.473 13.2461 208.307 14.6168L205.902 34.4718L186.047 32.0672C184.677 31.9012 183.431 32.8778 183.265 34.2485C183.099 35.6192 184.076 36.8649 185.446 37.0309L207.783 39.7361ZM66.2559 38.7031C80.6737 18.4303 106.213 6.42171 132.989 5.55081C159.717 4.68145 187.401 14.9234 206.116 38.7966L210.051 35.7118C190.22 10.416 160.92 -0.360325 132.826 0.553454C104.78 1.46569 77.6594 14.0416 62.1813 35.8053L66.2559 38.7031Z" fill="black"/>
<path d="M64.3674 160.123C62.9967 159.957 61.7509 160.934 61.5849 162.304L58.8798 184.641C58.7138 186.012 59.6904 187.258 61.0611 187.424C62.4318 187.59 63.6775 186.613 63.8435 185.242L66.2481 165.387L86.103 167.792C87.4737 167.958 88.7195 166.981 88.8855 165.611C89.0515 164.24 88.0749 162.994 86.7042 162.828L64.3674 160.123ZM205.895 161.156C191.477 181.429 165.937 193.437 139.162 194.308C112.434 195.178 84.7497 184.936 66.0343 161.063L62.0993 164.147C81.93 189.443 111.231 200.22 139.324 199.306C167.371 198.393 194.491 185.818 209.969 164.054L205.895 161.156Z" fill="black"/>
<defs>
<clipPath id="clip0">
<rect width="18.2394" height="18.2394" fill="white" transform="translate(199.969 100.625)"/>
</clipPath>
<clipPath id="clip1">
<rect width="18.2394" height="18.2394" fill="white" transform="translate(41.2322 100.625)"/>
</clipPath>
</defs>
</svg>
