<svg xmlns="http://www.w3.org/2000/svg" width="18" height="15" viewBox="0 0 18 15"><g><g><g><path fill="#fff" d="M1.434 0h15.132C17.358 0 18 .642 18 1.434v.007c0 .792-.642 1.434-1.434 1.434H1.434A1.434 1.434 0 0 1 0 1.44v-.007C0 .642.642 0 1.434 0z"/></g><g><path fill="#fff" d="M1.437 6.187h15.125a1.438 1.438 0 1 1 0 2.875H1.437a1.438 1.438 0 0 1 0-2.875z"/></g><g><path fill="#fff" d="M1.434 12.125h15.132c.792 0 1.434.642 1.434 1.434v.007c0 .792-.642 1.434-1.434 1.434H1.434A1.434 1.434 0 0 1 0 13.566v-.007c0-.792.642-1.434 1.434-1.434z"/></g></g></g></svg>