<svg width="16" height="16" viewBox="0 0 16 16" fill="none" xmlns="http://www.w3.org/2000/svg">
<g clip-path="url(#clip0)">
<path d="M14.3 16H1.70001C0.749987 16 0 15.25 0 14.3V1.70002C0 0.749988 0.749987 0 1.70001 0H14.3C15.25 0 16 0.749988 16 1.70002V14.3C16 15.25 15.25 16 14.3 16Z" fill="#5CA4DA"/>
<path d="M12.9 0C12.3 2.60002 10.75 5.4 8.35 7.80001C5.80001 10.35 2.74999 11.95 0 12.45V1.70002C0 0.749988 0.749988 0 1.70002 0H12.9Z" fill="#6DAFE0"/>
<path d="M6.49991 12.3C6.19992 12.3 5.94993 12.15 5.74992 11.95L2.99993 8.85C2.64991 8.44999 2.69994 7.79999 3.09991 7.45001C3.49992 7.05 4.14993 7.09999 4.49991 7.5L6.49991 9.79999L11.4999 3.99998C11.8499 3.59997 12.4999 3.54998 12.8999 3.9C13.2999 4.25001 13.3499 4.89998 12.9999 5.29999L7.2499 12C7.04989 12.2 6.74991 12.3 6.49991 12.3Z" fill="white"/>
</g>
<defs>
<clipPath id="clip0">
<rect width="16" height="16" fill="white"/>
</clipPath>
</defs>
</svg>
