<svg width="13" height="13" viewBox="0 0 13 13" fill="none" xmlns="http://www.w3.org/2000/svg">
    <path d="M9.68988 2.74366C10.1881 2.74366 10.5916 2.34278 10.5916 1.84369V0.901755C10.5916 0.402218 10.1885 0 9.68988 0C9.19124 0 8.78857 0.401772 8.78857 0.901755V1.84413C8.78902 2.34278 9.19168 2.74366 9.68988 2.74366Z" fill="#CECECE"/>
    <path d="M12.8932 1.55975H11.0781V2.01822C11.0781 2.77489 10.4634 3.39139 9.70539 3.39139C8.94649 3.39139 8.33312 2.77489 8.33312 2.01822V1.55975H4.67029V2.01822C4.67029 2.77489 4.05469 3.39139 3.29713 3.39139C2.53956 3.39139 1.92441 2.77534 1.92441 2.01822V1.55975L0.0927734 1.53699V13H1.00881H11.9924L12.9071 12.9973L12.8932 1.55975ZM11.9915 12.0871H1.00881V4.76411H11.9924V12.0871H11.9915Z" fill="#CECECE"/>
    <path d="M3.28294 2.74366C3.78114 2.74366 4.18514 2.34278 4.18514 1.84369V0.901755C4.18514 0.401772 3.78114 0 3.28294 0C2.78474 0 2.38208 0.401772 2.38208 0.901755V1.84413C2.38208 2.34278 2.7843 2.74366 3.28294 2.74366Z" fill="#CECECE"/>
    <path d="M6.11546 5.7467H4.6731V7.01987H6.11546V5.7467Z" fill="#CECECE"/>
    <path d="M8.44883 5.7467H7.00513V7.01987H8.44883V5.7467Z" fill="#CECECE"/>
    <path d="M10.6103 5.7467H9.16797V7.01987H10.6103V5.7467Z" fill="#CECECE"/>
    <path d="M6.11546 7.86084H4.6731V9.13312H6.11546V7.86084Z" fill="#CECECE"/>
    <path d="M8.44883 7.86084H7.00513V9.13312H8.44883V7.86084Z" fill="#CECECE"/>
    <path d="M10.6103 7.86084H9.16797V9.13312H10.6103V7.86084Z" fill="#CECECE"/>
    <path d="M6.11546 10.0171H4.6731V11.2894H6.11546V10.0171Z" fill="#CECECE"/>
    <path d="M3.82355 7.86084H2.38208V9.13312H3.82355V7.86084Z" fill="#CECECE"/>
    <path d="M3.82355 10.0171H2.38208V11.2894H3.82355V10.0171Z" fill="#CECECE"/>
    <path d="M8.44883 10.0171H7.00513V11.2894H8.44883V10.0171Z" fill="#CECECE"/>
    <path d="M10.6103 10.0171H9.16797V11.2894H10.6103V10.0171Z" fill="#CECECE"/>
</svg>