<svg xmlns="http://www.w3.org/2000/svg" width="479.786" height="76.929"><path fill="#002868" d="M106.531 10.155h202.667v5.283H106.531v-5.283zm234.771.665v66.109h15.981V60.378h19.403v16.551h16.551V64.467c0-2.729-.98-5.104-2.949-7.135-1.585-1.648-3.39-2.695-5.419-3.139 1.898-.252 3.677-1.105 5.328-2.568 2.027-1.838 3.04-4.022 3.04-6.563V33.553h-16.551v13.695h-19.403V10.82h-15.981zm61.065 22.733V45.54h37.099v19.405h-23.399v-3.997h19.405V49.533h-21.21c-4.82 0-8.388 1.222-10.703 3.664-2.314 2.442-3.47 5.721-3.47 9.848 0 4.181 1.073 7.479 3.229 9.889 2.409 2.663 6.056 3.996 10.943 3.996h41.186V45.54c0-3.679-.89-6.533-2.663-8.56-2.029-2.283-5.137-3.427-9.322-3.427h-41.095zm-84.085 0h15.979v43.376h-15.979V33.553zm-46.894-.57v43.946h15.976V44.966h8.091v3.996h15.978v-3.996c0-3.675-.888-6.529-2.661-8.558-2.028-2.285-5.138-3.425-9.327-3.425h-28.057zm-41.763-11.581v12.151h-4.09V45.54h4.09v19.405c0 3.677.889 6.534 2.664 8.56 2.032 2.283 5.136 3.425 9.324 3.425h23.118V64.945h-19.125V45.54h19.125V33.553h-19.125V21.402h-15.981zm-62.684.666v54.861h15.981V60.378h19.405v16.551h16.549V64.467c0-2.729-.983-5.104-2.949-7.135-1.583-1.648-3.394-2.695-5.42-3.139 1.898-.252 3.678-1.105 5.324-2.568 2.034-1.838 3.045-4.022 3.045-6.563V33.553h-16.549v13.695h-19.405v-25.18h-15.981zm-21.025 27.465h-19.31v11.415h33.679V45.54c0-3.679-.89-6.533-2.666-8.56-2.025-2.283-5.138-3.427-9.322-3.427h-29.774c-4.125 0-7.149 1.096-9.084 3.285-1.934 2.186-2.9 5.09-2.9 8.702v19.405c0 3.677.887 6.534 2.664 8.56 2.03 2.283 5.136 3.425 9.32 3.425h41.762V64.945H122.52V45.54h23.396v3.993zM83.422 10.155h15.98v66.774h-15.98V10.155zM0 34.124h55.932v18.264H24.541v5.707h49.654v18.834H0V34.124zm0-24.54h74.195v18.833H0V9.584z"/><path fill-rule="evenodd" clip-rule="evenodd" fill="#CB0D00" d="M326.287 2c5.963 0 10.797 4.834 10.797 10.797s-4.834 10.798-10.797 10.798c-5.964 0-10.798-4.834-10.798-10.798S320.323 2 326.287 2"/><path fill-rule="evenodd" clip-rule="evenodd" fill="#002868" d="M464.137 21.02h2.275c1.085 0 1.827-.166 2.223-.488s.596-.752.596-1.29c0-.342-.098-.649-.288-.923a1.698 1.698 0 0 0-.791-.605c-.342-.137-.967-.2-1.886-.2h-2.129v3.506zm-1.875 6.534V15.94h3.989c1.368 0 2.354.103 2.965.317s1.094.591 1.46 1.123c.361.538.542 1.104.542 1.705 0 .85-.303 1.587-.908 2.217-.605.63-1.411.982-2.412 1.061.41.17.742.375.986.615.469.459 1.04 1.226 1.719 2.305l1.416 2.271h-2.29l-1.03-1.832c-.811-1.436-1.46-2.339-1.958-2.701-.342-.268-.846-.4-1.505-.4h-1.099v4.932h-1.875zm4.737-14.978c-1.519 0-2.994.391-4.43 1.167a8.38 8.38 0 0 0-3.37 3.331c-.811 1.446-1.216 2.95-1.216 4.518 0 1.553.4 3.042 1.196 4.469a8.472 8.472 0 0 0 3.341 3.335c1.431.796 2.92 1.197 4.479 1.197 1.553 0 3.047-.4 4.478-1.197a8.415 8.415 0 0 0 3.331-3.335c.791-1.426 1.187-2.916 1.187-4.469 0-1.568-.4-3.072-1.206-4.518a8.325 8.325 0 0 0-3.37-3.331c-1.441-.777-2.916-1.167-4.42-1.167zm0-1.788c1.812 0 3.579.464 5.308 1.392a9.922 9.922 0 0 1 4.034 3.995c.962 1.729 1.445 3.536 1.445 5.416 0 1.86-.474 3.648-1.426 5.362a10.016 10.016 0 0 1-3.989 4c-1.715.953-3.502 1.426-5.372 1.426-1.871 0-3.663-.473-5.372-1.426a10.037 10.037 0 0 1-4-4c-.957-1.714-1.431-3.502-1.431-5.362 0-1.88.483-3.687 1.45-5.416a9.952 9.952 0 0 1 4.044-3.995c1.724-.928 3.497-1.392 5.309-1.392z"/></svg>