<svg xmlns="http://www.w3.org/2000/svg" width="640" height="240"><g fill="#FFF"><path d="M345.345 110.932h12.408c.717 0 1.291.575 1.291 1.292v5.679c0 .268-.08.529-.236.75-1.453 2.029-3.586 3.719-6.336 5.025-2.744 1.301-5.508 1.957-8.217 1.957-5.92 0-10.717-1.943-14.248-5.77-3.49-3.799-5.262-8.965-5.262-15.359 0-6.225 1.771-11.28 5.266-15.031 3.531-3.778 8.287-5.69 14.139-5.69 3.137 0 5.941.639 8.338 1.907 2.053 1.074 4.08 2.794 6.047 5.128l10.512-11.293c-3.5-3.455-7.146-6.023-10.848-7.646-4.006-1.76-8.494-2.654-13.342-2.654-10.518 0-19.318 3.381-26.154 10.053-6.824 6.664-10.289 15.248-10.289 25.533 0 9.842 3.451 18.27 10.244 25.055 6.811 6.789 15.234 10.232 25.039 10.232 6.85 0 13.139-1.719 18.703-5.113 5.467-3.34 9.744-8.066 12.721-14.043v-22.92h-27.309l-2.467 12.908zM282.784 98.04H255.95c-.287.98-.637 3.63-.682 6.334-.041 2.572.299 4.484.781 6.746h46.783c-.08-6.801-.791-15.008-2.117-19.416-1.398-4.628-3.623-8.679-6.613-12.035-3.002-3.414-6.76-6.042-11.178-7.816-4.469-1.797-9.473-2.709-14.879-2.709-10.426 0-19.021 3.309-25.543 9.836-6.537 6.537-9.846 15.105-9.846 25.461 0 10.572 3.375 19.228 10.033 25.728 6.672 6.514 15.529 9.812 26.334 9.812 7.5 0 14.062-1.475 19.504-4.379 4.988-2.664 8.949-6.492 11.793-11.398l-14.506-5.944c-1.66 2.774-3.693 4.874-6.039 6.25-2.643 1.539-5.977 2.314-9.926 2.314-5.24 0-9.562-1.463-12.846-4.354-1.645-1.451-2.986-3.268-3.996-5.391-1.473-2.125-2.42-7.158-2.42-12.914 0-4.514.59-8.74 1.572-11.297.869-2.926 2.406-5.418 4.551-7.318 2.865-2.542 6.623-3.83 11.162-3.83 4.434 0 8.121 1.291 10.961 3.834 2.824 2.538 4.591 6.346 5.286 10.844.061.373.114.863-.229 1.25-.332.376-.729.392-1.106.392zM186.647 137.725h16.59v-25.461c0-.717.574-1.293 1.291-1.293h20.479l2.158-12.931h-22.637a1.287 1.287 0 0 1-1.291-1.292v-10.23c0-.715.574-1.291 1.291-1.291h25.033l2.17-13.607h-45.084v66.105zM514.722 76.615a19.406 19.406 0 0 0-7.547-5.598c-3.008-1.261-6.543-1.9-10.514-1.9-4.102 0-7.65.742-10.543 2.209-2.941 1.481-6.008 4.114-9.117 7.828-.266.319-.664.518-1.078.475a1.326 1.326 0 0 1-1.035-.549c-2.59-3.568-5.344-6.16-8.186-7.697-2.82-1.502-6.23-2.266-10.135-2.266-3.811 0-7.301.801-10.377 2.377-3.113 1.596-6.186 4.121-9.131 7.514-.373.418-.959.57-1.48.371a1.341 1.341 0 0 1-.877-1.25v-6.41h-18.869v66.186h19.043v-37.391c0-2.777.211-4.977.645-6.722.436-1.823 1.15-3.375 2.125-4.615.969-1.168 2.203-2.037 3.693-2.608 1.439-.533 3.137-.807 5.055-.807 1.938 0 3.607.262 5.113.801a9.549 9.549 0 0 1 3.92 2.633c1.051 1.178 1.805 2.652 2.229 4.375.398 1.617.598 3.721.598 6.264v38.07h19.02v-38.07c0-2.642.207-4.783.607-6.352a9.856 9.856 0 0 1 2.424-4.402 9.427 9.427 0 0 1 3.73-2.438c1.381-.477 3.051-.707 5.104-.707 2.02 0 3.688.246 5.111.754 1.502.537 2.82 1.439 3.93 2.684 1.01 1.14 1.689 2.542 2.025 4.171.305 1.481.445 3.647.445 6.635v37.725h19.043V96.846c0-5.582-.377-9.885-1.121-12.793-.708-2.838-2.005-5.338-3.85-7.438zM385.021 71.68h18.512v66.225h-18.512zM572.443 124.484c-2.643 1.539-5.977 2.314-9.926 2.314-5.24 0-9.562-1.463-12.846-4.354-1.645-1.451-2.986-3.268-3.996-5.391-1.473-2.125-2.42-7.158-2.42-12.914 0-4.514.59-8.741 1.572-11.298.869-2.925 2.406-5.417 4.551-7.317 2.865-2.543 6.623-3.831 11.162-3.831 4.434 0 8.121 1.291 10.961 3.834 2.824 2.537 4.591 6.346 5.286 10.844.061.373.114.863-.229 1.25-.334.375-.73.39-1.107.39h-26.834c-.287.98-.637 3.631-.682 6.334-.041 2.572.299 4.484.781 6.746H595.5c-.08-6.8-.791-15.007-2.117-19.416-1.398-4.628-3.623-8.679-6.613-12.035-3.002-3.414-6.76-6.043-11.178-7.816-4.469-1.797-9.473-2.709-14.879-2.709-10.426 0-19.021 3.309-25.543 9.836-6.537 6.538-9.846 15.106-9.846 25.461 0 10.572 3.375 19.229 10.033 25.729 6.672 6.514 15.529 9.812 26.334 9.812 7.5 0 14.062-1.475 19.504-4.379 4.988-2.664 8.949-6.492 11.793-11.398l-14.506-5.943c-1.66 2.775-3.693 4.874-6.039 6.251z"/></g><g fill="#FFF"><path d="M118.936 147.105c3.083-1.293 6.255-.139 7.667.5 7.75 3.5 15.325 2.326 20.097-5.009 2.591-3.983 2.785-9.665.928-13.259-1.778-3.441-2.703-5.252-1.624-8.312.928-2.629 2.474-3.556 5.76-4.521 11.025-3.242 12.1-12.873 10.361-19.212-1.252-4.564-5.186-7.709-9.399-8.949l-.002-.002c-2.676-.913-4.854-2.792-5.879-5.416-1.016-2.598-.708-5.424.605-7.891l.003.006c2.318-3.788 2.768-8.433 1.026-12.888-2.953-7.561-11.331-11.431-18.892-8.475-7.56 2.955-11.471 11.583-8.517 19.144 1.69 4.328 5.385 7.286 9.499 8.569l-.005-.012c2.774.882 5.574 2.242 6.626 4.937 1.051 2.693-.387 6.185-1.585 8.428-2.366 4.431-2.822 9.354-.58 13.606 1.349 2.557 3.325 5.103 1.74 8.543-1.209 2.624-3.517 2.932-8.08 4.464-2.386.801-8.019 5.828-8.983 11.881-.824 5.174-7.097 5.724-9.433 4.029-3.901-2.828-11.094-6.467-19.062.004-2.242 1.82-8.889 1.283-9.813-4.163-.807-4.757-3.688-9.905-9.186-11.751-4.563-1.532-6.871-1.84-8.08-4.464-1.585-3.44.391-5.987 1.74-8.543 2.242-4.253 1.786-9.176-.58-13.606-1.198-2.243-2.636-5.735-1.585-8.428 1.053-2.694 3.852-4.054 6.626-4.937l-.005.012c4.114-1.283 7.809-4.241 9.499-8.569 2.954-7.561-.957-16.189-8.517-19.144-7.562-2.956-15.939.915-18.892 8.475-1.742 4.455-1.292 9.101 1.026 12.888l.003-.006c1.313 2.467 1.621 5.293.605 7.891-1.025 2.625-3.203 4.503-5.879 5.416l-.002.002c-4.214 1.24-8.147 4.385-9.399 8.949-1.739 6.339-.664 15.97 10.361 19.212 3.286.966 4.832 1.893 5.76 4.521 1.08 3.061.155 4.871-1.624 8.312-1.857 3.594-1.664 9.275.928 13.259 4.772 7.335 12.347 8.509 20.097 5.009 1.412-.639 4.583-1.793 7.667-.5 2.272.951 3.654 2.484 4.625 6.291 3.001 11.758 22.53 14.719 28.042-.541.152-.355 1.137-4.419 4.312-5.75z"/><path d="M90.357 91.77l-.395.375c-2.748 2.668-4.105 6.065-4.105 10.199 0 8.112 6.578 14.69 14.691 14.69 8.111 0 14.689-6.578 14.689-14.69 0-4.363-1.973-8.209-4.654-10.748l-.27-.266c-3.322-2.972-5.498-7.918-5.498-13.521 0-5.602 2.176-10.547 5.498-13.52l.174-.168c3.02-2.691 4.75-6.482 4.75-10.845 0-8.114-6.578-14.69-14.689-14.69-8.113 0-14.691 6.576-14.691 14.69 0 4.134 1.559 7.732 4.309 10.401l.287.231c3.424 2.904 5.865 8.021 5.865 13.9 0 5.882-2.358 11.05-5.961 13.962z"/></g><g fill="#FFF"><path d="M199.376 166.346h-9.02v6.006h8.02v2.783h-8.02v9.186h-2.943v-20.787h11.625l.338 2.812zM205.704 184.32h-2.987v-20.787h2.987v20.787zM226.289 184.32h-2.678l-10.433-15.719v15.719h-2.869v-20.787h2.693l10.417 15.719v-15.719h2.869v20.787zM241.415 181.463l-.368 2.857h-10.389v-20.787h2.943v17.93h7.814zM258.881 184.32h-2.958l-2.207-6.695h-6.136l-2.207 6.695h-2.958l6.872-20.787h2.722l6.872 20.787zm-5.974-9.39l-2.266-7.354-2.251 7.354h4.517zM277.23 184.32h-2.678l-10.433-15.719v15.719h-2.869v-20.787h2.693l10.417 15.719v-15.719h2.869v20.787zM297.889 173.934c0 3.027-1.038 5.516-3.112 7.465-2.075 1.947-4.691 2.922-7.85 2.922H281.6v-20.787h5.18c3.325 0 6.008.963 8.049 2.887 2.04 1.923 3.06 4.427 3.06 7.513zm-2.972 0c0-2.148-.733-3.955-2.2-5.42s-3.406-2.197-5.819-2.197h-2.354v15.221h2.354c2.305 0 4.218-.715 5.739-2.146 1.519-1.431 2.28-3.251 2.28-5.458zM321.814 184.32h-3.193l-.75-1.113c-.658.508-1.324.869-2.002 1.084-.676.215-1.457.322-2.34.322-2.177 0-3.948-.607-5.312-1.824-1.363-1.215-2.045-2.805-2.045-4.768 0-1.279.336-2.43 1.008-3.449.672-1.021 1.675-1.902 3.009-2.645l-.25-.322c-.343-.479-.594-.943-.75-1.393s-.235-.918-.235-1.406c0-1.123.392-2.062 1.177-2.818.785-.758 1.756-1.137 2.914-1.137 1.107 0 2.047.379 2.816 1.137.771.756 1.156 1.676 1.156 2.76 0 .889-.229 1.641-.686 2.256-.455.615-1.209 1.182-2.258 1.699l-.191.104 4.502 6.445c.236-.361.41-.812.523-1.355.113-.541.17-1.223.17-2.043 0-.371-.014-.721-.037-1.047a9.005 9.005 0 0 0-.111-.902l2.707.016c.01.107.027.408.053.9.023.494.037.828.037 1.004 0 1.221-.143 2.264-.428 3.127-.285.865-.766 1.711-1.441 2.541l1.957 2.827zm-5.326-3.179l-4.916-7.104c-.941.566-1.624 1.174-2.045 1.824-.422.648-.632 1.398-.632 2.248 0 1.182.424 2.137 1.272 2.863.849.729 1.959 1.092 3.333 1.092.668 0 1.234-.07 1.699-.213a3.57 3.57 0 0 0 1.289-.71zm-1.959-12.422c0-.449-.137-.805-.41-1.068-.275-.264-.643-.396-1.104-.396-.48 0-.856.135-1.125.404-.27.268-.405.641-.405 1.119 0 .273.049.541.147.799.098.26.289.594.573 1.004l.236.365.338-.189c.471-.264.775-.439.912-.527.138-.088.266-.191.383-.309a1.49 1.49 0 0 0 .346-.52c.074-.19.109-.419.109-.682zM343.738 178.168c0 .84-.135 1.615-.404 2.328s-.664 1.328-1.184 1.846c-.707.703-1.494 1.209-2.363 1.518-.867.307-1.93.461-3.186.461h-5.398v-20.787h5.252c1.197 0 2.189.127 2.98.381.789.254 1.453.654 1.992 1.201.521.508.906 1.084 1.156 1.729s.375 1.393.375 2.242c0 .967-.182 1.791-.545 2.475s-.883 1.197-1.559 1.539l-.25.117.191.059c.902.312 1.617.908 2.146 1.787.534.877.797 1.913.797 3.104zm-3.545-9.023c0-.459-.064-.852-.191-1.18a2.638 2.638 0 0 0-.604-.9c-.285-.283-.643-.488-1.074-.615s-.996-.191-1.693-.191h-2.5v5.846h2.633c1.07-.029 1.908-.305 2.518-.828.607-.523.911-1.234.911-2.132zm.75 8.935c0-1.074-.344-1.902-1.031-2.482-.686-.582-1.646-.873-2.883-.873h-2.898v6.812h3.016c1.178 0 2.104-.309 2.781-.924s1.015-1.459 1.015-2.533zM361.469 184.32h-2.957l-2.207-6.695h-6.135l-2.207 6.695h-2.959l6.871-20.787h2.723l6.871 20.787zm-5.973-9.39l-2.266-7.354-2.252 7.354h4.518zM374.639 181.463l-.367 2.857h-10.389v-20.787h2.943v17.93h7.813zM386.836 166.316h-4.943v18.004h-2.943v-18.004h-4.943l.324-2.783h12.184l.321 2.783zM392.781 184.32h-2.986v-20.787h2.986v20.787zM414.455 181.287a9.475 9.475 0 0 1-3.398 2.572 10.355 10.355 0 0 1-4.326.914c-2.992 0-5.48-1.025-7.467-3.076s-2.98-4.604-2.98-7.66c0-3.154.986-5.76 2.957-7.814 1.973-2.057 4.449-3.084 7.432-3.084 1.59 0 3.059.307 4.406.922a9.04 9.04 0 0 1 3.377 2.623l-1.957 2.094c-.754-.947-1.617-1.656-2.59-2.131-.971-.473-2.049-.711-3.236-.711-2.168 0-3.945.771-5.334 2.314s-2.082 3.473-2.082 5.787c0 2.266.711 4.154 2.133 5.668 1.424 1.514 3.193 2.271 5.312 2.271 1.148 0 2.223-.24 3.223-.719s1.859-1.166 2.574-2.064l1.956 2.094zM429.186 179.018c0 1.719-.58 3.104-1.736 4.152-1.158 1.051-2.689 1.574-4.592 1.574-1.314 0-2.434-.209-3.355-.629s-1.902-1.279-2.941-2.578l-.236-.309 2.281-1.582c.559.83 1.182 1.436 1.869 1.816.686.381 1.49.572 2.412.572 1.01 0 1.824-.273 2.443-.82.617-.547.926-1.27.926-2.168 0-.762-.234-1.438-.705-2.029-.471-.59-1.32-1.268-2.547-2.029l-.484-.293c-1.541-.977-2.541-1.631-3.002-1.963s-.863-.678-1.207-1.039a4.317 4.317 0 0 1-.904-1.457 5.18 5.18 0 0 1-.303-1.811c0-1.611.535-2.895 1.605-3.852 1.068-.957 2.5-1.436 4.295-1.436 1.168 0 2.191.207 3.068.623a5.108 5.108 0 0 1 2.111 1.809l.309.453-2.266 1.553c-.432-.645-.92-1.1-1.463-1.369-.545-.268-1.209-.402-1.994-.402-.883 0-1.578.213-2.082.637-.506.426-.758 1.004-.758 1.736 0 .322.061.619.184.893s.291.518.508.732c.244.225.549.463.912.711.363.25.883.584 1.561 1.004l.484.293c1.324.82 2.281 1.463 2.869 1.926a9.069 9.069 0 0 1 1.59 1.619c.363.459.645 1.01.846 1.654s.302 1.315.302 2.009z"/></g></svg>