<svg width="55" height="52" viewBox="0 0 55 52" fill="none" xmlns="http://www.w3.org/2000/svg">
<path d="M54.4741 20.5151C54.4741 10.9208 47.189 2.96085 37.7395 2.03731C37.3973 0.862042 36.3124 0 35.0281 0H19.4466C18.1624 0 17.0776 0.862042 16.7354 2.03731C7.2856 2.96205 0 10.9221 0 20.5151V35.3416C0 38.49 2.56145 41.0514 5.70973 41.0514H10.1547C11.4775 41.0514 12.5536 39.9753 12.5536 38.6525V22.8975C12.5536 21.5747 11.4775 20.4985 10.1547 20.4985H5.70973C4.29487 20.4985 2.99954 21.0169 2.00103 21.8723V20.5151C2.00103 11.968 8.48235 4.87343 16.8957 4.03207C17.3494 4.98722 18.3207 5.65076 19.4466 5.65076H35.0281C36.154 5.65076 37.1253 4.98722 37.5791 4.03207C45.9921 4.87236 52.473 11.9669 52.473 20.5152V21.8717C51.4745 21.0168 50.1795 20.4985 48.765 20.4985H44.3201C42.9972 20.4985 41.9211 21.5747 41.9211 22.8975V38.6524C41.9211 39.9752 42.9972 41.0513 44.3201 41.0513H48.765C50.1799 41.0513 51.4752 40.5329 52.4738 39.6774V40.4057C52.4738 44.1861 49.3981 47.2618 45.6177 47.2618H33.4934C33.0548 45.6853 31.6071 44.5247 29.8928 44.5247H26.2433C24.1824 44.5247 22.5057 46.2014 22.5057 48.2623C22.5057 50.3233 24.1824 52 26.2433 52H29.8928C31.6071 52 33.0548 50.8394 33.4934 49.2629H45.6177C50.5015 49.2629 54.4749 45.2896 54.4749 40.4057L54.4741 20.5151ZM10.5527 22.8975V38.6524C10.5527 38.8718 10.3743 39.0503 10.1548 39.0503H9.75687V22.4995H10.1548C10.3743 22.4995 10.5527 22.678 10.5527 22.8975ZM5.70973 22.4995H7.75571V39.0504H5.70973C3.66468 39.0504 2.00103 37.3866 2.00103 35.3416V26.2082C2.00103 24.1632 3.66481 22.4995 5.70973 22.4995ZM35.0281 3.6496H19.4466C18.9921 3.6496 18.6223 3.27982 18.6223 2.82532C18.6223 2.37082 18.9921 2.00103 19.4466 2.00103H35.0281C35.4826 2.00103 35.8525 2.37082 35.8525 2.82532C35.8525 3.27982 35.4826 3.6496 35.0281 3.6496ZM43.922 38.6524V22.8975C43.922 22.678 44.1005 22.4995 44.3199 22.4995H44.7179V39.0504H44.3199C44.1005 39.0504 43.922 38.8718 43.922 38.6524ZM29.8928 49.9991H26.2433C25.2858 49.9991 24.5067 49.22 24.5067 48.2625C24.5067 47.3049 25.2858 46.5259 26.2433 46.5259H29.8928C30.8505 46.5259 31.6296 47.3049 31.6296 48.2625C31.6296 49.22 30.8505 49.9991 29.8928 49.9991ZM48.765 39.0504H46.719V22.4995H48.765C50.8101 22.4995 52.4738 24.1633 52.4738 26.2082V35.3416C52.4738 37.3866 50.8101 39.0504 48.765 39.0504Z" fill="#225F8F"/>
</svg>
