<svg width="34" height="34" viewBox="0 0 34 34" fill="none" xmlns="http://www.w3.org/2000/svg">
<path d="M28.8074 4.94262C25.6203 1.75528 21.3824 0 16.875 0C12.3677 0 8.12976 1.75528 4.94262 4.94262C1.75528 8.12976 0 12.3677 0 16.875C0 21.3824 1.75528 25.6201 4.94262 28.8074C8.12976 31.9946 12.3677 33.7501 16.875 33.7501C21.3824 33.7501 25.6203 31.9946 28.8074 28.8074C31.9946 25.6201 33.7501 21.3826 33.7501 16.875C33.7501 12.3677 31.9946 8.12997 28.8074 4.94262ZM27.8644 27.8644C24.9292 30.7998 21.0262 32.4165 16.875 32.4165C12.7236 32.4165 8.82087 30.7998 5.88546 27.8644C2.95004 24.9292 1.33361 21.0262 1.33361 16.875C1.33361 12.7236 2.95004 8.82087 5.88546 5.88546C8.82087 2.95004 12.7236 1.33361 16.875 1.33361C21.0262 1.33361 24.9292 2.95004 27.8644 5.88546C30.7998 8.82087 32.4165 12.7236 32.4165 16.875C32.4165 21.0262 30.7998 24.9292 27.8644 27.8644Z" fill="white"/>
<path d="M16.875 2.95166C9.19761 2.95166 2.95166 9.19761 2.95166 16.875C2.95166 19.5498 3.71219 22.1478 5.15106 24.3886C5.34984 24.6985 5.76245 24.7885 6.07206 24.5895C6.38208 24.3905 6.4721 23.9779 6.2729 23.6681C4.97246 21.6427 4.28506 19.2938 4.28506 16.875C4.28506 9.933 9.93301 4.28506 16.875 4.28506C23.817 4.28506 29.4647 9.933 29.4647 16.875C29.4647 23.8172 23.817 29.4647 16.875 29.4647C14.3508 29.4647 11.9157 28.7209 9.8333 27.3131C9.52823 27.1069 9.11397 27.1871 8.90757 27.4921C8.70137 27.7972 8.7815 28.2115 9.08658 28.4179C11.3904 29.9752 14.0836 30.7983 16.875 30.7983C24.5524 30.7983 30.7981 24.5524 30.7981 16.8752C30.7981 9.19781 24.5524 2.95166 16.875 2.95166Z" fill="white"/>
<path d="M7.36997 25.4382C7.09188 25.4382 6.83747 25.6179 6.74333 25.8793C6.64899 26.14 6.73097 26.4418 6.94541 26.6186C7.16047 26.7957 7.46946 26.8196 7.70924 26.6785C7.9484 26.5376 8.07756 26.2523 8.02482 25.98C7.96467 25.67 7.68658 25.4382 7.36997 25.4382Z" fill="white"/>
<path d="M12.7188 14.6794V16.3467C12.7188 17.039 13.2819 17.6022 13.9741 17.6022H15.6752V21.1507H14.0299C13.3376 21.1507 12.7744 21.7139 12.7744 22.406V24.0735C12.7744 24.7657 13.3376 25.3291 14.0299 25.3291H20.927C21.6193 25.3291 22.1825 24.7657 22.1825 24.0735V22.406C22.1825 21.7139 21.6193 21.1507 20.927 21.1507H19.8534V14.6794C19.8534 13.987 19.29 13.4238 18.5978 13.4238H13.9741C13.2819 13.4238 12.7188 13.9872 12.7188 14.6794ZM14.0521 14.7574H18.52V21.2285C18.52 21.9209 19.0833 22.4841 19.7755 22.4841H20.8491V23.9954H14.108V22.4841H15.753C16.4456 22.4841 17.0086 21.9209 17.0086 21.2285V17.5241C17.0086 16.832 16.4456 16.2688 15.753 16.2688H14.0521V14.7574Z" fill="white"/>
<path d="M16.463 12.4245C18.0913 12.4245 19.4159 11.0998 19.4159 9.4716C19.4159 7.84322 18.0913 6.51868 16.463 6.51868C14.8348 6.51868 13.5103 7.84322 13.5103 9.4716C13.5103 11.0998 14.8348 12.4245 16.463 12.4245ZM16.463 7.85187C17.3562 7.85187 18.0825 8.57862 18.0825 9.4716C18.0825 10.3646 17.3562 11.0909 16.463 11.0909C15.57 11.0909 14.8434 10.3646 14.8434 9.4716C14.8434 8.57862 15.57 7.85187 16.463 7.85187Z" fill="white"/>
</svg>
