<svg width="65" height="65" viewBox="0 0 65 65" fill="none" xmlns="http://www.w3.org/2000/svg">
<path d="M26.683 0C41.263 0 53.1244 11.8616 53.1244 26.4414C53.1244 33.4101 50.4132 39.7565 45.992 44.4847L64.242 62.7348L62.0717 64.9053L43.7695 46.6031C39.1577 50.5175 33.1919 52.8828 26.6832 52.8828C12.1034 52.8828 0.242004 41.0212 0.242004 26.4414C0.242004 11.8616 12.1032 0 26.683 0ZM26.683 49.8133C39.5705 49.8133 50.0549 39.3289 50.0549 26.4414C50.0549 13.5539 39.5705 3.06947 26.683 3.06947C13.7957 3.06947 3.31126 13.5539 3.31126 26.4414C3.31126 39.3289 13.7959 49.8133 26.683 49.8133Z" fill="#325F8A"/>
<path d="M29.1442 32.0853C31.9811 32.6785 34.5293 34.2734 36.3195 36.5761L38.3608 34.9892C36.195 32.2031 33.1096 30.2729 29.6735 29.5542C24.1474 28.3994 18.3375 30.5322 14.8725 34.9892L16.9141 36.5761C19.7771 32.8933 24.5779 31.1302 29.1442 32.0853Z" fill="#325F8A"/>
<path d="M18.6444 22.937C20.0724 22.937 21.2301 21.7793 21.2301 20.3513C21.2301 18.9232 20.0724 17.7656 18.6444 17.7656C17.2163 17.7656 16.0587 18.9232 16.0587 20.3513C16.0587 21.7793 17.2163 22.937 18.6444 22.937Z" fill="#325F8A"/>
<path d="M34.6434 22.937C36.0714 22.937 37.2291 21.7793 37.2291 20.3513C37.2291 18.9232 36.0714 17.7656 34.6434 17.7656C33.2153 17.7656 32.0577 18.9232 32.0577 20.3513C32.0577 21.7793 33.2153 22.937 34.6434 22.937Z" fill="#325F8A"/>
</svg>
