<?xml version="1.0" encoding="utf-8"?>
<!-- Generator: Adobe Illustrator 16.0.0, SVG Export Plug-In . SVG Version: 6.00 Build 0)  -->
<!DOCTYPE svg PUBLIC "-//W3C//DTD SVG 1.1//EN" "http://www.w3.org/Graphics/SVG/1.1/DTD/svg11.dtd">
<svg version="1.1" id="Layer_1" xmlns="http://www.w3.org/2000/svg" xmlns:xlink="http://www.w3.org/1999/xlink" x="0px" y="0px"
	 width="120px" height="71px" viewBox="0 0 120 71" enable-background="new 0 0 120 71" xml:space="preserve">
<path d="M40.909,46.423H19.091c-1.637,0-2.728,1.092-2.728,2.73s1.091,2.73,2.728,2.73h21.818c1.636,0,2.727-1.092,2.727-2.73
	S42.545,46.423,40.909,46.423z"/>
<path d="M32.727,32.769H10.909c-1.636,0-2.727,1.092-2.727,2.731s1.091,2.73,2.727,2.73h21.818c1.636,0,2.727-1.092,2.727-2.73
	S34.363,32.769,32.727,32.769z"/>
<path d="M24.545,19.115H2.727C1.091,19.115,0,20.208,0,21.846c0,1.638,1.091,2.73,2.728,2.73h21.818c1.637,0,2.728-1.092,2.728-2.73
	C27.272,20.208,26.182,19.115,24.545,19.115z"/>
<path d="M108.545,12.015c-0.818-1.092-2.727-1.366-3.818-0.546L75.818,33.588c-3,2.185-7.091,2.185-10.091,0L36.818,11.469
	c-1.091-0.82-3-0.82-3.818,0.546c-0.818,1.093-0.818,3.004,0.545,3.823l29.182,22.119c2.455,1.912,5.455,2.731,8.182,2.731
	c2.727,0,6-0.819,8.182-2.731L108,15.838C109.091,15.019,109.363,13.108,108.545,12.015z"/>
<path d="M111.818,0H24.545c-1.636,0-2.727,1.092-2.727,2.73c0,1.639,1.091,2.731,2.727,2.731h87.273
	c1.636,0,2.727,1.092,2.727,2.731v54.615c0,1.638-1.091,2.73-2.727,2.73H24.545c-1.636,0-2.727,1.092-2.727,2.73
	s1.091,2.73,2.727,2.73h87.273c4.637,0,8.182-3.549,8.182-8.192V8.192C120,3.55,116.455,0,111.818,0z"/>
<path d="M108.272,55.434L91.909,39.05c-1.091-1.093-2.727-1.093-3.818,0c-1.091,1.092-1.091,2.731,0,3.823l16.363,16.385
	c0.545,0.546,1.364,0.819,1.909,0.819s1.364-0.273,1.909-0.819C109.363,58.166,109.363,56.526,108.272,55.434z"/>
</svg>
