<svg width="58" height="52" viewBox="0 0 58 52" fill="none" xmlns="http://www.w3.org/2000/svg">
<path d="M56.5882 0H0.917647C0.410739 0 0 0.410861 0 0.917647V51.0824C0 51.5891 0.410739 52 0.917647 52H56.5882C57.0951 52 57.5059 51.5891 57.5059 51.0824V41.2941C57.5059 40.7873 57.0951 40.3765 56.5882 40.3765C56.0813 40.3765 55.6706 40.7873 55.6706 41.2941V50.1647H1.83529V9.17647H55.6706V37.6235C55.6706 38.1303 56.0813 38.5412 56.5882 38.5412C57.0951 38.5412 57.5059 38.1303 57.5059 37.6235V0.917647C57.5059 0.410861 57.0951 0 56.5882 0ZM1.83529 1.83529H35.7882V7.34118H1.83529V1.83529ZM37.6235 7.34118V1.83529H55.6706V7.34118H37.6235Z" fill="#225F8F"/>
<path d="M46.6777 3.60942C46.138 3.60942 45.6989 4.04855 45.6989 4.58824C45.6989 5.12794 46.138 5.56707 46.6777 5.56707C47.2174 5.56707 47.6565 5.12794 47.6565 4.58824C47.6565 4.04855 47.2174 3.60942 46.6777 3.60942Z" fill="#225F8F"/>
<path d="M41.6613 3.60942C41.1216 3.60942 40.6824 4.04855 40.6824 4.58824C40.6824 5.12794 41.1216 5.56707 41.6613 5.56707C42.201 5.56707 42.6401 5.12794 42.6401 4.58824C42.6401 4.04855 42.201 3.60942 41.6613 3.60942Z" fill="#225F8F"/>
<path d="M51.6942 3.60942C51.1545 3.60942 50.7153 4.04855 50.7153 4.58824C50.7153 5.12794 51.1545 5.56707 51.6942 5.56707C52.2339 5.56707 52.673 5.12794 52.673 4.58824C52.673 4.04855 52.2339 3.60942 51.6942 3.60942Z" fill="#225F8F"/>
<path d="M33.0041 37.4348C33.0041 37.6782 33.1007 37.9117 33.2728 38.0837L40.4357 45.2465C40.6078 45.4186 40.8411 45.5153 41.0846 45.5153C41.3281 45.5153 41.5613 45.4186 41.7336 45.2465L44.3291 42.651C44.6874 42.2926 44.6874 41.7116 44.3291 41.3533L37.1663 34.1905C36.8079 33.8322 36.227 33.8322 35.8685 34.1905L35.2196 34.8394L33.8944 33.5142C37.9106 28.8325 37.7057 21.7525 33.273 17.3198C31.0198 15.0665 28.0241 13.8257 24.8376 13.8257C21.6512 13.8257 18.6555 15.0666 16.4023 17.3198C11.751 21.971 11.751 29.5393 16.4023 34.1905C18.6555 36.4438 21.6512 37.6846 24.8376 37.6846C27.7162 37.6846 30.4389 36.6716 32.5995 34.8148L33.9217 36.1372L33.2729 36.786C33.1007 36.9582 33.0041 37.1915 33.0041 37.4348ZM17.6999 32.8927C13.7642 28.957 13.7642 22.5532 17.6999 18.6175C19.6064 16.711 22.1413 15.6609 24.8375 15.6609C27.5337 15.6609 30.0686 16.711 31.9751 18.6175C35.9108 22.5532 35.9108 28.957 31.9751 32.8927C30.0686 34.7992 27.5337 35.8493 24.8375 35.8493C22.1413 35.8493 19.6064 34.7992 17.6999 32.8927ZM42.3824 42.0023L41.0848 43.3001L35.2195 37.435L35.8681 36.7864C35.8687 36.7858 36.5173 36.1372 36.5173 36.1372L42.3824 42.0023Z" fill="#225F8F"/>
<path d="M30.6774 19.9154C29.1174 18.3555 27.0435 17.4964 24.8375 17.4964C22.6315 17.4964 20.5576 18.3554 18.9976 19.9154C15.7777 23.1355 15.7777 28.375 18.9976 31.5951C20.5576 33.155 22.6315 34.0141 24.8375 34.0141C27.0435 34.0141 29.1174 33.1551 30.6774 31.5951C33.8975 28.375 33.8975 23.1354 30.6774 19.9154ZM29.3796 30.2973C28.1664 31.5106 26.5533 32.1787 24.8375 32.1787C23.1218 32.1787 21.5087 31.5106 20.2954 30.2973C17.7908 27.7927 17.7908 23.7176 20.2954 21.2131C21.5087 19.9998 23.1218 19.3317 24.8375 19.3317C26.5533 19.3317 28.1664 19.9998 29.3796 21.2131C31.8842 23.7176 31.8842 27.7927 29.3796 30.2973Z" fill="#225F8F"/>
</svg>
