<svg width="72" height="73" viewBox="0 0 72 73" fill="none" xmlns="http://www.w3.org/2000/svg">
<g clip-path="url(#clip0_0_1122)">
<path d="M70.1292 49.1404H1.82617" stroke="url(#paint0_linear_0_1122)" stroke-width="3.09182" stroke-miterlimit="10" stroke-linecap="round" stroke-linejoin="round"/>
<path d="M64.7992 5.01855C67.8975 5.01855 70.4092 7.53024 70.4092 10.6287V51.8217C70.4092 54.92 67.8975 57.4318 64.7992 57.4318H7.15586C4.05758 57.4316 1.5459 54.92 1.5459 51.8217V10.6287C1.5459 7.53038 4.05758 5.01855 7.15586 5.01855H64.7992Z" stroke="#10456D" stroke-width="3.09182" stroke-miterlimit="10" stroke-linecap="round" stroke-linejoin="round"/>
<path d="M26.7012 67.0764L29.4415 57.4319" stroke="#10456D" stroke-width="3.09182" stroke-miterlimit="10" stroke-linecap="round" stroke-linejoin="round"/>
<path d="M42.5137 57.4319L45.254 67.0764" stroke="#10456D" stroke-width="3.09182" stroke-miterlimit="10" stroke-linecap="round" stroke-linejoin="round"/>
<path d="M49.7815 67.0762H22.1733" stroke="#10456D" stroke-width="3.09182" stroke-miterlimit="10" stroke-linecap="round" stroke-linejoin="round"/>
<path d="M27.9184 21.5569C27.9184 22.6631 27.0216 23.5598 25.9154 23.5598C25.3668 23.5598 23.3869 23.5687 23.3869 23.5687C23.3869 23.5687 23.3869 22.1144 23.3869 21.5569C23.3869 21.0989 23.3869 19.554 23.3869 19.554C23.3869 19.554 25.2671 19.554 25.9154 19.554C27.0216 19.554 27.9184 20.4507 27.9184 21.5569Z" stroke="#10456D" stroke-width="3.09182" stroke-miterlimit="10" stroke-linecap="round" stroke-linejoin="round"/>
<path d="M28.7002 25.9055C28.7002 27.1996 27.6513 28.2486 26.3572 28.2486C25.7155 28.2486 23.3871 28.259 23.3871 28.259C23.3871 28.259 23.3871 26.5579 23.3871 25.9055C23.3871 25.3698 23.3871 23.5625 23.3871 23.5625C23.3871 23.5625 25.5989 23.5625 26.3572 23.5625C27.6511 23.5625 28.7002 24.6115 28.7002 25.9055Z" stroke="#10456D" stroke-width="3.09182" stroke-miterlimit="10" stroke-linecap="round" stroke-linejoin="round"/>
<path d="M44.3579 19.5547L47.1383 23.8128L49.8959 19.5768" stroke="#10456D" stroke-width="3.09182" stroke-miterlimit="10" stroke-linecap="round" stroke-linejoin="round"/>
<path d="M47.128 28.2594L47.1388 23.813" stroke="#10456D" stroke-width="3.09182" stroke-miterlimit="10" stroke-linecap="round" stroke-linejoin="round"/>
<path d="M33.4598 19.5544V25.5443C33.4598 26.5643 33.9659 27.2511 34.8254 27.8003C35.244 28.0678 35.7727 28.2583 36.4299 28.2592C36.9989 28.26 37.4745 28.1282 37.8679 27.9302C38.8696 27.4257 39.5084 26.6596 39.5084 25.538V19.5544" stroke="#10456D" stroke-width="3.09182" stroke-miterlimit="10" stroke-linecap="round" stroke-linejoin="round"/>
<path d="M55.6006 31.1228C57.4211 29.1691 58.5346 26.5492 58.5346 23.6684C58.5346 17.6251 53.6356 12.7261 47.5936 12.7261H24.6142C21.5933 12.7261 18.8584 13.9504 16.878 15.9307C14.8976 17.9111 13.6733 20.6461 13.6733 23.6684C13.6733 29.7104 18.5723 34.6094 24.6142 34.6094H47.5938C48.1464 34.6094 48.6877 34.5688 49.2178 34.4888" stroke="url(#paint1_linear_0_1122)" stroke-width="3.09182" stroke-miterlimit="10" stroke-linejoin="round"/>
<circle cx="35.9776" cy="53.2603" r="1.54591" fill="#10456D"/>
<path d="M59.4621 32.4308L53.2946 30.3466L47.1273 28.2625L49.1995 34.4339L51.2717 40.6053L53.4013 38.4799L57.9222 43.0097L61.8536 39.0859L57.3327 34.5561L59.4621 32.4308Z" stroke="url(#paint2_linear_0_1122)" stroke-width="3.09182" stroke-miterlimit="10" stroke-linecap="round" stroke-linejoin="round"/>
</g>
<defs>
<linearGradient id="paint0_linear_0_1122" x1="90.3133" y1="48.91" x2="87.9847" y2="64.4747" gradientUnits="userSpaceOnUse">
<stop stop-color="#CB0D00"/>
<stop offset="1" stop-color="#FA5244"/>
</linearGradient>
<linearGradient id="paint1_linear_0_1122" x1="71.7914" y1="7.68559" x2="4.63342" y2="21.1586" gradientUnits="userSpaceOnUse">
<stop stop-color="#CB0D00"/>
<stop offset="1" stop-color="#FA5244"/>
</linearGradient>
<linearGradient id="paint2_linear_0_1122" x1="66.2053" y1="24.8656" x2="43.4895" y2="27.0855" gradientUnits="userSpaceOnUse">
<stop stop-color="#CB0D00"/>
<stop offset="1" stop-color="#FA5244"/>
</linearGradient>
<clipPath id="clip0_0_1122">
<rect width="71.9551" height="71.9551" fill="white" transform="translate(0 0.0693359)"/>
</clipPath>
</defs>
</svg>
