<svg width="70" height="70" viewBox="0 0 70 70" fill="none" xmlns="http://www.w3.org/2000/svg">
<path d="M56.7003 47.0876C58.6231 47.0876 60.1818 45.5289 60.1818 43.6061C60.1818 41.6833 58.6231 40.1245 56.7003 40.1245C54.7775 40.1245 53.2188 41.6833 53.2188 43.6061C53.2188 45.5289 54.7775 47.0876 56.7003 47.0876Z" stroke="#F3493B" stroke-width="3.00781" stroke-miterlimit="10" stroke-linecap="round" stroke-linejoin="round"/>
<path d="M9.30713 59.5756V6.95037C9.30713 3.94242 11.7456 1.50391 14.7537 1.50391H37.2169C40.225 1.50391 42.6634 3.94242 42.6634 6.95037V18.8784" stroke="#10456D" stroke-width="3.00781" stroke-miterlimit="10" stroke-linecap="round" stroke-linejoin="round"/>
<path d="M23.3441 59.5756V24.7841C23.3441 21.776 25.7826 19.3376 28.7906 19.3376H51.2537C54.2618 19.3376 56.7002 21.7762 56.7002 24.7841V33.4699" stroke="#10456D" stroke-width="3.00781" stroke-miterlimit="10" stroke-linecap="round" stroke-linejoin="round"/>
<path d="M54.499 59.958C51.5982 56.4359 46.8591 49.7399 46.8591 43.5844C46.8591 38.1494 51.265 33.7434 56.7001 33.7434C62.1353 33.7434 66.5412 38.1493 66.5412 43.5844C66.5412 49.7399 61.8021 56.436 58.9013 59.958" stroke="#F3493B" stroke-width="3.00781" stroke-miterlimit="10" stroke-linecap="round" stroke-linejoin="round"/>
<path d="M30.1583 28.5708V31.5623" stroke="#10456D" stroke-width="3.00781" stroke-miterlimit="10" stroke-linecap="round" stroke-linejoin="round"/>
<path d="M40.0222 28.5708V31.5623" stroke="#10456D" stroke-width="3.00781" stroke-miterlimit="10" stroke-linecap="round" stroke-linejoin="round"/>
<path d="M49.8862 28.5708V31.5623" stroke="#10456D" stroke-width="3.00781" stroke-miterlimit="10" stroke-linecap="round" stroke-linejoin="round"/>
<path d="M16.1207 28.5708V31.5623" stroke="#10456D" stroke-width="3.00781" stroke-miterlimit="10" stroke-linecap="round" stroke-linejoin="round"/>
<path d="M16.1207 40.2136V43.2053" stroke="#10456D" stroke-width="3.00781" stroke-miterlimit="10" stroke-linecap="round" stroke-linejoin="round"/>
<path d="M16.1207 18.3511V21.3428" stroke="#10456D" stroke-width="3.00781" stroke-miterlimit="10" stroke-linecap="round" stroke-linejoin="round"/>
<path d="M16.1207 8.11646V11.108" stroke="#10456D" stroke-width="3.00781" stroke-miterlimit="10" stroke-linecap="round" stroke-linejoin="round"/>
<path d="M25.9852 8.11646V11.108" stroke="#10456D" stroke-width="3.00781" stroke-miterlimit="10" stroke-linecap="round" stroke-linejoin="round"/>
<path d="M35.8492 8.11646V11.108" stroke="#10456D" stroke-width="3.00781" stroke-miterlimit="10" stroke-linecap="round" stroke-linejoin="round"/>
<path d="M16.1207 51.8567V54.8482" stroke="#10456D" stroke-width="3.00781" stroke-miterlimit="10" stroke-linecap="round" stroke-linejoin="round"/>
<path d="M30.1583 40.2136V43.2053" stroke="#10456D" stroke-width="3.00781" stroke-miterlimit="10" stroke-linecap="round" stroke-linejoin="round"/>
<path d="M40.0222 40.2136V43.2053" stroke="#10456D" stroke-width="3.00781" stroke-miterlimit="10" stroke-linecap="round" stroke-linejoin="round"/>
<path d="M30.1583 51.8567V54.8482" stroke="#10456D" stroke-width="3.00781" stroke-miterlimit="10" stroke-linecap="round" stroke-linejoin="round"/>
<path d="M40.0222 51.8567V54.8482" stroke="#10456D" stroke-width="3.00781" stroke-miterlimit="10" stroke-linecap="round" stroke-linejoin="round"/>
<path d="M63.5881 68.4962H6.19263C4.68243 68.4962 3.45825 67.272 3.45825 65.7618V63.2908C3.45825 61.7806 4.68243 60.5564 6.19263 60.5564H63.5881C65.0983 60.5564 66.3225 61.7806 66.3225 63.2908V65.7618C66.3225 67.272 65.0983 68.4962 63.5881 68.4962Z" stroke="#10456D" stroke-width="3.00781" stroke-miterlimit="10" stroke-linecap="round" stroke-linejoin="round"/>
</svg>
