<svg width="75" height="75" viewBox="0 0 75 75" fill="none" xmlns="http://www.w3.org/2000/svg">
    <path d="M71.1708 19.9257C70.3606 16.9135 67.9856 14.539 64.9738 13.7279C59.4716 12.2224 37.4625 12.2224 37.4625 12.2224C37.4625 12.2224 15.4542 12.2224 9.95207 13.6708C6.9982 14.481 4.56533 16.9139 3.75509 19.9257C2.30713 25.4275 2.30713 36.8374 2.30713 36.8374C2.30713 36.8374 2.30713 48.3048 3.75509 53.749C4.56619 56.7608 6.94027 59.1353 9.9525 59.9464C15.5122 61.4523 37.4634 61.4523 37.4634 61.4523C37.4634 61.4523 59.4716 61.4523 64.9738 60.0039C67.9861 59.1932 70.3606 56.8187 71.1717 53.8069C72.6192 48.3048 72.6192 36.8953 72.6192 36.8953C72.6192 36.8953 72.6771 25.4275 71.1708 19.9257ZM30.4553 47.3782V26.2965L48.757 36.8374L30.4553 47.3782Z" fill="#E2E2E2"/>
</svg>
