<?xml version="1.0" encoding="iso-8859-1"?>
<!-- Generator: Adobe Illustrator 16.0.0, SVG Export Plug-In . SVG Version: 6.00 Build 0)  -->
<!DOCTYPE svg PUBLIC "-//W3C//DTD SVG 1.1//EN" "http://www.w3.org/Graphics/SVG/1.1/DTD/svg11.dtd">
<svg version="1.1" id="Capa_1" xmlns="http://www.w3.org/2000/svg" xmlns:xlink="http://www.w3.org/1999/xlink" x="0px" y="0px"
	 width="492.08px" height="492.079px" viewBox="0 0 492.08 492.079" style="enable-background:new 0 0 492.08 492.079;"
	 xml:space="preserve">
<g>
	<g>
		<path d="M207.183,353.821l-19.238,11.646c-4.895,2.967-10.507,4.535-16.231,4.535c-4.692,0-9.407-1.08-13.632-3.123
			c-9.588-4.635-16.109-13.709-17.441-24.27l-2.824-22.323l-11.05,1.063L69.592,437.169c-2.018,4.088-1.447,8.98,1.459,12.492
			c2.906,3.512,7.605,4.99,12,3.772l45.83-12.698l17.787,44.104c1.707,4.229,5.736,7.06,10.293,7.229
			c0.145,0.006,0.291,0.01,0.436,0.01c4.389,0,8.416-2.488,10.369-6.445l54.111-109.61c-0.886-1.041-1.713-2.146-2.471-3.312
			L207.183,353.821z"/>
		<path d="M350.817,342.975c-1.372,10.562-7.927,19.612-17.53,24.213c-4.197,2.012-8.877,3.074-13.533,3.074
			c-5.759,0-11.401-1.586-16.313-4.584l-19.21-11.722l-12.282,18.839c-0.623,0.956-1.301,1.861-2.013,2.73l54.357,110.107
			c1.953,3.957,5.982,6.445,10.369,6.445c0.145,0,0.291-0.004,0.436-0.01c4.558-0.17,8.589-3,10.291-7.229l17.789-44.104
			l45.832,12.698c1.121,0.312,2.269,0.451,3.388,0.416c6.256-0.149,11.28-5.27,11.28-11.562c0-2.055-0.534-3.984-1.475-5.658
			l-56.67-114.789l-11.816-1.178L350.817,342.975z"/>
		<path d="M379.215,306.05c4.325,0,8.444-1.954,11.178-5.366c3.03-3.785,3.94-8.848,2.419-13.451l-12.239-37.025l36.643-13.343
			c4.56-1.66,7.965-5.513,9.058-10.238c1.09-4.725-0.283-9.681-3.652-13.171L395.533,185.4l27.234-27.916
			c3.387-3.472,4.786-8.421,3.723-13.151c-1.067-4.731-4.455-8.602-9.004-10.283l-36.572-13.534l12.433-36.963
			c1.548-4.596,0.661-9.663-2.35-13.464c-2.73-3.441-6.869-5.428-11.21-5.428c-0.452,0-0.906,0.021-1.361,0.065l-38.828,3.666
			l-4.823-38.697c-0.599-4.813-3.593-8.994-7.955-11.113c-1.98-0.961-4.121-1.438-6.256-1.438c-2.569,0-5.132,0.69-7.396,2.058
			L279.461,39.53L258.018,6.52C255.375,2.454,250.856,0,246.007,0c-4.85,0-9.369,2.453-12.013,6.52l-21.241,32.705l-33.324-20.256
			c-2.277-1.385-4.855-2.085-7.441-2.085c-2.118,0-4.242,0.47-6.211,1.417c-4.37,2.104-7.379,6.274-7.994,11.085l-4.961,38.682
			l-38.813-3.802c-0.467-0.046-0.938-0.068-1.402-0.069c-4.328,0-8.454,1.968-11.187,5.39c-3.025,3.788-3.929,8.852-2.397,13.453
			l12.303,37.007l-36.621,13.405c-4.554,1.668-7.955,5.526-9.037,10.253c-1.083,4.728,0.301,9.681,3.674,13.165l27.137,28.008
			l-27.186,27.961c-3.378,3.479-4.771,8.429-3.697,13.158c1.076,4.729,4.47,8.594,9.021,10.268l36.598,13.471l-12.373,36.984
			c-1.537,4.598-0.645,9.664,2.375,13.459c2.732,3.436,6.87,5.407,11.207,5.407c0.455,0,0.914-0.022,1.373-0.065l38.818-3.732
			l4.895,38.689c0.607,4.812,3.608,8.987,7.976,11.1c1.974,0.955,4.106,1.428,6.232,1.428c2.577,0,5.147-0.695,7.419-2.072
			l33.359-20.196l21.188,32.741c2.636,4.072,7.152,6.533,12.002,6.543c0,0,0.016,0,0.023,0c4.84,0,9.354-2.445,11.997-6.502
			l21.3-32.666l33.293,20.314c2.281,1.393,4.867,2.098,7.459,2.098c2.111,0,4.228-0.467,6.189-1.406
			c4.373-2.096,7.391-6.262,8.016-11.071l5.025-38.674l38.809,3.868C378.267,306.025,378.744,306.05,379.215,306.05z
			 M330.224,166.572l-36.772,35.845l8.682,50.612c0.472,2.752-0.66,5.533-2.918,7.175c-1.278,0.929-2.791,1.401-4.312,1.401
			c-1.168,0-2.341-0.279-3.412-0.844l-45.454-23.896l-45.453,23.896c-2.473,1.299-5.467,1.084-7.725-0.559
			c-2.26-1.643-3.391-4.423-2.918-7.175l8.682-50.612l-36.773-35.845c-2-1.948-2.719-4.863-1.855-7.519
			c0.861-2.655,3.156-4.591,5.92-4.992l50.818-7.384l22.727-46.049c1.236-2.504,3.785-4.09,6.578-4.09
			c2.791,0,5.342,1.586,6.578,4.09l22.725,46.049l50.82,7.384c2.762,0.401,5.057,2.337,5.92,4.992
			C332.944,161.707,332.222,164.624,330.224,166.572z"/>
	</g>
</g>
<g>
</g>
<g>
</g>
<g>
</g>
<g>
</g>
<g>
</g>
<g>
</g>
<g>
</g>
<g>
</g>
<g>
</g>
<g>
</g>
<g>
</g>
<g>
</g>
<g>
</g>
<g>
</g>
<g>
</g>
</svg>
