<?xml version="1.0" encoding="utf-8"?>
<!-- Generator: Adobe Illustrator 16.0.0, SVG Export Plug-In . SVG Version: 6.00 Build 0)  -->
<!DOCTYPE svg PUBLIC "-//W3C//DTD SVG 1.1//EN" "http://www.w3.org/Graphics/SVG/1.1/DTD/svg11.dtd">
<svg version="1.1" id="Layer_1" xmlns="http://www.w3.org/2000/svg" xmlns:xlink="http://www.w3.org/1999/xlink" x="0px" y="0px"
	 width="24px" height="24px" viewBox="0 0 24 24" enable-background="new 0 0 24 24" xml:space="preserve">
<g>
	<path d="M17.116,6.24c-0.111-0.156-0.277-0.261-0.467-0.294l-0.711-0.124l0.626-3.52c0.07-0.389-0.192-0.758-0.586-0.827
		c-0.391-0.069-0.769,0.191-0.837,0.579l-0.627,3.52l-0.346-0.061V5.009c0-0.395-0.325-0.714-0.724-0.714h-0.724V0.721
		c0-0.394-0.323-0.715-0.723-0.715s-0.723,0.321-0.723,0.715v3.574h-0.725c-0.397,0-0.722,0.318-0.722,0.714v0.504L9.485,5.573
		l-0.629-3.52C8.789,1.666,8.413,1.406,8.021,1.475C7.628,1.542,7.366,1.913,7.435,2.302l0.628,3.52L7.351,5.946
		C7.162,5.979,6.993,6.084,6.883,6.24c-0.11,0.156-0.151,0.348-0.118,0.533l1.351,4.46c-0.265,0.105-0.451,0.363-0.451,0.663v10.592
		c0,0.031,0.002,0.066,0.007,0.1c0.031,0.223,0.197,0.637,0.943,0.923c0.701,0.27,1.839,0.407,3.385,0.407
		c1.545,0,2.684-0.136,3.385-0.407c0.747-0.286,0.911-0.7,0.944-0.923c0.004-0.033,0.008-0.068,0.008-0.1V11.896
		c0-0.3-0.187-0.556-0.453-0.663l1.354-4.46C17.269,6.586,17.224,6.394,17.116,6.24z M11.277,5.724h1.444v6.162
		c-0.22,0.007-0.46,0.011-0.723,0.011c-0.262,0-0.503-0.004-0.723-0.011L11.277,5.724L11.277,5.724z M8.312,7.229l1.423-0.248
		l0.096,0.533v4.252c-0.055-0.009-0.107-0.018-0.158-0.027L8.312,7.229z M14.89,22.169c-0.275,0.113-1.029,0.316-2.891,0.316
		c-1.859,0-2.616-0.203-2.892-0.316v-9.088c0.694,0.161,1.661,0.243,2.892,0.243s2.199-0.08,2.891-0.243V22.169z M14.326,11.74
		c-0.05,0.009-0.103,0.019-0.157,0.027V7.515l0.095-0.533l1.424,0.248L14.326,11.74z"/>
	<path d="M10.554,14.041c-0.398,0-0.723,0.318-0.723,0.714v6.334c0,0.393,0.324,0.715,0.723,0.715c0.399,0,0.724-0.322,0.724-0.715
		v-6.334C11.277,14.363,10.953,14.041,10.554,14.041z"/>
</g>
</svg>
