<?xml version="1.0" encoding="utf-8"?>
<!-- Generator: Adobe Illustrator 16.0.0, SVG Export Plug-In . SVG Version: 6.00 Build 0)  -->
<!DOCTYPE svg PUBLIC "-//W3C//DTD SVG 1.1//EN" "http://www.w3.org/Graphics/SVG/1.1/DTD/svg11.dtd">
<svg version="1.1" id="Layer_1" xmlns="http://www.w3.org/2000/svg" xmlns:xlink="http://www.w3.org/1999/xlink" x="0px" y="0px"
	 width="24px" height="24px" viewBox="0 0 24 24" enable-background="new 0 0 24 24" xml:space="preserve">
<g>
	<path d="M11.998,0.02c-4.547,0-8.231,3.677-8.231,8.213c0,3.01,2.759,6.199,3.767,9.002c1.499,4.178,1.332,6.678,4.467,6.678
		c3.18,0,2.967-2.487,4.467-6.66c1.008-2.807,3.768-6.032,3.768-9.02C20.23,3.696,16.543,0.02,11.998,0.02z M13.938,20.311
		l-3.711,0.461c-0.132-0.38-0.274-0.829-0.446-1.412c-0.001-0.008-0.004-0.016-0.006-0.024l4.63-0.575
		c-0.064,0.22-0.135,0.451-0.197,0.658C14.109,19.752,14.02,20.045,13.938,20.311z M9.555,18.617
		c-0.135-0.449-0.289-0.923-0.46-1.425h5.812c-0.094,0.269-0.184,0.537-0.264,0.793L9.555,18.617z M11.998,22.419
		c-0.758,0-1.107-0.088-1.495-0.933l3.173-0.397C13.215,22.323,12.881,22.419,11.998,22.419z M15.494,15.699H8.51
		c-0.374-0.807-0.821-1.613-1.263-2.402C6.27,11.554,5.262,9.75,5.262,8.232c0-3.706,3.021-6.718,6.736-6.718
		c3.713,0,6.735,3.013,6.735,6.718c0,1.508-1.01,3.32-1.986,5.073C16.309,14.092,15.865,14.896,15.494,15.699z"/>
	<path d="M11.998,3.754c-2.476,0-4.491,2.008-4.491,4.479c0,0.207,0.168,0.374,0.375,0.374c0.207,0,0.374-0.167,0.374-0.374
		c0-2.057,1.679-3.732,3.742-3.732c0.207,0,0.374-0.168,0.374-0.374C12.372,3.919,12.203,3.754,11.998,3.754z"/>
</g>
</svg>
