<?xml version="1.0" encoding="utf-8"?>
<!-- Generator: Adobe Illustrator 16.0.0, SVG Export Plug-In . SVG Version: 6.00 Build 0)  -->
<!DOCTYPE svg PUBLIC "-//W3C//DTD SVG 1.1//EN" "http://www.w3.org/Graphics/SVG/1.1/DTD/svg11.dtd">
<svg version="1.1" id="Layer_1" xmlns="http://www.w3.org/2000/svg" xmlns:xlink="http://www.w3.org/1999/xlink" x="0px" y="0px"
	 width="24px" height="24px" viewBox="0 0 24 24" enable-background="new 0 0 24 24" xml:space="preserve">
<g>
	<path d="M19.466,17.431c0,1.135-0.923,2.054-2.059,2.054H6.187c-1.136,0-2.057-0.919-2.057-2.054V2.125
		c0-1.135,0.921-2.054,2.057-2.054h11.22c1.136,0,2.059,0.919,2.059,2.054V17.431z M18.343,2.125c0-0.515-0.418-0.934-0.934-0.934
		H6.187c-0.516,0-0.934,0.419-0.934,0.934v15.306c0,0.516,0.418,0.933,0.934,0.933h11.22c0.518,0,0.935-0.417,0.935-0.933
		L18.343,2.125L18.343,2.125z"/>
	<path d="M16.472,20.23c0,0.204-0.165,0.373-0.373,0.373h-2.244c-0.206,0-0.375-0.169-0.375-0.373v-0.746
		c0-0.208,0.166-0.374,0.375-0.374h2.244c0.208,0,0.373,0.166,0.373,0.374V20.23z"/>
	<path d="M17.657,23.929c-0.954,0-1.716-0.255-2.271-0.762c-1.098-1.005-0.912-2.58-0.902-2.646c0.039-0.307,0.32-0.526,0.628-0.485
		c0.307,0.039,0.522,0.316,0.486,0.625c-0.004,0.021-0.116,1.082,0.549,1.686c0.538,0.483,1.509,0.59,2.809,0.305
		c3.519-0.771,4.065-0.423,4.323,0c0.19,0.314,0.097,0.668-0.079,0.883c-0.2,0.239-0.552,0.271-0.79,0.07
		c-0.095-0.076-0.154-0.18-0.184-0.285c-0.337-0.021-1.154,0.016-3.031,0.426C18.639,23.866,18.125,23.929,17.657,23.929z"/>
	<path d="M10.488,19.484c0-0.208-0.167-0.374-0.374-0.374H7.872c-0.207,0-0.375,0.166-0.375,0.374v0.746
		c0,0.204,0.167,0.373,0.375,0.373h2.243c0.208,0,0.374-0.169,0.374-0.373L10.488,19.484L10.488,19.484z"/>
	<path d="M6.347,23.929c-0.468,0-0.981-0.062-1.541-0.185c-1.875-0.411-2.692-0.45-3.03-0.428c-0.029,0.107-0.091,0.211-0.184,0.286
		c-0.238,0.198-0.591,0.166-0.79-0.071c-0.178-0.213-0.272-0.569-0.081-0.881c0.258-0.423,0.804-0.772,4.324-0.002
		c1.3,0.284,2.272,0.179,2.808-0.306c0.669-0.604,0.553-1.673,0.55-1.686c-0.035-0.306,0.184-0.583,0.49-0.622
		c0.304-0.039,0.586,0.181,0.625,0.485c0.007,0.066,0.196,1.642-0.903,2.646C8.061,23.674,7.301,23.929,6.347,23.929z"/>
	<path d="M12.087,17.741c-1.48,0-2.685-1.202-2.685-2.679s1.204-2.68,2.685-2.68c1.481,0,2.686,1.203,2.686,2.68
		S13.568,17.741,12.087,17.741z M12.087,13.503c-0.861,0-1.562,0.697-1.562,1.56c0,0.859,0.701,1.56,1.562,1.56
		c0.86,0,1.562-0.7,1.562-1.56C13.648,14.205,12.947,13.503,12.087,13.503z"/>
	<path d="M12.172,14.444c-0.31,0-0.562-0.249-0.562-0.56v-1.12c0-0.309,0.251-0.56,0.562-0.56c0.309,0,0.561,0.251,0.561,0.56v1.12
		C12.731,14.195,12.481,14.444,12.172,14.444z"/>
	<path d="M13.32,4.18h-2.993c-0.309,0-0.561-0.251-0.561-0.56c0-0.311,0.252-0.561,0.561-0.561h2.993
		c0.311,0,0.562,0.25,0.562,0.561C13.883,3.929,13.631,4.18,13.32,4.18z"/>
</g>
</svg>
