<?xml version="1.0" encoding="utf-8"?>
<!-- Generator: Adobe Illustrator 16.0.0, SVG Export Plug-In . SVG Version: 6.00 Build 0)  -->
<!DOCTYPE svg PUBLIC "-//W3C//DTD SVG 1.1//EN" "http://www.w3.org/Graphics/SVG/1.1/DTD/svg11.dtd">
<svg version="1.1" id="Layer_1" xmlns="http://www.w3.org/2000/svg" xmlns:xlink="http://www.w3.org/1999/xlink" x="0px" y="0px"
	 width="24px" height="24px" viewBox="0 0 24 24" enable-background="new 0 0 24 24" xml:space="preserve">
<g>
	<path d="M23.414,4.186l-0.296-0.685l-3.96,3.952h-2.634l0.002-2.628l3.928-3.927l-0.708-0.283c-0.796-0.319-1.633-0.48-2.482-0.48
		c-3.689,0-6.692,2.995-6.692,6.675c0,0.729,0.122,1.449,0.359,2.146L0.895,18.969c-0.546,0.541-0.844,1.263-0.844,2.028
		c0,0.765,0.3,1.487,0.844,2.028c0.541,0.541,1.265,0.84,2.032,0.84s1.49-0.299,2.032-0.84l9.979-9.955
		c0.743,0.273,1.524,0.415,2.323,0.415c3.688,0,6.688-2.995,6.688-6.674C23.952,5.899,23.771,5.018,23.414,4.186z M17.264,12.474
		c-0.779,0-1.533-0.156-2.246-0.464l-0.314-0.136L4.245,22.31c-0.706,0.703-1.934,0.703-2.638,0
		c-0.353-0.352-0.546-0.821-0.546-1.315c0-0.498,0.193-0.965,0.546-1.316l10.5-10.475l-0.122-0.308
		c-0.268-0.672-0.403-1.374-0.403-2.087c0-3.125,2.549-5.666,5.68-5.666c0.458,0,0.91,0.055,1.353,0.164l-3.103,3.099v4.056h4.066
		l3.161-3.154c0.134,0.486,0.199,0.988,0.199,1.502C22.941,9.932,20.394,12.474,17.264,12.474z M3.673,20.927
		c0,0.403-0.328,0.729-0.73,0.729c-0.405,0-0.731-0.328-0.731-0.729c0-0.402,0.328-0.729,0.731-0.729
		C3.345,20.197,3.673,20.524,3.673,20.927z"/>
</g>
</svg>
