<?xml version="1.0" encoding="utf-8"?>
<!-- Generator: Adobe Illustrator 16.0.0, SVG Export Plug-In . SVG Version: 6.00 Build 0)  -->
<!DOCTYPE svg PUBLIC "-//W3C//DTD SVG 1.1//EN" "http://www.w3.org/Graphics/SVG/1.1/DTD/svg11.dtd">
<svg version="1.1" id="Layer_1" xmlns="http://www.w3.org/2000/svg" xmlns:xlink="http://www.w3.org/1999/xlink" x="0px" y="0px"
	 width="24px" height="24px" viewBox="0 0 24 24" enable-background="new 0 0 24 24" xml:space="preserve">
<g>
	<path d="M12.356,7.562c-1.226,1.51-1.927,3.663-1.927,5.912c0,2.248,0.701,4.402,1.927,5.911c1.004,1.24,2.277,1.924,3.582,1.924
		c2.99,0,5.512-3.588,5.512-7.835c0-4.244-2.521-7.831-5.512-7.831C14.634,5.64,13.36,6.322,12.356,7.562z M12.763,8.802
		c0.105,0.166,0.207,0.335,0.3,0.514c0.023,0.041,0.043,0.086,0.062,0.127c0.075,0.145,0.146,0.295,0.214,0.448
		c0.027,0.07,0.055,0.144,0.084,0.216c0.054,0.131,0.101,0.262,0.146,0.396c0.029,0.081,0.054,0.166,0.079,0.247
		c0.041,0.13,0.075,0.263,0.108,0.397c0.022,0.086,0.042,0.172,0.062,0.26c0.033,0.137,0.06,0.276,0.082,0.417
		c0.017,0.086,0.031,0.17,0.044,0.257c0.021,0.154,0.039,0.308,0.054,0.462c0.009,0.075,0.018,0.151,0.021,0.227
		c0.018,0.232,0.027,0.466,0.027,0.699c0,0.235-0.01,0.471-0.027,0.702c-0.004,0.078-0.013,0.149-0.021,0.228
		c-0.015,0.154-0.032,0.309-0.054,0.461c-0.013,0.087-0.027,0.173-0.044,0.258c-0.024,0.142-0.05,0.278-0.082,0.416
		c-0.018,0.088-0.038,0.176-0.062,0.265c-0.033,0.13-0.067,0.266-0.108,0.394c-0.025,0.084-0.053,0.166-0.079,0.249
		c-0.045,0.133-0.092,0.266-0.146,0.394c-0.028,0.072-0.057,0.148-0.084,0.221c-0.066,0.151-0.138,0.299-0.211,0.445
		c-0.021,0.04-0.038,0.087-0.064,0.13c-0.094,0.175-0.194,0.348-0.3,0.513c-0.82-1.275-1.279-2.937-1.279-4.671
		C11.482,11.739,11.943,10.076,12.763,8.802z M20.396,13.471c0,3.669-2.042,6.771-4.458,6.771c-0.873,0-1.746-0.432-2.493-1.222
		c0.031-0.037,0.055-0.085,0.083-0.127c0.06-0.089,0.115-0.176,0.173-0.267c0.072-0.115,0.142-0.23,0.207-0.35
		c0.051-0.096,0.104-0.19,0.152-0.289c0.062-0.122,0.121-0.25,0.18-0.375c0.043-0.103,0.087-0.201,0.13-0.305
		c0.053-0.13,0.104-0.266,0.15-0.402c0.033-0.103,0.072-0.208,0.105-0.311c0.047-0.142,0.083-0.288,0.121-0.435
		c0.03-0.105,0.06-0.209,0.084-0.315c0.035-0.154,0.063-0.308,0.091-0.467c0.019-0.104,0.041-0.204,0.057-0.309
		c0.027-0.173,0.043-0.353,0.062-0.529c0.01-0.089,0.021-0.176,0.027-0.266c0.021-0.265,0.032-0.533,0.032-0.805
		c0-0.271-0.011-0.539-0.032-0.807c-0.006-0.09-0.021-0.175-0.027-0.264c-0.02-0.178-0.035-0.354-0.062-0.529
		c-0.016-0.104-0.038-0.206-0.057-0.309c-0.027-0.157-0.056-0.312-0.091-0.465c-0.024-0.109-0.054-0.213-0.084-0.319
		c-0.038-0.144-0.074-0.288-0.118-0.43c-0.033-0.107-0.071-0.21-0.107-0.314c-0.048-0.136-0.099-0.27-0.148-0.401
		c-0.043-0.104-0.086-0.203-0.132-0.303c-0.059-0.127-0.117-0.254-0.178-0.377c-0.049-0.098-0.103-0.195-0.152-0.289
		c-0.067-0.12-0.136-0.235-0.207-0.352c-0.059-0.091-0.115-0.178-0.175-0.266c-0.027-0.042-0.053-0.088-0.083-0.13
		C14.193,7.129,15.068,6.7,15.942,6.7C18.354,6.705,20.396,9.805,20.396,13.471z"/>
	<path d="M0.024,13.324c0,5.818,3.783,10.553,8.432,10.553h7.089c4.648,0,8.431-4.734,8.431-10.553
		c0-5.82-3.782-10.555-8.431-10.555c-1.897,0-4.01,1.589-4.01-2.169c0-0.154-0.073-0.3-0.2-0.39
		c-0.124-0.088-0.285-0.113-0.431-0.062L2.947,0.544C2.7,0.632,2.569,0.904,2.653,1.155c0.01,0.022,0.024,0.038,0.035,0.061
		c-0.035,0.065-0.058,0.139-0.058,0.22c0,2.976,1.376,0.827,3.255,1.839C2.489,4.638,0.024,8.626,0.024,13.324z M23.027,13.324
		c0,5.291-3.357,9.597-7.482,9.597c-4.126,0-7.483-4.306-7.483-9.597c0-5.291,3.357-9.596,7.483-9.596
		C19.67,3.728,23.027,8.034,23.027,13.324z M7.588,2.77c-2.175,0-4.01,1.965-4.01-1.335c0-0.032-0.011-0.061-0.017-0.091l7.044-0.08
		c0.168,2.787,1.329-0.316,3.062,1.505H8.456c-0.231,0-0.458,0.014-0.684,0.037C7.716,2.785,7.655,2.77,7.588,2.77z M8.456,3.728
		h3.587c-2.905,1.668-4.93,5.341-4.93,9.596c0,4.255,2.024,7.928,4.93,9.597H8.456c-4.126,0-7.482-4.306-7.482-9.597
		C0.974,8.032,4.33,3.728,8.456,3.728z"/>
</g>
</svg>
