<?xml version="1.0" encoding="utf-8"?>
<!-- Generator: Adobe Illustrator 16.0.0, SVG Export Plug-In . SVG Version: 6.00 Build 0)  -->
<!DOCTYPE svg PUBLIC "-//W3C//DTD SVG 1.1//EN" "http://www.w3.org/Graphics/SVG/1.1/DTD/svg11.dtd">
<svg version="1.1" id="Layer_1" xmlns="http://www.w3.org/2000/svg" xmlns:xlink="http://www.w3.org/1999/xlink" x="0px" y="0px"
	 width="24px" height="24px" viewBox="0 0 24 24" enable-background="new 0 0 24 24" xml:space="preserve">
<g>
	<path d="M19.841,11.85c-1.755-0.679-3.644-0.645-5.158,0.078c-0.674-0.816-1.698-1.338-2.842-1.338c-1,0-1.908,0.398-2.568,1.041
		c-0.907-0.928-1.438-2.298-1.438-3.755c0-2.702,1.797-4.901,4.007-4.901c2.208,0,4.006,2.199,4.006,4.901
		c0,0.644-0.1,1.27-0.299,1.86c-0.097,0.286,0.06,0.593,0.35,0.688c0.288,0.095,0.601-0.059,0.696-0.345
		c0.236-0.701,0.356-1.442,0.356-2.205c0-3.302-2.291-5.988-5.108-5.988c-2.815,0-5.11,2.688-5.11,5.99
		c0,1.467,0.46,2.868,1.265,3.948c-1.291-0.26-2.722-0.105-4.037,0.461c-1.465,0.632-2.64,1.699-3.309,3.001
		c-0.684,1.338-0.757,2.768-0.203,4.018c0.789,1.785,2.699,2.812,4.823,2.812c0.911,0,1.858-0.189,2.776-0.586
		c1.12-0.482,2.079-1.225,2.771-2.143c0.183-0.242,0.13-0.584-0.114-0.762c-0.244-0.178-0.588-0.129-0.771,0.113
		c-0.576,0.77-1.38,1.389-2.327,1.797c-2.507,1.08-5.267,0.334-6.151-1.666C1.038,17.92,1.1,16.822,1.634,15.777
		c0.552-1.078,1.535-1.965,2.767-2.496c1.318-0.568,2.762-0.646,3.968-0.234c-0.126,0.365-0.195,0.756-0.195,1.164
		c0,1.994,1.644,3.619,3.664,3.619c0.193,0,0.382-0.016,0.566-0.043c0.628,1.518,1.979,2.787,3.707,3.457
		c0.848,0.328,1.712,0.484,2.546,0.484c2.228,0,4.214-1.111,4.961-2.994C24.649,16.143,22.953,13.057,19.841,11.85z M9.276,14.211
		c0-1.398,1.151-2.535,2.564-2.535c1.415,0,2.564,1.136,2.564,2.535c0,1.396-1.149,2.531-2.564,2.531
		C10.427,16.744,9.276,15.607,9.276,14.211z M22.595,18.338c-0.808,2.031-3.533,2.881-6.081,1.895
		c-1.416-0.549-2.525-1.568-3.053-2.777c1.209-0.592,2.042-1.824,2.042-3.244c0-0.475-0.092-0.928-0.261-1.342
		c1.228-0.554,2.758-0.563,4.195-0.008C21.987,13.85,23.401,16.305,22.595,18.338z"/>
</g>
</svg>
