<?xml version="1.0" encoding="utf-8"?>
<!-- Generator: Adobe Illustrator 16.0.0, SVG Export Plug-In . SVG Version: 6.00 Build 0)  -->
<!DOCTYPE svg PUBLIC "-//W3C//DTD SVG 1.1//EN" "http://www.w3.org/Graphics/SVG/1.1/DTD/svg11.dtd">
<svg version="1.1" id="Layer_1" xmlns="http://www.w3.org/2000/svg" xmlns:xlink="http://www.w3.org/1999/xlink" x="0px" y="0px"
	 width="24px" height="24px" viewBox="0 0 24 24" enable-background="new 0 0 24 24" xml:space="preserve">
<g>
	<path d="M22.221,1.817H1.777c-0.955,0-1.731,0.742-1.731,1.655v14.326c0,0.912,0.776,1.656,1.731,1.656h6.254v1.204
		c0,1.105-0.939,0.841-2.095,0.841H4.031c-0.365,0-0.662,0.281-0.662,0.632c0,0.352,0.297,0.633,0.662,0.633h15.939
		c0.363,0,0.66-0.281,0.66-0.633c0-0.351-0.297-0.632-0.66-0.632h-1.904c-1.158,0-2.096,0.265-2.096-0.841v-1.204h6.254
		c0.953,0,1.73-0.744,1.73-1.656V3.472C23.955,2.56,23.178,1.817,22.221,1.817z M8.634,21.5c0.698,0,0.72-0.085,0.72-0.84v-1.205
		h5.293v1.205c0,0.755,0.062,0.84,0.721,0.84H8.634z M22.633,17.798c0,0.218-0.184,0.393-0.412,0.393H1.777
		c-0.227,0-0.41-0.175-0.41-0.393v-3.323h21.266V17.798z M22.633,13.211H1.369V3.474c0-0.216,0.182-0.392,0.408-0.392h20.444
		c0.229,0,0.412,0.175,0.412,0.392V13.211L22.633,13.211z"/>
	<path d="M11.298,15.623c0.463,0,0.84,0.365,0.84,0.818c0,0.454-0.377,0.819-0.84,0.819c-0.465,0-0.84-0.365-0.84-0.819
		C10.458,15.988,10.833,15.623,11.298,15.623z"/>
	<path d="M12.631,4.461c-0.304-0.297-0.796-0.297-1.101,0L6.032,9.824c-0.304,0.297-0.304,0.776,0,1.074
		c0.152,0.146,0.351,0.222,0.549,0.222c0.199,0,0.399-0.075,0.55-0.224l5.499-5.362C12.936,5.236,12.936,4.758,12.631,4.461z"/>
	<path d="M15.891,7.568c-0.305-0.295-0.797-0.295-1.102,0L12.6,9.703c-0.304,0.298-0.304,0.778,0,1.074
		C12.752,10.926,12.953,11,13.148,11c0.201,0,0.398-0.074,0.551-0.223l2.191-2.137C16.193,8.347,16.193,7.865,15.891,7.568z"/>
</g>
</svg>
