<?xml version="1.0" encoding="utf-8"?>
<!-- Generator: Adobe Illustrator 16.0.0, SVG Export Plug-In . SVG Version: 6.00 Build 0)  -->
<!DOCTYPE svg PUBLIC "-//W3C//DTD SVG 1.1//EN" "http://www.w3.org/Graphics/SVG/1.1/DTD/svg11.dtd">
<svg version="1.1" id="Layer_1" xmlns="http://www.w3.org/2000/svg" xmlns:xlink="http://www.w3.org/1999/xlink" x="0px" y="0px"
	 width="24px" height="24px" viewBox="0 0 24 24" enable-background="new 0 0 24 24" xml:space="preserve">
<g>
	<path d="M13.575,3.675h-1.05V3.146h1.05c0.314,0,0.523-0.211,0.523-0.528V0.546c0-0.317-0.209-0.528-0.523-0.528h-3.148
		c-0.314,0-0.524,0.211-0.524,0.528v2.071c0,0.317,0.262,0.528,0.524,0.528h1.049v0.527h-1.049c-3.148,0-5.771,2.59-5.771,5.812
		v12.381c0,1.164,0.944,2.115,2.099,2.115h10.493c1.154,0,2.098-0.951,2.098-2.115v-0.758v-8.453V9.485
		C19.345,6.264,16.775,3.675,13.575,3.675z M10.95,1.075h2.099v1.013H10.95V1.075z M10.479,4.731h3.146
		c2.413,0,4.408,1.85,4.67,4.227H5.756C6.02,6.58,8.013,4.731,10.479,4.731z M17.247,22.926H6.754c-0.577,0-1.051-0.475-1.051-1.059
		h2.624c0.315,0,0.525-0.209,0.525-0.525c0-0.318-0.21,1.553-0.525,1.553H5.703v-1.057h1.574c0.315,0,0.525-0.209,0.525-0.527
		c0-0.316-0.21-0.527-0.525-0.527H5.703V10.015h12.593v2.113h-7.87c-0.314,0-0.525,0.212-0.525,0.528v8.455
		c0,0.316,0.211,0.527,0.525,0.527h7.87v0.229C18.297,22.451,17.825,22.926,17.247,22.926z M18.297,20.582h-7.345v-7.396h7.345
		V20.582z"/>
</g>
</svg>
