<?xml version="1.0" encoding="utf-8"?>
<!-- Generator: Adobe Illustrator 16.0.0, SVG Export Plug-In . SVG Version: 6.00 Build 0)  -->
<!DOCTYPE svg PUBLIC "-//W3C//DTD SVG 1.1//EN" "http://www.w3.org/Graphics/SVG/1.1/DTD/svg11.dtd">
<svg version="1.1" id="Layer_1" xmlns="http://www.w3.org/2000/svg" xmlns:xlink="http://www.w3.org/1999/xlink" x="0px" y="0px"
	 width="24px" height="24px" viewBox="147.5 168 24 24" enable-background="new 147.5 168 24 24" xml:space="preserve">
<g>
	<path d="M170.063,174.369c0-0.003-0.001-0.008-0.001-0.011c0.002-0.113-0.024-0.227-0.084-0.331
		c-0.087-0.15-0.225-0.252-0.379-0.295l-9.78-5.647c-0.001-0.001-0.003-0.002-0.005-0.002c-0.022-0.014-0.046-0.025-0.07-0.036
		c-0.002,0-0.003,0-0.004-0.001c-0.022-0.009-0.045-0.016-0.068-0.022c-0.006-0.002-0.013-0.003-0.019-0.005
		c-0.019-0.005-0.038-0.009-0.058-0.012c-0.007-0.001-0.013-0.002-0.02-0.003c-0.025-0.003-0.05-0.005-0.076-0.005
		s-0.051,0.002-0.076,0.005c-0.007,0.001-0.013,0.002-0.02,0.003c-0.02,0.003-0.038,0.007-0.058,0.012
		c-0.006,0.002-0.013,0.003-0.019,0.005c-0.023,0.007-0.047,0.014-0.068,0.022c-0.001,0.001-0.002,0.001-0.004,0.001
		c-0.024,0.011-0.048,0.022-0.07,0.036c-0.002,0-0.004,0.001-0.005,0.002l-9.78,5.646c-0.153,0.044-0.292,0.146-0.378,0.296
		c-0.061,0.104-0.088,0.218-0.086,0.331c0,0.003,0,0.008,0,0.011v11.464c0,0.002,0,0.005,0,0.006c0,0.025,0.002,0.052,0.005,0.078
		c0,0.001,0.001,0.001,0.001,0.002c0.003,0.024,0.008,0.05,0.015,0.072c0.001,0.007,0.003,0.013,0.005,0.019
		c0.005,0.019,0.012,0.037,0.019,0.057c0.003,0.006,0.005,0.012,0.008,0.019c0.009,0.021,0.02,0.042,0.032,0.064
		c0,0.001,0.001,0.002,0.002,0.003l0,0c0.003,0.005,0.006,0.01,0.009,0.014c0.012,0.021,0.023,0.039,0.038,0.057
		c0.01,0.013,0.021,0.023,0.031,0.036c0.008,0.009,0.016,0.018,0.023,0.026c0.014,0.014,0.028,0.026,0.044,0.038
		c0.006,0.006,0.012,0.012,0.019,0.017c0.018,0.013,0.035,0.024,0.054,0.035c0.005,0.004,0.01,0.007,0.016,0.011l0.003,0.002
		c0.001,0,0.003,0,0.003,0.002l9.6,5.543v0.066c0.005,0,0.008,0,0.013,0c0.008,0,0.015,0.001,0.022,0.001
		c0.006,0,0.012-0.001,0.017-0.001c0.004,0,0.007,0,0.01,0c0.01,0,0.021-0.002,0.032-0.002c0.008,0,0.017,0.002,0.024,0.002
		c0.01-0.002,0.019-0.003,0.028-0.003c0.011,0,0.021,0.001,0.03,0.003c0.012-0.002,0.023-0.003,0.036-0.003
		c0.015,0,0.028,0.001,0.042,0.003c0.014-0.002,0.027-0.003,0.042-0.003c0.011,0,0.022,0.001,0.032,0.003
		c0.014-0.002,0.026-0.003,0.039-0.003s0.023,0.001,0.034,0.004c0.015-0.003,0.029-0.004,0.044-0.004
		c0.014,0,0.025,0.003,0.037,0.004c0.007,0,0.014-0.001,0.02-0.001c0.013,0,0.023,0.001,0.034,0.002
		c0.015-0.002,0.03-0.004,0.047-0.004c0.008,0,0.017,0.002,0.024,0.002c0.01,0,0.02-0.002,0.029-0.002
		c0.006,0,0.011,0.002,0.017,0.002c0.005,0,0.009-0.002,0.013-0.002c0.011,0,0.02,0.002,0.029,0.003
		c0.013-0.001,0.025-0.003,0.039-0.003c0.015,0,0.028,0.002,0.041,0.003c0.016-0.003,0.032-0.004,0.05-0.004
		c0.016,0,0.031,0.001,0.046,0.004c0.053-0.003,0.104-0.004,0.157-0.004c0.011,0,0.021,0.003,0.031,0.004
		c0.01,0,0.019,0,0.028-0.001c0.018-0.002,0.036-0.002,0.054,0.001c0.022-0.005,0.046-0.008,0.07-0.008
		c0.023,0,0.045,0.003,0.064,0.005v-0.064l9.6-5.543c0.001-0.002,0.002-0.002,0.002-0.002l0.005-0.002
		c0.006-0.004,0.011-0.009,0.017-0.012c0.018-0.011,0.034-0.021,0.051-0.033c0.007-0.006,0.015-0.013,0.021-0.019
		c0.015-0.013,0.029-0.024,0.042-0.037c0.008-0.009,0.016-0.019,0.024-0.028c0.01-0.012,0.021-0.022,0.03-0.034
		c0.014-0.018,0.026-0.036,0.038-0.057c0.004-0.004,0.007-0.009,0.01-0.014l0,0c0-0.001,0.001-0.002,0.001-0.003
		c0.013-0.022,0.022-0.044,0.031-0.064c0.003-0.007,0.005-0.013,0.008-0.019c0.007-0.019,0.014-0.038,0.019-0.057
		c0.003-0.006,0.004-0.012,0.006-0.019c0.006-0.022,0.011-0.048,0.015-0.072c0-0.001,0-0.001,0-0.002
		c0.004-0.026,0.006-0.053,0.006-0.078c0-0.001,0-0.004,0-0.006V174.369L170.063,174.369z M158.861,190.458l-8.012-4.626l6.77-3.926
		c0.305-0.176,0.409-0.567,0.232-0.872s-0.568-0.409-0.873-0.232l-6.766,3.923v-9.272l8.648,4.994V190.458L158.861,190.458z
		 M159.5,179.341l-8.628-4.982l7.989-4.614v7.781c0,0.353,0.286,0.639,0.639,0.639s0.639-0.286,0.639-0.639v-7.781l7.99,4.614
		L159.5,179.341z M168.786,184.724l-6.765-3.923c-0.306-0.177-0.695-0.072-0.874,0.232c-0.175,0.305-0.071,0.696,0.233,0.872
		l6.769,3.926l-8.011,4.626v-10.012l8.647-4.994V184.724L168.786,184.724z"/>
	<path d="M160.079,192.001"/>
</g>
</svg>
