<?xml version="1.0" encoding="utf-8"?>
<!-- Generator: Adobe Illustrator 16.0.0, SVG Export Plug-In . SVG Version: 6.00 Build 0)  -->
<!DOCTYPE svg PUBLIC "-//W3C//DTD SVG 1.1//EN" "http://www.w3.org/Graphics/SVG/1.1/DTD/svg11.dtd">
<svg version="1.1" id="Layer_1" xmlns="http://www.w3.org/2000/svg" xmlns:xlink="http://www.w3.org/1999/xlink" x="0px" y="0px"
	 width="24px" height="24px" viewBox="-3 -4.5 24 24" enable-background="new -3 -4.5 24 24" xml:space="preserve">
<g>
	<path d="M14.092-2.609h-2.828c0,1.548-0.705,2.884-2.264,2.884c-1.56,0-2.035-1.336-2.035-2.884H3.912l-6.789,4.493l3.394,6.177
		l2.262-1.122v10.67h12.444V6.939l2.262,1.124l3.393-6.177L14.092-2.609z M16.797,6.65L15.58,5.872L14.092,5.38v1.559v9.546H3.911
		V6.939V5.38L2.422,5.872L1.204,6.65l-2.691-4.261L4.21-1.486l1.811,0.007C6.508,0.146,7.208,1.281,9,1.281
		c1.793,0,2.744-1.144,3.229-2.767h1.561l5.699,3.875L16.797,6.65z"/>
</g>
</svg>
