<?xml version="1.0" standalone="no"?>
<!DOCTYPE svg PUBLIC "-//W3C//DTD SVG 20010904//EN"
 "http://www.w3.org/TR/2001/REC-SVG-20010904/DTD/svg10.dtd">
<svg version="1.0" xmlns="http://www.w3.org/2000/svg"
 width="592.000000pt" height="592.000000pt" viewBox="0 0 592.000000 592.000000"
 preserveAspectRatio="xMidYMid meet">
<metadata>
Created by potrace 1.11, written by Peter Selinger 2001-2013
</metadata>
<g transform="translate(0.000000,592.000000) scale(0.100000,-0.100000)"
fill="#000000" stroke="none">
<path d="M0 4890 l0 -750 33 0 c44 -1 5814 -1 5855 0 l32 0 0 750 0 750 -2960
0 -2960 0 0 -750z"/>
<path d="M0 1978 l0 -1708 2960 0 2960 0 0 750 c0 413 -3 750 -7 750 -5 0
-896 1 -1980 1 l-1973 1 -1 31 c-1 40 -1 410 0 418 1 3 564 5 1251 5 1243 -1
1250 -1 1251 19 0 11 1 338 2 727 1 466 -1 708 -8 709 -5 1 -1010 2 -2232 3
l-2223 1 0 -1707z"/>
</g>
</svg>
